%TF.GenerationSoftware,Altium Limited,Altium Designer,21.5.1 (32)*%
G04 Layer_Color=32896*
%FSLAX45Y45*%
%MOMM*%
%TF.SameCoordinates,51D5493F-A844-4614-94AE-4B196E198A34*%
%TF.FilePolarity,Positive*%
%TF.FileFunction,Other,Top_Designator*%
%TF.Part,Single*%
G01*
G75*
%TA.AperFunction,NonConductor*%
%ADD34C,0.25400*%
D34*
X2749215Y5974608D02*
X2723824Y5949216D01*
Y5898433D01*
X2749215Y5873041D01*
X2850782D01*
X2876174Y5898433D01*
Y5949216D01*
X2850782Y5974608D01*
X2876174Y6101567D02*
X2723824D01*
X2799999Y6025392D01*
Y6126959D01*
X2699216Y1524608D02*
X2673824Y1499216D01*
Y1448433D01*
X2699216Y1423041D01*
X2800783D01*
X2826175Y1448433D01*
Y1499216D01*
X2800783Y1524608D01*
X2699216Y1575392D02*
X2673824Y1600784D01*
Y1651567D01*
X2699216Y1676959D01*
X2724607D01*
X2749999Y1651567D01*
X2775391Y1676959D01*
X2800783D01*
X2826175Y1651567D01*
Y1600784D01*
X2800783Y1575392D01*
X2775391D01*
X2749999Y1600784D01*
X2724607Y1575392D01*
X2699216D01*
X2749999Y1600784D02*
Y1651567D01*
X4250783Y3180392D02*
X4276175Y3205784D01*
Y3256567D01*
X4250783Y3281959D01*
X4149216D01*
X4123824Y3256567D01*
Y3205784D01*
X4149216Y3180392D01*
X4276175Y3028041D02*
X4250783Y3078825D01*
X4200000Y3129608D01*
X4149216D01*
X4123824Y3104216D01*
Y3053433D01*
X4149216Y3028041D01*
X4174608D01*
X4200000Y3053433D01*
Y3129608D01*
X2949216Y1519609D02*
X2923824Y1494217D01*
Y1443433D01*
X2949216Y1418041D01*
X3050783D01*
X3076175Y1443433D01*
Y1494217D01*
X3050783Y1519609D01*
Y1570392D02*
X3076175Y1595784D01*
Y1646567D01*
X3050783Y1671959D01*
X2949216D01*
X2923824Y1646567D01*
Y1595784D01*
X2949216Y1570392D01*
X2974608D01*
X3000000Y1595784D01*
Y1671959D01*
X3076176Y3223041D02*
X2923825D01*
Y3299216D01*
X2949217Y3324608D01*
X3000000D01*
X3025392Y3299216D01*
Y3223041D01*
Y3273825D02*
X3076176Y3324608D01*
Y3451567D02*
X2923825D01*
X3000000Y3375392D01*
Y3476959D01*
X2923824Y2926959D02*
X3076175D01*
Y2850783D01*
X3050783Y2825392D01*
X3000000D01*
X2974608Y2850783D01*
Y2926959D01*
Y2876175D02*
X2923824Y2825392D01*
X3076175Y2673041D02*
Y2774608D01*
X3000000D01*
X3025392Y2723825D01*
Y2698433D01*
X3000000Y2673041D01*
X2949216D01*
X2923824Y2698433D01*
Y2749216D01*
X2949216Y2774608D01*
X4349216Y7369609D02*
X4323824Y7344217D01*
Y7293433D01*
X4349216Y7268041D01*
X4450783D01*
X4476175Y7293433D01*
Y7344217D01*
X4450783Y7369609D01*
X4476175Y7521959D02*
Y7420392D01*
X4374608Y7521959D01*
X4349216D01*
X4323824Y7496567D01*
Y7445784D01*
X4349216Y7420392D01*
X4124216Y6069609D02*
X4098824Y6044217D01*
Y5993433D01*
X4124216Y5968041D01*
X4225783D01*
X4251175Y5993433D01*
Y6044217D01*
X4225783Y6069609D01*
X4124216Y6120392D02*
X4098824Y6145784D01*
Y6196567D01*
X4124216Y6221959D01*
X4149608D01*
X4175000Y6196567D01*
Y6171176D01*
Y6196567D01*
X4200391Y6221959D01*
X4225783D01*
X4251175Y6196567D01*
Y6145784D01*
X4225783Y6120392D01*
X2949216Y6069609D02*
X2923824Y6044217D01*
Y5993433D01*
X2949216Y5968041D01*
X3050783D01*
X3076175Y5993433D01*
Y6044217D01*
X3050783Y6069609D01*
X2923824Y6221959D02*
Y6120392D01*
X3000000D01*
X2974608Y6171176D01*
Y6196567D01*
X3000000Y6221959D01*
X3050783D01*
X3076175Y6196567D01*
Y6145784D01*
X3050783Y6120392D01*
X4149216Y1569609D02*
X4123824Y1544217D01*
Y1493434D01*
X4149216Y1468042D01*
X4250783D01*
X4276175Y1493434D01*
Y1544217D01*
X4250783Y1569609D01*
X4123824Y1620392D02*
Y1721960D01*
X4149216D01*
X4250783Y1620392D01*
X4276175D01*
X4123824Y7526959D02*
X4276175D01*
Y7450783D01*
X4250783Y7425392D01*
X4200000D01*
X4174608Y7450783D01*
Y7526959D01*
Y7476175D02*
X4123824Y7425392D01*
Y7273041D02*
Y7374608D01*
X4225392Y7273041D01*
X4250783D01*
X4276175Y7298433D01*
Y7349216D01*
X4250783Y7374608D01*
X4123824Y2926959D02*
X4276175D01*
Y2850783D01*
X4250783Y2825392D01*
X4200000D01*
X4174608Y2850783D01*
Y2926959D01*
Y2876175D02*
X4123824Y2825392D01*
X4250783Y2774608D02*
X4276175Y2749216D01*
Y2698433D01*
X4250783Y2673041D01*
X4225392D01*
X4200000Y2698433D01*
Y2723825D01*
Y2698433D01*
X4174608Y2673041D01*
X4149216D01*
X4123824Y2698433D01*
Y2749216D01*
X4149216Y2774608D01*
%TF.MD5,d84173b0304e6e5a9fa1f27622dd5fc8*%
M02*
