%TF.GenerationSoftware,Altium Limited,Altium Designer,21.5.1 (32)*%
G04 Layer_Color=65535*
%FSLAX45Y45*%
%MOMM*%
%TF.SameCoordinates,51D5493F-A844-4614-94AE-4B196E198A34*%
%TF.FilePolarity,Positive*%
%TF.FileFunction,Legend,Top*%
%TF.Part,Single*%
G01*
G75*
%TA.AperFunction,NonConductor*%
%ADD33C,0.19990*%
%ADD34C,0.25400*%
%ADD42C,0.20000*%
%ADD43C,0.10008*%
%ADD44C,0.16000*%
%ADD45C,0.22000*%
%ADD46R,1.60000X0.55000*%
%ADD47R,1.60000X0.55000*%
G36*
X400000Y560024D02*
X384345Y559166D01*
X353656Y552917D01*
X324757Y540844D01*
X298742Y523404D01*
X276596Y501258D01*
X259156Y475243D01*
X247083Y446344D01*
X240834Y415654D01*
X239976Y399999D01*
Y400000D01*
X150000D01*
Y424622D01*
X159608Y472921D01*
X178453Y518418D01*
X205812Y559363D01*
X240634Y594185D01*
X281579Y621544D01*
X327076Y640389D01*
X375374Y649997D01*
X399997D01*
X399997Y649997D01*
X400000Y560024D01*
D02*
G37*
G36*
X560024Y400000D02*
X650000Y400000D01*
Y375377D01*
X640392Y327079D01*
X621547Y281582D01*
X594188Y240637D01*
X559366Y205815D01*
X518421Y178456D01*
X472924Y159611D01*
X424625Y150003D01*
X400003D01*
X399999Y239976D01*
X415654Y240834D01*
X446344Y247083D01*
X475243Y259156D01*
X501258Y276596D01*
X523404Y298742D01*
X540844Y324757D01*
X552916Y353656D01*
X559166Y384346D01*
X560024Y400000D01*
X560024Y400000D01*
D02*
G37*
G36*
X4700001Y560024D02*
X4684345Y559166D01*
X4653656Y552917D01*
X4624757Y540844D01*
X4598742Y523404D01*
X4576596Y501258D01*
X4559156Y475243D01*
X4547083Y446344D01*
X4540834Y415654D01*
X4539976Y399999D01*
Y400000D01*
X4450000D01*
Y424622D01*
X4459608Y472921D01*
X4478453Y518418D01*
X4505812Y559363D01*
X4540634Y594185D01*
X4581579Y621544D01*
X4627076Y640389D01*
X4675374Y649997D01*
X4699997D01*
X4699997Y649997D01*
X4700001Y560024D01*
D02*
G37*
G36*
X4860024Y400000D02*
X4950000Y400000D01*
Y375377D01*
X4940392Y327079D01*
X4921547Y281582D01*
X4894188Y240637D01*
X4859366Y205815D01*
X4818421Y178456D01*
X4772924Y159611D01*
X4724625Y150003D01*
X4700003D01*
X4699999Y239976D01*
X4715654Y240834D01*
X4746344Y247083D01*
X4775243Y259156D01*
X4801258Y276596D01*
X4823404Y298742D01*
X4840844Y324757D01*
X4852916Y353656D01*
X4859166Y384346D01*
X4860024Y400000D01*
X4860024Y400000D01*
D02*
G37*
G36*
X400000Y8960024D02*
X384345Y8959166D01*
X353656Y8952917D01*
X324757Y8940844D01*
X298742Y8923404D01*
X276596Y8901258D01*
X259156Y8875243D01*
X247083Y8846344D01*
X240834Y8815654D01*
X239976Y8799999D01*
Y8800000D01*
X150000D01*
Y8824622D01*
X159608Y8872921D01*
X178453Y8918418D01*
X205812Y8959363D01*
X240634Y8994185D01*
X281579Y9021544D01*
X327076Y9040389D01*
X375374Y9049997D01*
X399997D01*
X399997Y9049997D01*
X400000Y8960024D01*
D02*
G37*
G36*
X560024Y8800000D02*
X650000Y8800000D01*
Y8775377D01*
X640392Y8727079D01*
X621547Y8681582D01*
X594188Y8640637D01*
X559366Y8605815D01*
X518421Y8578456D01*
X472924Y8559611D01*
X424625Y8550003D01*
X400003D01*
X399999Y8639976D01*
X415654Y8640834D01*
X446344Y8647083D01*
X475243Y8659156D01*
X501258Y8676596D01*
X523404Y8698742D01*
X540844Y8724757D01*
X552916Y8753656D01*
X559166Y8784346D01*
X560024Y8800000D01*
X560024Y8800000D01*
D02*
G37*
G36*
X4700001Y8960024D02*
X4684345Y8959166D01*
X4653656Y8952917D01*
X4624757Y8940844D01*
X4598742Y8923404D01*
X4576596Y8901258D01*
X4559156Y8875243D01*
X4547083Y8846344D01*
X4540834Y8815654D01*
X4539976Y8799999D01*
Y8800000D01*
X4450000D01*
Y8824622D01*
X4459608Y8872921D01*
X4478453Y8918418D01*
X4505812Y8959363D01*
X4540634Y8994185D01*
X4581579Y9021544D01*
X4627076Y9040389D01*
X4675374Y9049997D01*
X4699997D01*
X4699997Y9049997D01*
X4700001Y8960024D01*
D02*
G37*
G36*
X4860024Y8800000D02*
X4950000Y8800000D01*
Y8775377D01*
X4940392Y8727079D01*
X4921547Y8681582D01*
X4894188Y8640637D01*
X4859366Y8605815D01*
X4818421Y8578456D01*
X4772924Y8559611D01*
X4724625Y8550003D01*
X4700003D01*
X4699999Y8639976D01*
X4715654Y8640834D01*
X4746344Y8647083D01*
X4775243Y8659156D01*
X4801258Y8676596D01*
X4823404Y8698742D01*
X4840844Y8724757D01*
X4852916Y8753656D01*
X4859166Y8784346D01*
X4860024Y8800000D01*
X4860024Y8800000D01*
D02*
G37*
D33*
X3140006Y2962000D02*
G03*
X3140006Y2962000I-10008J0D01*
G01*
X3140006Y7562000D02*
G03*
X3140006Y7562000I-10008J0D01*
G01*
D34*
X650000Y400000D02*
G03*
X650000Y400000I-250000J0D01*
G01*
Y8800000D02*
G03*
X650000Y8800000I-250000J0D01*
G01*
X4950000D02*
G03*
X4950000Y8800000I-250000J0D01*
G01*
Y400000D02*
G03*
X4950000Y400000I-250000J0D01*
G01*
X2595728Y2653459D02*
X2468770D01*
X2443378Y2628067D01*
Y2577283D01*
X2468770Y2551892D01*
X2595728D01*
X2443378Y2399541D02*
Y2501108D01*
X2544945Y2399541D01*
X2570336D01*
X2595728Y2424933D01*
Y2475716D01*
X2570336Y2501108D01*
X2273074Y8051567D02*
X2146116D01*
X2120724Y8026175D01*
Y7975392D01*
X2146116Y7950000D01*
X2273074D01*
X2120724Y7899217D02*
Y7848433D01*
Y7873825D01*
X2273074D01*
X2247683Y7899217D01*
X2723825Y2926959D02*
X2876176D01*
Y2850784D01*
X2850784Y2825392D01*
X2800000D01*
X2774609Y2850784D01*
Y2926959D01*
Y2876176D02*
X2723825Y2825392D01*
X2876176Y2673041D02*
Y2774609D01*
X2800000D01*
X2825392Y2723825D01*
Y2698433D01*
X2800000Y2673041D01*
X2749217D01*
X2723825Y2698433D01*
Y2749217D01*
X2749217Y2774609D01*
X2923824Y3826959D02*
X3076175D01*
Y3750784D01*
X3050783Y3725392D01*
X3000000D01*
X2974608Y3750784D01*
Y3826959D01*
Y3776176D02*
X2923824Y3725392D01*
Y3598433D02*
X3076175D01*
X3000000Y3674608D01*
Y3573041D01*
X4423825Y2926959D02*
X4576175D01*
Y2850783D01*
X4550783Y2825392D01*
X4500000D01*
X4474608Y2850783D01*
Y2926959D01*
Y2876175D02*
X4423825Y2825392D01*
X4550783Y2774608D02*
X4576175Y2749216D01*
Y2698433D01*
X4550783Y2673041D01*
X4525392D01*
X4500000Y2698433D01*
Y2723825D01*
Y2698433D01*
X4474608Y2673041D01*
X4449216D01*
X4423825Y2698433D01*
Y2749216D01*
X4449216Y2774608D01*
X4123824Y7926960D02*
X4276175D01*
Y7850784D01*
X4250783Y7825392D01*
X4200000D01*
X4174608Y7850784D01*
Y7926960D01*
Y7876176D02*
X4123824Y7825392D01*
Y7673042D02*
Y7774609D01*
X4225392Y7673042D01*
X4250783D01*
X4276175Y7698433D01*
Y7749217D01*
X4250783Y7774609D01*
X3576176Y3525391D02*
Y3576175D01*
Y3550783D01*
X3449217D01*
X3423825Y3576175D01*
Y3601567D01*
X3449217Y3626959D01*
X3550784Y3474608D02*
X3576176Y3449216D01*
Y3398433D01*
X3550784Y3373041D01*
X3525392D01*
X3500000Y3398433D01*
Y3423824D01*
Y3398433D01*
X3474608Y3373041D01*
X3449217D01*
X3423825Y3398433D01*
Y3449216D01*
X3449217Y3474608D01*
X3476176Y8100000D02*
Y8150784D01*
Y8125392D01*
X3349217D01*
X3323825Y8150784D01*
Y8176175D01*
X3349217Y8201567D01*
X3323825Y8049216D02*
Y7998433D01*
Y8023824D01*
X3476176D01*
X3450784Y8049216D01*
X3075784Y1925391D02*
X3101176Y1950783D01*
Y2001567D01*
X3075784Y2026959D01*
X2974217D01*
X2948825Y2001567D01*
Y1950783D01*
X2974217Y1925391D01*
Y1874608D02*
X2948825Y1849216D01*
Y1798433D01*
X2974217Y1773041D01*
X3075784D01*
X3101176Y1798433D01*
Y1849216D01*
X3075784Y1874608D01*
X3050392D01*
X3025000Y1849216D01*
Y1773041D01*
X2800784Y2000392D02*
X2826175Y2025784D01*
Y2076567D01*
X2800784Y2101959D01*
X2699217D01*
X2673825Y2076567D01*
Y2025784D01*
X2699217Y2000392D01*
X2800784Y1949608D02*
X2826175Y1924216D01*
Y1873433D01*
X2800784Y1848041D01*
X2775392D01*
X2750000Y1873433D01*
X2724608Y1848041D01*
X2699217D01*
X2673825Y1873433D01*
Y1924216D01*
X2699217Y1949608D01*
X2724608D01*
X2750000Y1924216D01*
X2775392Y1949608D01*
X2800784D01*
X2750000Y1924216D02*
Y1873433D01*
X4248495Y2019037D02*
X4273887Y2044428D01*
Y2095212D01*
X4248495Y2120604D01*
X4146928D01*
X4121536Y2095212D01*
Y2044428D01*
X4146928Y2019037D01*
X4273887Y1968253D02*
Y1866686D01*
X4248495D01*
X4146928Y1968253D01*
X4121536D01*
X4550783Y3225391D02*
X4576175Y3250783D01*
Y3301567D01*
X4550783Y3326959D01*
X4449216D01*
X4423824Y3301567D01*
Y3250783D01*
X4449216Y3225391D01*
X4576175Y3073041D02*
X4550783Y3123824D01*
X4500000Y3174608D01*
X4449216D01*
X4423824Y3149216D01*
Y3098432D01*
X4449216Y3073041D01*
X4474608D01*
X4500000Y3098432D01*
Y3174608D01*
X3050783Y6525392D02*
X3076175Y6550784D01*
Y6601567D01*
X3050783Y6626959D01*
X2949216D01*
X2923824Y6601567D01*
Y6550784D01*
X2949216Y6525392D01*
X3076175Y6373041D02*
Y6474608D01*
X3000000D01*
X3025392Y6423825D01*
Y6398433D01*
X3000000Y6373041D01*
X2949216D01*
X2923824Y6398433D01*
Y6449216D01*
X2949216Y6474608D01*
X2850783Y6425392D02*
X2876175Y6450783D01*
Y6501567D01*
X2850783Y6526959D01*
X2749216D01*
X2723825Y6501567D01*
Y6450783D01*
X2749216Y6425392D01*
X2723825Y6298433D02*
X2876175D01*
X2800000Y6374608D01*
Y6273041D01*
X4450784Y6125392D02*
X4476175Y6150783D01*
Y6201567D01*
X4450784Y6226959D01*
X4349217D01*
X4323825Y6201567D01*
Y6150783D01*
X4349217Y6125392D01*
X4450784Y6074608D02*
X4476175Y6049216D01*
Y5998433D01*
X4450784Y5973041D01*
X4425392D01*
X4400000Y5998433D01*
Y6023825D01*
Y5998433D01*
X4374608Y5973041D01*
X4349217D01*
X4323825Y5998433D01*
Y6049216D01*
X4349217Y6074608D01*
X4450783Y7825392D02*
X4476175Y7850784D01*
Y7901567D01*
X4450783Y7926959D01*
X4349216D01*
X4323824Y7901567D01*
Y7850784D01*
X4349216Y7825392D01*
X4323824Y7673041D02*
Y7774608D01*
X4425392Y7673041D01*
X4450783D01*
X4476175Y7698433D01*
Y7749216D01*
X4450783Y7774608D01*
D42*
X2720000Y5960000D02*
Y6040000D01*
X2880000Y5960000D02*
Y6040000D01*
X2720000Y5960000D02*
X2880000D01*
X2670000Y1510000D02*
Y1590000D01*
X2830000Y1510000D02*
Y1590000D01*
X2670000Y1510000D02*
X2830000D01*
X1848007Y7100000D02*
Y7700000D01*
Y7100000D02*
X1948007Y7000000D01*
X2551993D01*
Y7700000D01*
X4160000Y3310000D02*
X4240000D01*
X2960000Y1390000D02*
X3040000D01*
X1687032Y2919103D02*
X2287032D01*
X1587032Y2819103D02*
X1687032Y2919103D01*
X1587032Y2215116D02*
Y2819103D01*
Y2215116D02*
X2287032D01*
X4360000Y7240000D02*
X4440000D01*
X4135000Y5940000D02*
X4215000D01*
X2960000D02*
X3040000D01*
X4160000Y1440000D02*
X4240000D01*
D43*
X3175007Y3288492D02*
X4024993D01*
X3175007Y1111508D02*
Y3288492D01*
Y1111508D02*
X4024993D01*
Y3288492D01*
X4024993Y5711509D02*
Y7888492D01*
X3175007Y5711509D02*
X4024993D01*
X3175007D02*
Y7888492D01*
X4024993D01*
D44*
X2925000Y3195000D02*
X3075000D01*
X2925000Y3505000D02*
X3075000D01*
Y3195000D02*
Y3505000D01*
X2925000Y3195000D02*
Y3505000D01*
X2925000Y2955000D02*
X3075000D01*
X2925000Y2645000D02*
X3075000D01*
X2925000D02*
Y2955000D01*
X3075000Y2645000D02*
Y2955000D01*
X4125000Y7555000D02*
X4275000D01*
X4125000Y7245000D02*
X4275000D01*
X4125000D02*
Y7555000D01*
X4275000Y7245000D02*
Y7555000D01*
X4125000Y2955000D02*
X4275000D01*
X4125000Y2645000D02*
X4275000D01*
X4125000D02*
Y2955000D01*
X4275000Y2645000D02*
Y2955000D01*
D45*
X524960Y7341330D02*
Y7507943D01*
X400000D01*
Y7424636D01*
Y7507943D01*
X275041D01*
Y7258023D02*
X524960D01*
X441654Y7174717D01*
X524960Y7091411D01*
X275041D01*
X483307Y6841491D02*
X524960Y6883144D01*
Y6966451D01*
X483307Y7008104D01*
X316694D01*
X275041Y6966451D01*
Y6883144D01*
X316694Y6841491D01*
X275041Y6341653D02*
Y6508266D01*
X441654Y6341653D01*
X483307D01*
X524960Y6383306D01*
Y6466612D01*
X483307Y6508266D01*
X524960Y6008427D02*
Y5841814D01*
X483307D01*
X316694Y6008427D01*
X275041D01*
Y5841814D01*
Y5758508D02*
X524960D01*
X441654Y5675202D01*
X524960Y5591895D01*
X275041D01*
X524960Y5383629D02*
Y5466935D01*
X483307Y5508589D01*
X316694D01*
X275041Y5466935D01*
Y5383629D01*
X316694Y5341976D01*
X483307D01*
X524960Y5383629D01*
Y5258669D02*
X275041D01*
Y5133710D01*
X316694Y5092057D01*
X483307D01*
X524960Y5133710D01*
Y5258669D01*
X4690868Y7391484D02*
X4890804D01*
Y7291516D01*
X4857481Y7258193D01*
X4790836D01*
X4757513Y7291516D01*
Y7391484D01*
X4890804Y7091580D02*
Y7158225D01*
X4857481Y7191548D01*
X4724191D01*
X4690868Y7158225D01*
Y7091580D01*
X4724191Y7058258D01*
X4857481D01*
X4890804Y7091580D01*
X4690868Y6991612D02*
X4890804D01*
Y6891645D01*
X4857481Y6858322D01*
X4790836D01*
X4757513Y6891645D01*
Y6991612D01*
Y6924967D02*
X4690868Y6858322D01*
X4890804Y6791677D02*
Y6658386D01*
Y6725032D01*
X4690868D01*
Y6391806D02*
X4824159D01*
X4890804Y6325161D01*
X4824159Y6258515D01*
X4690868D01*
X4790836D01*
Y6391806D01*
X4690868Y2736150D02*
X4890804D01*
Y2636182D01*
X4857481Y2602859D01*
X4790836D01*
X4757513Y2636182D01*
Y2736150D01*
X4890804Y2436246D02*
Y2502892D01*
X4857481Y2536214D01*
X4724190D01*
X4690868Y2502892D01*
Y2436246D01*
X4724190Y2402924D01*
X4857481D01*
X4890804Y2436246D01*
X4690868Y2336279D02*
X4890804D01*
Y2236311D01*
X4857481Y2202988D01*
X4790836D01*
X4757513Y2236311D01*
Y2336279D01*
Y2269634D02*
X4690868Y2202988D01*
X4890804Y2136343D02*
Y2003053D01*
Y2069698D01*
X4690868D01*
X4890804Y1736472D02*
X4690868D01*
Y1636504D01*
X4724190Y1603181D01*
X4757513D01*
X4790836Y1636504D01*
Y1736472D01*
Y1636504D01*
X4824158Y1603181D01*
X4857481D01*
X4890804Y1636504D01*
Y1736472D01*
X303984Y4283875D02*
X328976Y4308867D01*
Y4358851D01*
X303984Y4383843D01*
X204016D01*
X179024Y4358851D01*
Y4308867D01*
X204016Y4283875D01*
X254000D01*
Y4333859D01*
X179024Y4233891D02*
Y4183908D01*
Y4208900D01*
X278992D01*
Y4233891D01*
X303984Y4083940D02*
X278992D01*
Y4108932D01*
Y4058948D01*
Y4083940D01*
X204016D01*
X179024Y4058948D01*
X328976Y3983972D02*
X179024D01*
X254000D01*
X278992Y3958980D01*
Y3908996D01*
X254000Y3884005D01*
X179024D01*
X278992Y3834021D02*
X204016D01*
X179024Y3809029D01*
Y3734053D01*
X278992D01*
X328976Y3684069D02*
X179024D01*
Y3609094D01*
X204016Y3584102D01*
X229008D01*
X254000D01*
X278992Y3609094D01*
Y3684069D01*
X179024Y3534118D02*
X204016D01*
Y3509126D01*
X179024D01*
Y3534118D01*
X278992Y3309191D02*
Y3384166D01*
X254000Y3409158D01*
X204016D01*
X179024Y3384166D01*
Y3309191D01*
Y3234215D02*
Y3184231D01*
X204016Y3159239D01*
X254000D01*
X278992Y3184231D01*
Y3234215D01*
X254000Y3259207D01*
X204016D01*
X179024Y3234215D01*
Y3109255D02*
X278992D01*
Y3084264D01*
X254000Y3059272D01*
X179024D01*
X254000D01*
X278992Y3034280D01*
X254000Y3009288D01*
X179024D01*
Y2959304D02*
X278992Y2859336D01*
X179024Y2809353D02*
X278992D01*
Y2784361D01*
X254000Y2759369D01*
X179024D01*
X254000D01*
X278992Y2734377D01*
X254000Y2709385D01*
X179024D01*
X278992Y2634409D02*
Y2584425D01*
X254000Y2559434D01*
X179024D01*
Y2634409D01*
X204016Y2659401D01*
X229008Y2634409D01*
Y2559434D01*
X278992Y2509450D02*
X179024D01*
X229008D01*
X254000Y2484458D01*
X278992Y2459466D01*
Y2434474D01*
Y2259531D02*
Y2334506D01*
X254000Y2359498D01*
X204016D01*
X179024Y2334506D01*
Y2259531D01*
X278992Y2209547D02*
X179024Y2159563D01*
X278992Y2109579D01*
X328976Y2059595D02*
X179024D01*
X254000D01*
X278992Y2034604D01*
Y1984620D01*
X254000Y1959628D01*
X179024D01*
Y1884652D02*
Y1834668D01*
X204016Y1809676D01*
X254000D01*
X278992Y1834668D01*
Y1884652D01*
X254000Y1909644D01*
X204016D01*
X179024Y1884652D01*
Y1734701D02*
Y1684717D01*
X204016Y1659725D01*
X254000D01*
X278992Y1684717D01*
Y1734701D01*
X254000Y1759692D01*
X204016D01*
X179024Y1734701D01*
Y1584749D02*
X303984D01*
X254000D01*
Y1609741D01*
Y1559757D01*
Y1584749D01*
X303984D01*
X328976Y1559757D01*
D46*
X2799999Y5987498D02*
D03*
D47*
X2750000Y1537498D02*
D03*
%TF.MD5,71d03cf64f5316ecd9389f6427e24811*%
M02*
