%TF.GenerationSoftware,Altium Limited,Altium Designer,21.5.1 (32)*%
G04 Layer_Color=0*
%FSLAX45Y45*%
%MOMM*%
%TF.SameCoordinates,51D5493F-A844-4614-94AE-4B196E198A34*%
%TF.FilePolarity,Positive*%
%TF.FileFunction,Plated,1,4,PTH,Drill*%
%TF.Part,Single*%
G01*
G75*
%TA.AperFunction,ViaDrill,NotFilled*%
%ADD68C,0.30000*%
D68*
X2200000Y1600000D02*
D03*
X2875000Y5750000D02*
D03*
X2400000Y1400000D02*
D03*
X1130000Y5957300D02*
D03*
X3700000Y7400000D02*
D03*
Y7472700D02*
D03*
X1130000Y6030000D02*
D03*
X1575000Y2800000D02*
D03*
X1650000Y5650000D02*
D03*
X1600000Y5575000D02*
D03*
X1800000Y5425000D02*
D03*
X1837922Y5188925D02*
D03*
X4500000Y8500000D02*
D03*
Y8000000D02*
D03*
Y5000000D02*
D03*
Y4500000D02*
D03*
Y4000000D02*
D03*
Y1000000D02*
D03*
X4000000Y8500000D02*
D03*
Y8000000D02*
D03*
Y4500000D02*
D03*
Y4000000D02*
D03*
Y500000D02*
D03*
X3000000Y8500000D02*
D03*
Y4500000D02*
D03*
Y500000D02*
D03*
X2500000Y8500000D02*
D03*
Y5000000D02*
D03*
Y2000000D02*
D03*
Y500000D02*
D03*
X2000000Y8500000D02*
D03*
Y500000D02*
D03*
X1500000Y8500000D02*
D03*
Y1000000D02*
D03*
Y500000D02*
D03*
X1000000Y8500000D02*
D03*
Y8000000D02*
D03*
Y1000000D02*
D03*
Y500000D02*
D03*
X500000Y8500000D02*
D03*
Y8000000D02*
D03*
Y7500000D02*
D03*
Y7000000D02*
D03*
Y6500000D02*
D03*
Y6000000D02*
D03*
Y5000000D02*
D03*
Y4500000D02*
D03*
Y4000000D02*
D03*
Y3500000D02*
D03*
Y3000000D02*
D03*
Y2500000D02*
D03*
Y2000000D02*
D03*
Y1000000D02*
D03*
X2644269Y6084534D02*
D03*
X1142000Y3366350D02*
D03*
Y3293650D02*
D03*
X3720000Y2476354D02*
D03*
Y2403655D02*
D03*
X1860000Y2090000D02*
D03*
X1258000Y4182650D02*
D03*
X3125000Y2802300D02*
D03*
X1258000Y4255350D02*
D03*
X3125000Y2875000D02*
D03*
X1290000Y3950000D02*
D03*
X2190000Y7080000D02*
D03*
X3673024Y2316334D02*
D03*
X1142000Y2985350D02*
D03*
X3673024Y2243635D02*
D03*
X1142000Y2912650D02*
D03*
X3690000Y6670000D02*
D03*
X750000Y6668350D02*
D03*
Y6595650D02*
D03*
X3500000Y6276356D02*
D03*
Y6203656D02*
D03*
X3719784Y6197943D02*
D03*
Y6270643D02*
D03*
X3450000Y7750000D02*
D03*
X3517730Y7313223D02*
D03*
X3600000Y5800000D02*
D03*
X3525822Y3013540D02*
D03*
X3550000Y2250000D02*
D03*
X3600000Y2173167D02*
D03*
X3500000Y1400000D02*
D03*
X820500Y6381000D02*
D03*
X4200000Y3345000D02*
D03*
X3175007Y7615848D02*
D03*
X3050000Y7600000D02*
D03*
X2850000Y7572700D02*
D03*
Y7500000D02*
D03*
X1625000Y3265000D02*
D03*
X3110726Y2970873D02*
D03*
X1625000Y3392000D02*
D03*
X3125000Y3250000D02*
D03*
X2850000Y2800000D02*
D03*
Y3500000D02*
D03*
X4050550Y7480009D02*
D03*
X4150000Y5850000D02*
D03*
X4350000Y3050000D02*
D03*
X4850000D02*
D03*
X4175000Y6295000D02*
D03*
X2898852Y1628258D02*
D03*
X4315000Y1680000D02*
D03*
X4200000Y2600000D02*
D03*
X1300000Y2100000D02*
D03*
X1650000Y2700000D02*
D03*
X1600000Y3500000D02*
D03*
Y3600000D02*
D03*
Y4000000D02*
D03*
X1653705Y4203705D02*
D03*
X1250000Y4450000D02*
D03*
X1660000Y5085471D02*
D03*
X1628516Y4979555D02*
D03*
X1738949Y5005000D02*
D03*
X1200000Y5250000D02*
D03*
X1455500Y5619000D02*
D03*
X1328500Y5873000D02*
D03*
X1579500Y6248000D02*
D03*
X1452500Y6375000D02*
D03*
X1330000Y6503500D02*
D03*
X1457000Y6630500D02*
D03*
X1579500Y6756000D02*
D03*
X1451000Y6760500D02*
D03*
Y6887500D02*
D03*
X1578000Y7014500D02*
D03*
X1071500Y7137000D02*
D03*
X943000Y6760500D02*
D03*
X1071500Y6756000D02*
D03*
X1070000Y6506500D02*
D03*
X1071500Y6248000D02*
D03*
X820500Y6000000D02*
D03*
X947500Y5746000D02*
D03*
X943000Y5617500D02*
D03*
X822000Y5360500D02*
D03*
X944500Y4978000D02*
D03*
X1173237Y4652700D02*
D03*
X800000Y4550000D02*
D03*
X1070000Y4220500D02*
D03*
X822000Y4217500D02*
D03*
X944500Y3835000D02*
D03*
X1070000Y3458500D02*
D03*
X943000Y3331500D02*
D03*
X947500Y3079000D02*
D03*
X943000Y2950500D02*
D03*
X947500Y2698000D02*
D03*
X943000Y2569500D02*
D03*
X1070000Y2061500D02*
D03*
Y2315500D02*
D03*
X943000Y2188500D02*
D03*
X1600000Y2500000D02*
D03*
X1452500Y2565000D02*
D03*
X1624250Y2376750D02*
D03*
X1590000Y2100000D02*
D03*
Y5230000D02*
D03*
X1730000Y5290000D02*
D03*
X1780000Y5560000D02*
D03*
X1116250Y4154750D02*
D03*
X1600000Y4500000D02*
D03*
X1934009Y5166050D02*
D03*
X1590000Y4670000D02*
D03*
X1740000Y4700000D02*
D03*
X1881309Y4751098D02*
D03*
X1934009Y4348596D02*
D03*
X775000Y4900000D02*
D03*
X1275000Y4750000D02*
D03*
X1804983Y4430000D02*
D03*
X1116250Y4789750D02*
D03*
X1117000Y4535000D02*
D03*
Y5297000D02*
D03*
X1725000Y4589999D02*
D03*
X4075000Y2875000D02*
D03*
X775000Y4665000D02*
D03*
Y3903000D02*
D03*
Y4284000D02*
D03*
X1283000Y4538000D02*
D03*
X3000000Y2322700D02*
D03*
Y2250000D02*
D03*
X2745749Y2432625D02*
D03*
Y2359925D02*
D03*
X775000Y4030000D02*
D03*
Y4411000D02*
D03*
X1283000Y4665000D02*
D03*
X775000Y4792000D02*
D03*
X1283000Y5046000D02*
D03*
X775000Y5173000D02*
D03*
X3050000Y6897700D02*
D03*
Y6825000D02*
D03*
X1650000Y2300000D02*
D03*
X1389000Y2016000D02*
D03*
X3100000Y1676356D02*
D03*
Y1603656D02*
D03*
X1258000Y3801650D02*
D03*
Y3874350D02*
D03*
X3673024Y2723644D02*
D03*
Y2796344D02*
D03*
X750000Y3620350D02*
D03*
X3100000Y2636349D02*
D03*
X1142000Y3747350D02*
D03*
Y3674650D02*
D03*
X3100000Y2563649D02*
D03*
X3673024Y2636349D02*
D03*
Y2563649D02*
D03*
X750000Y3547650D02*
D03*
X3673024Y1603656D02*
D03*
Y1676356D02*
D03*
X1258000Y6087650D02*
D03*
Y6160350D02*
D03*
X2700000Y7422700D02*
D03*
Y7350000D02*
D03*
X750000Y5525350D02*
D03*
X3673024Y6916335D02*
D03*
Y6843635D02*
D03*
Y7163649D02*
D03*
Y7236349D02*
D03*
X1258000Y5779350D02*
D03*
Y5706650D02*
D03*
X1142000Y5579650D02*
D03*
Y5652350D02*
D03*
X1650000Y5906350D02*
D03*
Y5833650D02*
D03*
X750000D02*
D03*
Y5906350D02*
D03*
Y6214650D02*
D03*
Y6287350D02*
D03*
X1650000Y3801650D02*
D03*
Y3874350D02*
D03*
X3673024Y7003655D02*
D03*
Y7076355D02*
D03*
X3100000Y7003655D02*
D03*
Y7076355D02*
D03*
X1258000Y5325650D02*
D03*
Y5398350D02*
D03*
X1142000Y6414350D02*
D03*
Y6341650D02*
D03*
X750000Y2785650D02*
D03*
Y2858350D02*
D03*
Y3166650D02*
D03*
Y3239350D02*
D03*
Y5452650D02*
D03*
%TF.MD5,e37dda3d3852fb01ae9ba5ddcb838e21*%
M02*
