%TF.GenerationSoftware,Altium Limited,Altium Designer,21.5.1 (32)*%
G04 Layer_Color=12517567*
%FSLAX45Y45*%
%MOMM*%
%TF.SameCoordinates,51D5493F-A844-4614-94AE-4B196E198A34*%
%TF.FilePolarity,Negative*%
%TF.FileFunction,Soldermask,Top*%
%TF.Part,Single*%
G01*
G75*
%TA.AperFunction,WasherPad*%
%ADD37C,3.60000*%
%TA.AperFunction,ComponentPad*%
%ADD38C,1.37000*%
%ADD39C,3.29989*%
%ADD40C,1.12006*%
%ADD41C,3.30000*%
%TA.AperFunction,SMDPad,CuDef*%
%ADD48R,1.90000X1.40000*%
%ADD49R,5.90009X6.29989*%
%ADD50R,1.69995X3.09999*%
%ADD51R,1.10000X1.10000*%
%ADD52R,2.37000X0.50996*%
%ADD53R,0.53002X2.64000*%
%ADD54R,0.53002X4.80002*%
%ADD55R,1.10000X1.00000*%
%ADD56R,6.29989X5.90009*%
%ADD57R,3.09999X1.69995*%
D37*
X990000Y7698000D02*
D03*
Y1362000D02*
D03*
D38*
X1200000Y7319070D02*
D03*
X895200Y1880930D02*
D03*
D39*
X3600000Y500000D02*
D03*
Y3900000D02*
D03*
X3600000Y8500000D02*
D03*
Y5100000D02*
D03*
D40*
X3866497Y3206500D02*
D03*
Y1193500D02*
D03*
X3866497Y5793500D02*
D03*
Y7806501D02*
D03*
D41*
X400000Y400000D02*
D03*
Y8800000D02*
D03*
X4700000D02*
D03*
Y400000D02*
D03*
D48*
X2800000Y5855000D02*
D03*
Y6145000D02*
D03*
X2750000Y1405000D02*
D03*
Y1695000D02*
D03*
D49*
X2200000Y7459004D02*
D03*
D50*
X2428498Y6740997D02*
D03*
X1971502D02*
D03*
D51*
X4200000Y3230000D02*
D03*
Y3070000D02*
D03*
X3000000Y1470000D02*
D03*
Y1630000D02*
D03*
X4400000Y7320000D02*
D03*
Y7480000D02*
D03*
X4175000Y6020000D02*
D03*
Y6180000D02*
D03*
X3000000Y6020000D02*
D03*
Y6180000D02*
D03*
X4200000Y1520000D02*
D03*
Y1680000D02*
D03*
D52*
X3886512Y1440007D02*
D03*
X3313488D02*
D03*
X3886512Y1519991D02*
D03*
X3313488D02*
D03*
X3886512Y1600001D02*
D03*
X3313488D02*
D03*
X3886512Y1680011D02*
D03*
X3313488D02*
D03*
X3886512Y1759996D02*
D03*
X3313488D02*
D03*
X3886512Y1840006D02*
D03*
X3313488D02*
D03*
X3886512Y1919990D02*
D03*
Y2000000D02*
D03*
Y2080010D02*
D03*
Y2159995D02*
D03*
Y2240005D02*
D03*
Y2319990D02*
D03*
Y2400000D02*
D03*
Y2480010D02*
D03*
Y2559994D02*
D03*
Y2640004D02*
D03*
Y2719989D02*
D03*
Y2799999D02*
D03*
Y2880009D02*
D03*
X3313488Y1919990D02*
D03*
Y2000000D02*
D03*
Y2080010D02*
D03*
Y2159995D02*
D03*
Y2240005D02*
D03*
Y2319990D02*
D03*
Y2400000D02*
D03*
Y2480010D02*
D03*
Y2559994D02*
D03*
Y2640004D02*
D03*
Y2719989D02*
D03*
Y2799999D02*
D03*
Y2880009D02*
D03*
X3886512Y2959993D02*
D03*
X3313488D02*
D03*
X3313488Y6680011D02*
D03*
Y6600001D02*
D03*
Y6359996D02*
D03*
Y6440006D02*
D03*
Y6519991D02*
D03*
Y6759995D02*
D03*
Y7559994D02*
D03*
X3886512D02*
D03*
X3313488Y7480009D02*
D03*
Y7399999D02*
D03*
Y7319989D02*
D03*
Y7240004D02*
D03*
Y7159994D02*
D03*
Y7080010D02*
D03*
Y7000000D02*
D03*
Y6919990D02*
D03*
Y6840005D02*
D03*
X3886512Y7480009D02*
D03*
Y7399999D02*
D03*
Y7319989D02*
D03*
Y7240004D02*
D03*
Y7159994D02*
D03*
Y7080010D02*
D03*
Y7000000D02*
D03*
Y6919990D02*
D03*
Y6840005D02*
D03*
Y6759995D02*
D03*
Y6680011D02*
D03*
Y6600001D02*
D03*
Y6519991D02*
D03*
Y6440006D02*
D03*
Y6359996D02*
D03*
X3313488Y6280011D02*
D03*
X3886512D02*
D03*
X3313488Y6200001D02*
D03*
X3886512D02*
D03*
X3313488Y6119991D02*
D03*
X3886512D02*
D03*
X3313488Y6040007D02*
D03*
X3886512D02*
D03*
D53*
X3600000Y1393499D02*
D03*
Y3006501D02*
D03*
X3600000Y7606501D02*
D03*
Y5993499D02*
D03*
D54*
X3600000Y1882500D02*
D03*
Y2517500D02*
D03*
X3600000Y7117500D02*
D03*
Y6482500D02*
D03*
D55*
X3000000Y3435000D02*
D03*
Y3265000D02*
D03*
Y2715000D02*
D03*
Y2885000D02*
D03*
X4200000Y7315000D02*
D03*
Y7485000D02*
D03*
Y2715000D02*
D03*
Y2885000D02*
D03*
D56*
X2046036Y2567110D02*
D03*
D57*
X1328028Y2338611D02*
D03*
Y2795608D02*
D03*
%TF.MD5,f8f15b1cefa0e52a12766063062fc238*%
M02*
