%TF.GenerationSoftware,Altium Limited,Altium Designer,21.5.1 (32)*%
G04 Layer_Physical_Order=2*
G04 Layer_Color=5220458*
%FSLAX45Y45*%
%MOMM*%
%TF.SameCoordinates,51D5493F-A844-4614-94AE-4B196E198A34*%
%TF.FilePolarity,Positive*%
%TF.FileFunction,Copper,L2,Inr,Signal*%
%TF.Part,Single*%
G01*
G75*
%TA.AperFunction,Conductor*%
%ADD22C,0.20000*%
%TA.AperFunction,WasherPad*%
%ADD25C,3.50000*%
%TA.AperFunction,ComponentPad*%
%ADD26C,1.27000*%
%ADD27C,3.19989*%
%ADD28C,1.02006*%
%ADD29C,3.20000*%
%TA.AperFunction,ViaPad*%
%ADD30C,0.60000*%
G36*
X5079609Y20391D02*
X20391D01*
Y9179609D01*
X5079609D01*
Y20391D01*
D02*
G37*
%LPC*%
G36*
X4700000Y9051209D02*
X4650991Y9046382D01*
X4603866Y9032087D01*
X4560435Y9008873D01*
X4522368Y8977632D01*
X4491127Y8939565D01*
X4467913Y8896134D01*
X4453617Y8849008D01*
X4448790Y8800000D01*
X4453617Y8750991D01*
X4467913Y8703866D01*
X4491127Y8660435D01*
X4522368Y8622368D01*
X4560435Y8591127D01*
X4603866Y8567913D01*
X4650991Y8553617D01*
X4700000Y8548790D01*
X4749009Y8553617D01*
X4796134Y8567913D01*
X4839565Y8591127D01*
X4877632Y8622368D01*
X4908873Y8660435D01*
X4932087Y8703866D01*
X4946383Y8750991D01*
X4951210Y8800000D01*
X4946383Y8849008D01*
X4932087Y8896134D01*
X4908873Y8939565D01*
X4877632Y8977632D01*
X4839565Y9008873D01*
X4796134Y9032087D01*
X4749009Y9046382D01*
X4700000Y9051209D01*
D02*
G37*
G36*
X400000D02*
X350991Y9046382D01*
X303866Y9032087D01*
X260435Y9008873D01*
X222368Y8977632D01*
X191127Y8939565D01*
X167913Y8896134D01*
X153617Y8849008D01*
X148790Y8800000D01*
X153617Y8750991D01*
X167913Y8703866D01*
X191127Y8660435D01*
X222368Y8622368D01*
X260435Y8591127D01*
X303866Y8567913D01*
X350991Y8553617D01*
X400000Y8548790D01*
X449008Y8553617D01*
X496134Y8567913D01*
X539565Y8591127D01*
X577632Y8622368D01*
X608873Y8660435D01*
X632087Y8703866D01*
X646383Y8750991D01*
X651210Y8800000D01*
X646383Y8849008D01*
X632087Y8896134D01*
X608873Y8939565D01*
X577632Y8977632D01*
X539565Y9008873D01*
X496134Y9032087D01*
X449008Y9046382D01*
X400000Y9051209D01*
D02*
G37*
G36*
X3618220Y8684995D02*
X3581779D01*
X3546039Y8677885D01*
X3512372Y8663940D01*
X3482073Y8643695D01*
X3456305Y8617927D01*
X3436060Y8587628D01*
X3422115Y8553961D01*
X3415005Y8518220D01*
Y8481780D01*
X3422115Y8446039D01*
X3436060Y8412372D01*
X3456305Y8382073D01*
X3482073Y8356305D01*
X3512372Y8336060D01*
X3546039Y8322115D01*
X3581779Y8315005D01*
X3618220D01*
X3653961Y8322115D01*
X3687628Y8336060D01*
X3717927Y8356305D01*
X3743695Y8382073D01*
X3763940Y8412372D01*
X3777885Y8446039D01*
X3784994Y8481780D01*
Y8518220D01*
X3777885Y8553961D01*
X3763940Y8587628D01*
X3743695Y8617927D01*
X3717927Y8643695D01*
X3687628Y8663940D01*
X3653961Y8677885D01*
X3618220Y8684995D01*
D02*
G37*
G36*
X3876503Y7882504D02*
X3856491D01*
X3837160Y7877324D01*
X3819830Y7867318D01*
X3805679Y7853167D01*
X3795673Y7835837D01*
X3790494Y7816507D01*
Y7796494D01*
X3795673Y7777164D01*
X3805679Y7759834D01*
X3819830Y7745683D01*
X3837160Y7735677D01*
X3856491Y7730497D01*
X3876503D01*
X3895833Y7735677D01*
X3913164Y7745683D01*
X3927314Y7759834D01*
X3937320Y7777164D01*
X3942500Y7796494D01*
Y7816507D01*
X3937320Y7835837D01*
X3927314Y7853167D01*
X3913164Y7867318D01*
X3895833Y7877324D01*
X3876503Y7882504D01*
D02*
G37*
G36*
X3183501Y7658548D02*
X3166514D01*
X3150820Y7652047D01*
X3138808Y7640035D01*
X3132307Y7624341D01*
Y7607354D01*
X3138808Y7591660D01*
X3150820Y7579649D01*
X3166514Y7573148D01*
X3183501D01*
X3199195Y7579649D01*
X3211206Y7591660D01*
X3217707Y7607354D01*
Y7624341D01*
X3211206Y7640035D01*
X3199195Y7652047D01*
X3183501Y7658548D01*
D02*
G37*
G36*
X3058494Y7642700D02*
X3041506D01*
X3025813Y7636199D01*
X3013801Y7624187D01*
X3007300Y7608494D01*
Y7591507D01*
X3013801Y7575813D01*
X3025813Y7563801D01*
X3041506Y7557300D01*
X3058494D01*
X3074187Y7563801D01*
X3086199Y7575813D01*
X3092700Y7591507D01*
Y7608494D01*
X3086199Y7624187D01*
X3074187Y7636199D01*
X3058494Y7642700D01*
D02*
G37*
G36*
X1009698Y7898000D02*
X970302D01*
X931662Y7890314D01*
X895265Y7875238D01*
X862508Y7853350D01*
X834650Y7825493D01*
X812762Y7792735D01*
X797686Y7756338D01*
X790000Y7717698D01*
Y7678302D01*
X797686Y7639662D01*
X812762Y7603265D01*
X834650Y7570508D01*
X862508Y7542650D01*
X895265Y7520762D01*
X931662Y7505686D01*
X970302Y7498000D01*
X1009698D01*
X1048338Y7505686D01*
X1084735Y7520762D01*
X1117493Y7542650D01*
X1145350Y7570508D01*
X1167238Y7603265D01*
X1182314Y7639662D01*
X1190000Y7678302D01*
Y7717698D01*
X1182314Y7756338D01*
X1167238Y7792735D01*
X1145350Y7825493D01*
X1117493Y7853350D01*
X1084735Y7875238D01*
X1048338Y7890314D01*
X1009698Y7898000D01*
D02*
G37*
G36*
X2858493Y7615400D02*
X2841506D01*
X2825812Y7608899D01*
X2813801Y7596887D01*
X2807300Y7581193D01*
Y7564206D01*
X2813801Y7548512D01*
X2825665Y7536350D01*
X2813801Y7524187D01*
X2807300Y7508493D01*
Y7491506D01*
X2813801Y7475813D01*
X2825812Y7463801D01*
X2841506Y7457300D01*
X2858493D01*
X2874187Y7463801D01*
X2886199Y7475813D01*
X2892700Y7491506D01*
Y7508493D01*
X2886199Y7524187D01*
X2874335Y7536350D01*
X2886199Y7548513D01*
X2892700Y7564206D01*
Y7581193D01*
X2886199Y7596887D01*
X2874187Y7608899D01*
X2858493Y7615400D01*
D02*
G37*
G36*
X4059043Y7522709D02*
X4042056D01*
X4026363Y7516208D01*
X4014351Y7504196D01*
X4007850Y7488502D01*
Y7471515D01*
X4014351Y7455822D01*
X4026363Y7443810D01*
X4042056Y7437309D01*
X4059043D01*
X4074737Y7443810D01*
X4086749Y7455822D01*
X4093250Y7471515D01*
Y7488502D01*
X4086749Y7504196D01*
X4074737Y7516208D01*
X4059043Y7522709D01*
D02*
G37*
G36*
X3708493Y7515400D02*
X3691506D01*
X3675813Y7508899D01*
X3663801Y7496887D01*
X3657300Y7481193D01*
Y7464206D01*
X3663801Y7448512D01*
X3675665Y7436350D01*
X3663801Y7424187D01*
X3657300Y7408493D01*
Y7391506D01*
X3663801Y7375813D01*
X3675813Y7363801D01*
X3691506Y7357300D01*
X3708493D01*
X3724187Y7363801D01*
X3736199Y7375813D01*
X3742700Y7391506D01*
Y7408493D01*
X3736199Y7424187D01*
X3724335Y7436350D01*
X3736199Y7448513D01*
X3742700Y7464206D01*
Y7481193D01*
X3736199Y7496887D01*
X3724187Y7508899D01*
X3708493Y7515400D01*
D02*
G37*
G36*
X2708493Y7465400D02*
X2691506D01*
X2675813Y7458899D01*
X2663801Y7446887D01*
X2657300Y7431193D01*
Y7414206D01*
X2663801Y7398513D01*
X2675665Y7386350D01*
X2663801Y7374187D01*
X2657300Y7358494D01*
Y7341507D01*
X2663801Y7325813D01*
X2675813Y7313801D01*
X2691506Y7307300D01*
X2708493D01*
X2724187Y7313801D01*
X2736199Y7325813D01*
X2742700Y7341507D01*
Y7358494D01*
X2736199Y7374187D01*
X2724335Y7386350D01*
X2736199Y7398513D01*
X2742700Y7414206D01*
Y7431193D01*
X2736199Y7446887D01*
X2724187Y7458899D01*
X2708493Y7465400D01*
D02*
G37*
G36*
X1211651Y7407570D02*
X1188349D01*
X1165840Y7401539D01*
X1145660Y7389888D01*
X1129182Y7373410D01*
X1117531Y7353230D01*
X1111500Y7330721D01*
Y7307419D01*
X1117531Y7284910D01*
X1129182Y7264730D01*
X1145660Y7248252D01*
X1165840Y7236601D01*
X1188349Y7230570D01*
X1211651D01*
X1234160Y7236601D01*
X1254340Y7248252D01*
X1270818Y7264730D01*
X1282469Y7284910D01*
X1288500Y7307419D01*
Y7330721D01*
X1282469Y7353230D01*
X1270818Y7373410D01*
X1254340Y7389888D01*
X1234160Y7401539D01*
X1211651Y7407570D01*
D02*
G37*
G36*
X2198493Y7122700D02*
X2181506D01*
X2165813Y7116199D01*
X2153801Y7104187D01*
X2147300Y7088494D01*
Y7071507D01*
X2153801Y7055813D01*
X2165813Y7043801D01*
X2181506Y7037300D01*
X2198493D01*
X2214187Y7043801D01*
X2226199Y7055813D01*
X2232700Y7071507D01*
Y7088494D01*
X2226199Y7104187D01*
X2214187Y7116199D01*
X2198493Y7122700D01*
D02*
G37*
G36*
X3108493Y7119055D02*
X3091506D01*
X3075812Y7112554D01*
X3063801Y7100542D01*
X3057300Y7084848D01*
Y7067861D01*
X3063801Y7052167D01*
X3075665Y7040005D01*
X3063801Y7027842D01*
X3057300Y7012148D01*
Y6995161D01*
X3063801Y6979467D01*
X3075812Y6967456D01*
X3091506Y6960955D01*
X3108493D01*
X3124187Y6967456D01*
X3136199Y6979467D01*
X3142700Y6995161D01*
Y7012148D01*
X3136199Y7027842D01*
X3124335Y7040005D01*
X3136199Y7052168D01*
X3142700Y7067861D01*
Y7084848D01*
X3136199Y7100542D01*
X3124187Y7112554D01*
X3108493Y7119055D01*
D02*
G37*
G36*
X3681517Y7279049D02*
X3664530D01*
X3648836Y7272548D01*
X3636825Y7260537D01*
X3630324Y7244843D01*
Y7227856D01*
X3636825Y7212162D01*
X3648689Y7199999D01*
X3636825Y7187837D01*
X3630324Y7172143D01*
Y7155156D01*
X3636744Y7139658D01*
X3636825Y7139462D01*
X3645511Y7120002D01*
X3636825Y7100542D01*
X3636744Y7100346D01*
X3630324Y7084848D01*
Y7067861D01*
X3636825Y7052167D01*
X3648689Y7040005D01*
X3636825Y7027842D01*
X3630324Y7012148D01*
Y6995161D01*
X3636751Y6979646D01*
X3636825Y6979467D01*
X3645509Y6959995D01*
X3636825Y6940522D01*
X3636751Y6940344D01*
X3630324Y6924828D01*
Y6907841D01*
X3636825Y6892147D01*
X3648689Y6879985D01*
X3636825Y6867822D01*
X3630324Y6852128D01*
Y6835141D01*
X3636825Y6819447D01*
X3648836Y6807436D01*
X3664530Y6800935D01*
X3681517D01*
X3697211Y6807436D01*
X3709223Y6819447D01*
X3715724Y6835141D01*
Y6852128D01*
X3709223Y6867822D01*
X3697359Y6879985D01*
X3709223Y6892148D01*
X3715724Y6907841D01*
Y6924828D01*
X3709297Y6940344D01*
X3709223Y6940522D01*
X3700539Y6959995D01*
X3709223Y6979467D01*
X3709297Y6979645D01*
X3715724Y6995161D01*
Y7012148D01*
X3709223Y7027842D01*
X3697359Y7040005D01*
X3709223Y7052168D01*
X3715724Y7067861D01*
Y7084848D01*
X3709304Y7100346D01*
X3709223Y7100542D01*
X3700536Y7120002D01*
X3709223Y7139462D01*
X3709304Y7139658D01*
X3715724Y7155156D01*
Y7172143D01*
X3709223Y7187837D01*
X3697359Y7199999D01*
X3709223Y7212162D01*
X3715724Y7227856D01*
Y7244843D01*
X3709223Y7260537D01*
X3697211Y7272548D01*
X3681517Y7279049D01*
D02*
G37*
G36*
X3058494Y6940400D02*
X3041506D01*
X3025813Y6933899D01*
X3013801Y6921887D01*
X3007300Y6906193D01*
Y6889206D01*
X3013801Y6873513D01*
X3025665Y6861350D01*
X3013801Y6849187D01*
X3007300Y6833494D01*
Y6816507D01*
X3013801Y6800813D01*
X3025813Y6788801D01*
X3041506Y6782300D01*
X3058494D01*
X3074187Y6788801D01*
X3086199Y6800813D01*
X3092700Y6816507D01*
Y6833494D01*
X3086199Y6849187D01*
X3074335Y6861350D01*
X3086199Y6873513D01*
X3092700Y6889206D01*
Y6906193D01*
X3086199Y6921887D01*
X3074187Y6933899D01*
X3058494Y6940400D01*
D02*
G37*
G36*
X758494Y6711050D02*
X741507D01*
X725813Y6704549D01*
X713801Y6692537D01*
X707300Y6676843D01*
Y6659856D01*
X713801Y6644162D01*
Y6619837D01*
X707300Y6604144D01*
Y6587156D01*
X713801Y6571463D01*
X725813Y6559451D01*
X741507Y6552950D01*
X758494D01*
X774187Y6559451D01*
X786199Y6571463D01*
X792700Y6587156D01*
Y6604144D01*
X786199Y6619837D01*
Y6644162D01*
X792700Y6659856D01*
Y6676843D01*
X786199Y6692537D01*
X774187Y6704549D01*
X758494Y6711050D01*
D02*
G37*
G36*
X1150493Y6457050D02*
X1133506D01*
X1117812Y6450549D01*
X1105801Y6438537D01*
X1099300Y6422843D01*
Y6405856D01*
X1105801Y6390162D01*
X1117665Y6378000D01*
X1105800Y6365837D01*
X1099300Y6350144D01*
Y6333156D01*
X1105801Y6317463D01*
X1117812Y6305451D01*
X1133506Y6298950D01*
X1150493D01*
X1166187Y6305451D01*
X1178199Y6317463D01*
X1184700Y6333156D01*
Y6350144D01*
X1178199Y6365837D01*
X1166335Y6378000D01*
X1178199Y6390163D01*
X1184700Y6405856D01*
Y6422843D01*
X1178199Y6438537D01*
X1166187Y6450549D01*
X1150493Y6457050D01*
D02*
G37*
G36*
X758494Y6330050D02*
X741507D01*
X725813Y6323549D01*
X713801Y6311537D01*
X707300Y6295843D01*
Y6278856D01*
X713801Y6263162D01*
Y6238837D01*
X707300Y6223144D01*
Y6206156D01*
X713801Y6190463D01*
X725813Y6178451D01*
X741507Y6171950D01*
X758494D01*
X774187Y6178451D01*
X786199Y6190463D01*
X792700Y6206156D01*
Y6223144D01*
X786199Y6238837D01*
Y6263162D01*
X792700Y6278856D01*
Y6295843D01*
X786199Y6311537D01*
X774187Y6323549D01*
X758494Y6330050D01*
D02*
G37*
G36*
X3508494Y6319056D02*
X3491507D01*
X3475813Y6312555D01*
X3463801Y6300544D01*
X3457300Y6284850D01*
Y6267863D01*
X3463801Y6252169D01*
X3475665Y6240006D01*
X3463801Y6227844D01*
X3457300Y6212150D01*
Y6195163D01*
X3463801Y6179469D01*
X3475813Y6167457D01*
X3491507Y6160956D01*
X3508494D01*
X3524188Y6167457D01*
X3536199Y6179469D01*
X3542700Y6195163D01*
Y6212150D01*
X3536199Y6227844D01*
X3524335Y6240006D01*
X3536199Y6252169D01*
X3542700Y6267863D01*
Y6284850D01*
X3536199Y6300544D01*
X3524188Y6312555D01*
X3508494Y6319056D01*
D02*
G37*
G36*
X3728277Y6313343D02*
X3711290D01*
X3695596Y6306842D01*
X3683584Y6294831D01*
X3677084Y6279137D01*
Y6262150D01*
X3683584Y6246456D01*
X3695449Y6234293D01*
X3683584Y6222131D01*
X3677084Y6206437D01*
Y6189450D01*
X3683584Y6173756D01*
X3695596Y6161744D01*
X3711290Y6155243D01*
X3728277D01*
X3743971Y6161744D01*
X3755983Y6173756D01*
X3762483Y6189450D01*
Y6206437D01*
X3755983Y6222131D01*
X3744118Y6234293D01*
X3755983Y6246456D01*
X3762483Y6262150D01*
Y6279137D01*
X3755983Y6294831D01*
X3743971Y6306842D01*
X3728277Y6313343D01*
D02*
G37*
G36*
X1266494Y6203050D02*
X1249507D01*
X1233813Y6196549D01*
X1221801Y6184537D01*
X1215300Y6168843D01*
Y6151856D01*
X1221801Y6136162D01*
X1233665Y6124000D01*
X1221801Y6111837D01*
X1215300Y6096144D01*
Y6079156D01*
X1221801Y6063463D01*
X1233813Y6051451D01*
X1249507Y6044950D01*
X1266494D01*
X1282187Y6051451D01*
X1294199Y6063463D01*
X1300700Y6079156D01*
Y6096144D01*
X1294199Y6111837D01*
X1282335Y6124000D01*
X1294199Y6136163D01*
X1300700Y6151856D01*
Y6168843D01*
X1294199Y6184537D01*
X1282187Y6196549D01*
X1266494Y6203050D01*
D02*
G37*
G36*
X1138494Y6072700D02*
X1121507D01*
X1105813Y6066199D01*
X1093801Y6054187D01*
X1087300Y6038493D01*
Y6021506D01*
X1093801Y6005812D01*
X1105665Y5993650D01*
X1093801Y5981487D01*
X1087300Y5965794D01*
Y5948806D01*
X1093801Y5933113D01*
X1105813Y5921101D01*
X1121507Y5914600D01*
X1138494D01*
X1154187Y5921101D01*
X1166199Y5933113D01*
X1172700Y5948806D01*
Y5965794D01*
X1166199Y5981487D01*
X1154335Y5993650D01*
X1166199Y6005813D01*
X1172700Y6021506D01*
Y6038493D01*
X1166199Y6054187D01*
X1154187Y6066199D01*
X1138494Y6072700D01*
D02*
G37*
G36*
X4158494Y5892700D02*
X4141507D01*
X4125813Y5886199D01*
X4113801Y5874187D01*
X4107300Y5858493D01*
Y5841506D01*
X4113801Y5825813D01*
X4125813Y5813801D01*
X4141507Y5807300D01*
X4158494D01*
X4174187Y5813801D01*
X4186199Y5825813D01*
X4192700Y5841506D01*
Y5858493D01*
X4186199Y5874187D01*
X4174187Y5886199D01*
X4158494Y5892700D01*
D02*
G37*
G36*
X1658493Y5949050D02*
X1641506D01*
X1625812Y5942549D01*
X1613801Y5930537D01*
X1607300Y5914843D01*
Y5897856D01*
X1613801Y5882162D01*
X1625665Y5870000D01*
X1613800Y5857837D01*
X1607300Y5842144D01*
Y5825156D01*
X1613801Y5809463D01*
X1625812Y5797451D01*
X1641506Y5790950D01*
X1658493D01*
X1674187Y5797451D01*
X1686199Y5809463D01*
X1692700Y5825156D01*
Y5842144D01*
X1686199Y5857837D01*
X1674335Y5870000D01*
X1686199Y5882163D01*
X1692700Y5897856D01*
Y5914843D01*
X1686199Y5930537D01*
X1674187Y5942549D01*
X1658493Y5949050D01*
D02*
G37*
G36*
X758494D02*
X741507D01*
X725813Y5942549D01*
X713801Y5930537D01*
X707300Y5914843D01*
Y5897856D01*
X713801Y5882162D01*
Y5857837D01*
X707300Y5842144D01*
Y5825156D01*
X713801Y5809463D01*
X725813Y5797451D01*
X741507Y5790950D01*
X758494D01*
X774187Y5797451D01*
X786199Y5809463D01*
X792700Y5825156D01*
Y5842144D01*
X786199Y5857837D01*
Y5882162D01*
X792700Y5897856D01*
Y5914843D01*
X786199Y5930537D01*
X774187Y5942549D01*
X758494Y5949050D01*
D02*
G37*
G36*
X3876503Y5869503D02*
X3856491D01*
X3837160Y5864323D01*
X3819830Y5854317D01*
X3805679Y5840167D01*
X3795673Y5822836D01*
X3790494Y5803506D01*
Y5783494D01*
X3795673Y5764163D01*
X3805679Y5746833D01*
X3819830Y5732682D01*
X3837160Y5722676D01*
X3856491Y5717497D01*
X3876503D01*
X3895833Y5722676D01*
X3913164Y5732682D01*
X3927314Y5746833D01*
X3937320Y5764163D01*
X3942500Y5783494D01*
Y5803506D01*
X3937320Y5822836D01*
X3927314Y5840167D01*
X3913164Y5854317D01*
X3895833Y5864323D01*
X3876503Y5869503D01*
D02*
G37*
G36*
X2883494Y5792700D02*
X2866507D01*
X2850813Y5786199D01*
X2838801Y5774187D01*
X2832300Y5758493D01*
Y5741506D01*
X2838801Y5725813D01*
X2850813Y5713801D01*
X2866507Y5707300D01*
X2883494D01*
X2899187Y5713801D01*
X2911199Y5725813D01*
X2917700Y5741506D01*
Y5758493D01*
X2911199Y5774187D01*
X2899187Y5786199D01*
X2883494Y5792700D01*
D02*
G37*
G36*
X1266494Y5822050D02*
X1249507D01*
X1233813Y5815549D01*
X1221801Y5803537D01*
X1215300Y5787843D01*
Y5770856D01*
X1221801Y5755162D01*
X1233665Y5743000D01*
X1221801Y5730837D01*
X1215300Y5715144D01*
Y5698156D01*
X1221801Y5682463D01*
X1233813Y5670451D01*
X1249507Y5663950D01*
X1266494D01*
X1282187Y5670451D01*
X1294199Y5682463D01*
X1300700Y5698156D01*
Y5715144D01*
X1294199Y5730837D01*
X1282335Y5743000D01*
X1294199Y5755163D01*
X1300700Y5770856D01*
Y5787843D01*
X1294199Y5803537D01*
X1282187Y5815549D01*
X1266494Y5822050D01*
D02*
G37*
G36*
X1150493Y5695050D02*
X1133506D01*
X1117812Y5688549D01*
X1105801Y5676537D01*
X1099300Y5660843D01*
Y5643856D01*
X1105801Y5628162D01*
X1117665Y5616000D01*
X1105800Y5603837D01*
X1099300Y5588144D01*
Y5571156D01*
X1105801Y5555463D01*
X1117812Y5543451D01*
X1133506Y5536950D01*
X1150493D01*
X1166187Y5543451D01*
X1178199Y5555463D01*
X1184700Y5571156D01*
Y5588144D01*
X1178199Y5603837D01*
X1166335Y5616000D01*
X1178199Y5628163D01*
X1184700Y5643856D01*
Y5660843D01*
X1178199Y5676537D01*
X1166187Y5688549D01*
X1150493Y5695050D01*
D02*
G37*
G36*
X758494Y5568050D02*
X741507D01*
X725813Y5561549D01*
X713801Y5549537D01*
X707300Y5533843D01*
Y5516856D01*
X713801Y5501162D01*
Y5476837D01*
X707300Y5461144D01*
Y5444156D01*
X713801Y5428463D01*
X725813Y5416451D01*
X741507Y5409950D01*
X758494D01*
X774187Y5416451D01*
X786199Y5428463D01*
X792700Y5444156D01*
Y5461144D01*
X786199Y5476837D01*
Y5501162D01*
X792700Y5516856D01*
Y5533843D01*
X786199Y5549537D01*
X774187Y5561549D01*
X758494Y5568050D01*
D02*
G37*
G36*
X1658494Y5692700D02*
X1641506D01*
X1625813Y5686199D01*
X1613801Y5674187D01*
X1607300Y5658493D01*
Y5641507D01*
X1591506Y5617700D01*
X1575813Y5611199D01*
X1563801Y5599187D01*
X1557300Y5583494D01*
Y5566507D01*
X1557732Y5565464D01*
X1333383Y5341115D01*
X1303823Y5347747D01*
X1293652Y5373602D01*
X1294199Y5374163D01*
X1300700Y5389856D01*
Y5406843D01*
X1294199Y5422537D01*
X1282187Y5434549D01*
X1266494Y5441050D01*
X1249507D01*
X1233813Y5434549D01*
X1221801Y5422537D01*
X1215300Y5406843D01*
Y5389856D01*
X1221801Y5374162D01*
X1233665Y5362000D01*
X1221801Y5349837D01*
X1215300Y5334144D01*
Y5317156D01*
X1221801Y5301463D01*
X1233813Y5289451D01*
X1237688Y5287846D01*
X1246821Y5257496D01*
X1246475Y5254206D01*
X1190322Y5198054D01*
X1185305Y5190545D01*
X1183543Y5181688D01*
Y5175246D01*
X826442Y4818145D01*
X809242D01*
X799187Y4828199D01*
X795409Y4829764D01*
Y4862236D01*
X799187Y4863801D01*
X811199Y4875813D01*
X817700Y4891507D01*
Y4908494D01*
X811199Y4924188D01*
X799187Y4936199D01*
X783493Y4942700D01*
X766506D01*
X750813Y4936199D01*
X738801Y4924188D01*
X732300Y4908494D01*
Y4891507D01*
X738801Y4875813D01*
X750813Y4863801D01*
X754591Y4862236D01*
Y4829764D01*
X750813Y4828199D01*
X738801Y4816187D01*
X732300Y4800494D01*
Y4783507D01*
X738801Y4767813D01*
X750813Y4755801D01*
X766506Y4749300D01*
X783493D01*
X799187Y4755801D01*
X811199Y4767813D01*
X812873Y4771855D01*
X836029D01*
X844886Y4773617D01*
X852395Y4778634D01*
X897793Y4824033D01*
X902724Y4823349D01*
X926855Y4810668D01*
Y4209587D01*
X788072Y4070803D01*
X783493Y4072700D01*
X766506D01*
X750813Y4066199D01*
X738801Y4054187D01*
X732300Y4038494D01*
Y4021507D01*
X738801Y4005813D01*
X750813Y3993801D01*
X766506Y3987300D01*
X783493D01*
X799187Y3993801D01*
X811199Y4005813D01*
X817700Y4021507D01*
Y4034969D01*
X966366Y4183634D01*
X971383Y4191143D01*
X973145Y4200000D01*
Y4810413D01*
X1210300Y5047569D01*
X1240300Y5037506D01*
X1246801Y5021813D01*
X1258813Y5009801D01*
X1274506Y5003300D01*
X1291493D01*
X1307187Y5009801D01*
X1319199Y5021813D01*
X1325700Y5037507D01*
Y5054494D01*
X1321753Y5064022D01*
X1515312Y5257581D01*
X1522070Y5255977D01*
X1547300Y5238493D01*
Y5221506D01*
X1553801Y5205813D01*
X1565812Y5193801D01*
X1563913Y5162116D01*
X1406115Y5004318D01*
X1399922D01*
X1391065Y5002556D01*
X1383556Y4997539D01*
X1187576Y4801559D01*
X1184713Y4801227D01*
X1153937Y4810345D01*
X1152449Y4813937D01*
X1140437Y4825949D01*
X1124743Y4832450D01*
X1107756D01*
X1092062Y4825949D01*
X1080051Y4813937D01*
X1073550Y4798243D01*
Y4781256D01*
X1080051Y4765562D01*
X1092062Y4753551D01*
X1095654Y4752063D01*
X1104772Y4721287D01*
X1104441Y4718423D01*
X1013397Y4627379D01*
X1008379Y4619871D01*
X1006618Y4611013D01*
Y4409500D01*
X1008379Y4400643D01*
X1013397Y4393134D01*
X1126855Y4279676D01*
Y4225166D01*
X1124743Y4197450D01*
X1107756D01*
X1092062Y4190949D01*
X1080051Y4178937D01*
X1073550Y4163243D01*
Y4146256D01*
X1080051Y4130562D01*
X1092062Y4118551D01*
X1107756Y4112050D01*
X1124743D01*
X1140437Y4118551D01*
X1152449Y4130562D01*
X1158950Y4146256D01*
Y4163243D01*
X1158518Y4164286D01*
X1166366Y4172134D01*
X1171383Y4179643D01*
X1173145Y4188500D01*
Y4289262D01*
X1171383Y4298120D01*
X1166366Y4305628D01*
X1052907Y4419087D01*
Y4499760D01*
X1073003Y4507723D01*
X1082907Y4508706D01*
X1092812Y4498801D01*
X1108506Y4492300D01*
X1125493D01*
X1141187Y4498801D01*
X1153199Y4510812D01*
X1159700Y4526506D01*
Y4543493D01*
X1159268Y4544536D01*
X1191587Y4576855D01*
X1222272D01*
X1240450Y4546855D01*
X1240300Y4546494D01*
Y4529507D01*
X1246801Y4513813D01*
X1258813Y4501801D01*
X1274506Y4495300D01*
X1291493D01*
X1307187Y4501801D01*
X1319199Y4513813D01*
X1325700Y4529507D01*
Y4546494D01*
X1325550Y4546855D01*
X1343728Y4576855D01*
X1464643D01*
X1464644Y4576855D01*
X1507205D01*
X1516062Y4578617D01*
X1523571Y4583634D01*
X1547879Y4607941D01*
X1573377Y4598565D01*
X1576855Y4595889D01*
Y4536631D01*
X1575813Y4536199D01*
X1563801Y4524187D01*
X1557300Y4508493D01*
Y4491506D01*
X1563801Y4475812D01*
X1575813Y4463801D01*
X1591507Y4457300D01*
X1608494D01*
X1624188Y4463801D01*
X1636199Y4475812D01*
X1642700Y4491506D01*
Y4508493D01*
X1636199Y4524187D01*
X1624188Y4536199D01*
X1623145Y4536631D01*
Y4595884D01*
X1688299Y4661038D01*
X1697005Y4657093D01*
X1699071Y4640336D01*
X1698221Y4623607D01*
X1688801Y4614187D01*
X1682300Y4598493D01*
Y4581506D01*
X1688801Y4565812D01*
X1700813Y4553800D01*
X1716507Y4547300D01*
X1733494D01*
X1749188Y4553800D01*
X1761199Y4565812D01*
X1767700Y4581506D01*
Y4598493D01*
X1761199Y4614187D01*
X1749188Y4626199D01*
X1746529Y4627300D01*
X1748070Y4650826D01*
X1750495Y4658129D01*
X1764187Y4663801D01*
X1776199Y4675813D01*
X1782700Y4691506D01*
Y4708494D01*
X1776199Y4724187D01*
X1764187Y4736199D01*
X1762186Y4737028D01*
X1753274Y4769951D01*
X1753399Y4770668D01*
X1941366Y4958634D01*
X1946383Y4966143D01*
X1948145Y4975000D01*
Y5125687D01*
X1958196Y5129851D01*
X1970208Y5141863D01*
X1976709Y5157557D01*
Y5174544D01*
X1970208Y5190238D01*
X1958196Y5202249D01*
X1942503Y5208750D01*
X1925516D01*
X1909822Y5202249D01*
X1909045Y5201472D01*
X1881613Y5207774D01*
X1871402Y5236679D01*
X1879581Y5246850D01*
X1926366Y5293634D01*
X1931383Y5301143D01*
X1933145Y5310000D01*
Y5531033D01*
X1931383Y5539890D01*
X1926366Y5547399D01*
X1897399Y5576366D01*
X1889890Y5581383D01*
X1881033Y5583145D01*
X1816631D01*
X1816199Y5584187D01*
X1804187Y5596199D01*
X1788494Y5602700D01*
X1771506D01*
X1755813Y5596199D01*
X1743801Y5584187D01*
X1737300Y5568494D01*
Y5553161D01*
X1732740Y5549078D01*
X1710697Y5537337D01*
X1675845Y5572190D01*
Y5615458D01*
X1686199Y5625812D01*
X1692700Y5641506D01*
Y5658493D01*
X1686199Y5674187D01*
X1674187Y5686199D01*
X1658494Y5692700D01*
D02*
G37*
G36*
X1125493Y5339700D02*
X1108506D01*
X1092812Y5333199D01*
X1080801Y5321187D01*
X1074300Y5305493D01*
Y5288506D01*
X1080801Y5272812D01*
X1092812Y5260801D01*
X1108506Y5254300D01*
X1125493D01*
X1141187Y5260801D01*
X1153199Y5272812D01*
X1159700Y5288506D01*
Y5305493D01*
X1153199Y5321187D01*
X1141187Y5333199D01*
X1125493Y5339700D01*
D02*
G37*
G36*
X783493Y5215700D02*
X766506D01*
X750813Y5209199D01*
X738801Y5197187D01*
X732300Y5181494D01*
Y5164507D01*
X738801Y5148813D01*
X750813Y5136801D01*
X766506Y5130300D01*
X783493D01*
X799187Y5136801D01*
X811199Y5148813D01*
X817700Y5164507D01*
Y5181494D01*
X811199Y5197187D01*
X799187Y5209199D01*
X783493Y5215700D01*
D02*
G37*
G36*
X3618220Y5284995D02*
X3581779D01*
X3546039Y5277886D01*
X3512372Y5263940D01*
X3482073Y5243695D01*
X3456305Y5217927D01*
X3436060Y5187628D01*
X3422115Y5153961D01*
X3415005Y5118221D01*
Y5081780D01*
X3422115Y5046039D01*
X3436060Y5012373D01*
X3456305Y4982073D01*
X3482073Y4956306D01*
X3512372Y4936060D01*
X3546039Y4922115D01*
X3581779Y4915006D01*
X3618220D01*
X3653961Y4922115D01*
X3687628Y4936060D01*
X3717927Y4956306D01*
X3743695Y4982073D01*
X3763940Y5012373D01*
X3777885Y5046039D01*
X3784994Y5081780D01*
Y5118221D01*
X3777885Y5153961D01*
X3763940Y5187628D01*
X3743695Y5217927D01*
X3717927Y5243695D01*
X3687628Y5263940D01*
X3653961Y5277886D01*
X3618220Y5284995D01*
D02*
G37*
G36*
X1889803Y4793798D02*
X1872816D01*
X1857122Y4787297D01*
X1845110Y4775286D01*
X1838609Y4759592D01*
Y4742605D01*
X1845110Y4726911D01*
X1857122Y4714899D01*
X1872816Y4708398D01*
X1889803D01*
X1905497Y4714899D01*
X1917508Y4726911D01*
X1924009Y4742605D01*
Y4759592D01*
X1917508Y4775286D01*
X1905497Y4787297D01*
X1889803Y4793798D01*
D02*
G37*
G36*
X783493Y4707700D02*
X766506D01*
X750813Y4701199D01*
X738801Y4689187D01*
X732300Y4673494D01*
Y4656507D01*
X738801Y4640813D01*
X750813Y4628801D01*
X766506Y4622300D01*
X783493D01*
X799187Y4628801D01*
X811199Y4640813D01*
X817700Y4656507D01*
Y4673494D01*
X811199Y4689187D01*
X799187Y4701199D01*
X783493Y4707700D01*
D02*
G37*
G36*
X1813477Y4472700D02*
X1796490D01*
X1780796Y4466199D01*
X1768784Y4454187D01*
X1762283Y4438493D01*
Y4421506D01*
X1768784Y4405812D01*
X1780796Y4393801D01*
X1796490Y4387300D01*
X1813477D01*
X1829171Y4393801D01*
X1841182Y4405812D01*
X1847683Y4421506D01*
Y4438493D01*
X1841182Y4454187D01*
X1829171Y4466199D01*
X1813477Y4472700D01*
D02*
G37*
G36*
X783493Y4453700D02*
X766506D01*
X750813Y4447199D01*
X738801Y4435187D01*
X732300Y4419494D01*
Y4402507D01*
X738801Y4386813D01*
X750813Y4374801D01*
X766506Y4368300D01*
X783493D01*
X799187Y4374801D01*
X811199Y4386813D01*
X817700Y4402507D01*
Y4419494D01*
X811199Y4435187D01*
X799187Y4447199D01*
X783493Y4453700D01*
D02*
G37*
G36*
X1942503Y4391296D02*
X1925516D01*
X1909822Y4384795D01*
X1897810Y4372784D01*
X1891309Y4357090D01*
Y4340103D01*
X1897810Y4324409D01*
X1909822Y4312397D01*
X1925516Y4305896D01*
X1942503D01*
X1958196Y4312397D01*
X1970208Y4324409D01*
X1976709Y4340103D01*
Y4357090D01*
X1970208Y4372784D01*
X1958196Y4384795D01*
X1942503Y4391296D01*
D02*
G37*
G36*
X783493Y4326700D02*
X766506D01*
X750813Y4320199D01*
X738801Y4308187D01*
X732300Y4292494D01*
Y4275507D01*
X738801Y4259813D01*
X750813Y4247801D01*
X766506Y4241300D01*
X783493D01*
X799187Y4247801D01*
X811199Y4259813D01*
X817700Y4275507D01*
Y4292494D01*
X811199Y4308187D01*
X799187Y4320199D01*
X783493Y4326700D01*
D02*
G37*
G36*
X1266494Y4298050D02*
X1249507D01*
X1233813Y4291549D01*
X1221801Y4279537D01*
X1215300Y4263843D01*
Y4246856D01*
X1221801Y4231162D01*
X1233665Y4219000D01*
X1221801Y4206837D01*
X1215300Y4191144D01*
Y4174156D01*
X1221801Y4158463D01*
X1233813Y4146451D01*
X1249507Y4139950D01*
X1266494D01*
X1282187Y4146451D01*
X1294199Y4158463D01*
X1300700Y4174156D01*
Y4191144D01*
X1294199Y4206837D01*
X1282335Y4219000D01*
X1294199Y4231163D01*
X1300700Y4246856D01*
Y4263843D01*
X1294199Y4279537D01*
X1282187Y4291549D01*
X1266494Y4298050D01*
D02*
G37*
G36*
X783493Y3945700D02*
X766506D01*
X750813Y3939199D01*
X738801Y3927187D01*
X732300Y3911494D01*
Y3894507D01*
X738801Y3878813D01*
X750813Y3866801D01*
X766506Y3860300D01*
X783493D01*
X799187Y3866801D01*
X811199Y3878813D01*
X817700Y3894507D01*
Y3911494D01*
X811199Y3927187D01*
X799187Y3939199D01*
X783493Y3945700D01*
D02*
G37*
G36*
X1658493Y3917050D02*
X1641506D01*
X1625812Y3910549D01*
X1613801Y3898537D01*
X1607300Y3882843D01*
Y3865856D01*
X1613801Y3850162D01*
X1625665Y3838000D01*
X1613800Y3825837D01*
X1607300Y3810144D01*
Y3793156D01*
X1613801Y3777463D01*
X1625812Y3765451D01*
X1641506Y3758950D01*
X1658493D01*
X1674187Y3765451D01*
X1686199Y3777463D01*
X1692700Y3793156D01*
Y3810144D01*
X1686199Y3825837D01*
X1674335Y3838000D01*
X1686199Y3850163D01*
X1692700Y3865856D01*
Y3882843D01*
X1686199Y3898537D01*
X1674187Y3910549D01*
X1658493Y3917050D01*
D02*
G37*
G36*
X1266494D02*
X1249507D01*
X1233813Y3910549D01*
X1221801Y3898537D01*
X1215300Y3882843D01*
Y3865856D01*
X1221801Y3850162D01*
X1233665Y3838000D01*
X1221801Y3825837D01*
X1215300Y3810144D01*
Y3793156D01*
X1221801Y3777463D01*
X1233813Y3765451D01*
X1249507Y3758950D01*
X1266494D01*
X1282187Y3765451D01*
X1294199Y3777463D01*
X1300700Y3793156D01*
Y3810144D01*
X1294199Y3825837D01*
X1282335Y3838000D01*
X1294199Y3850163D01*
X1300700Y3865856D01*
Y3882843D01*
X1294199Y3898537D01*
X1282187Y3910549D01*
X1266494Y3917050D01*
D02*
G37*
G36*
X3618221Y4084994D02*
X3581780D01*
X3546039Y4077885D01*
X3512372Y4063940D01*
X3482073Y4043694D01*
X3456306Y4017927D01*
X3436060Y3987628D01*
X3422115Y3953961D01*
X3415006Y3918220D01*
Y3881779D01*
X3422115Y3846039D01*
X3436060Y3812372D01*
X3456306Y3782073D01*
X3482073Y3756305D01*
X3512372Y3736060D01*
X3546039Y3722114D01*
X3581780Y3715005D01*
X3618221D01*
X3653961Y3722114D01*
X3687628Y3736060D01*
X3717927Y3756305D01*
X3743695Y3782073D01*
X3763940Y3812372D01*
X3777886Y3846039D01*
X3784995Y3881779D01*
Y3918220D01*
X3777886Y3953961D01*
X3763940Y3987628D01*
X3743695Y4017927D01*
X3717927Y4043694D01*
X3687628Y4063940D01*
X3653961Y4077885D01*
X3618221Y4084994D01*
D02*
G37*
G36*
X1150493Y3790050D02*
X1133506D01*
X1117812Y3783549D01*
X1105801Y3771537D01*
X1099300Y3755843D01*
Y3738856D01*
X1105801Y3723162D01*
X1117665Y3711000D01*
X1105800Y3698837D01*
X1099300Y3683144D01*
Y3666156D01*
X1105801Y3650463D01*
X1117812Y3638451D01*
X1133506Y3631950D01*
X1150493D01*
X1166187Y3638451D01*
X1178199Y3650463D01*
X1184700Y3666156D01*
Y3683144D01*
X1178199Y3698837D01*
X1166335Y3711000D01*
X1178199Y3723163D01*
X1184700Y3738856D01*
Y3755843D01*
X1178199Y3771537D01*
X1166187Y3783549D01*
X1150493Y3790050D01*
D02*
G37*
G36*
X758494Y3663050D02*
X741507D01*
X725813Y3656549D01*
X713801Y3644537D01*
X707300Y3628843D01*
Y3611856D01*
X713801Y3596162D01*
Y3571837D01*
X707300Y3556144D01*
Y3539156D01*
X713801Y3523463D01*
X725813Y3511451D01*
X741507Y3504950D01*
X758494D01*
X774187Y3511451D01*
X786199Y3523463D01*
X792700Y3539156D01*
Y3556144D01*
X786199Y3571837D01*
Y3596162D01*
X792700Y3611856D01*
Y3628843D01*
X786199Y3644537D01*
X774187Y3656549D01*
X758494Y3663050D01*
D02*
G37*
G36*
X2858493Y3542700D02*
X2841506D01*
X2825812Y3536199D01*
X2813801Y3524188D01*
X2807300Y3508494D01*
Y3491507D01*
X2813801Y3475813D01*
X2825812Y3463801D01*
X2841506Y3457300D01*
X2858493D01*
X2874187Y3463801D01*
X2886199Y3475813D01*
X2892700Y3491507D01*
Y3508494D01*
X2886199Y3524188D01*
X2874187Y3536199D01*
X2858493Y3542700D01*
D02*
G37*
G36*
X1633493Y3434700D02*
X1616506D01*
X1600812Y3428199D01*
X1588801Y3416187D01*
X1582300Y3400493D01*
Y3383506D01*
X1588801Y3367812D01*
X1600812Y3355801D01*
X1616506Y3349300D01*
X1633493D01*
X1649187Y3355801D01*
X1661199Y3367812D01*
X1667700Y3383506D01*
Y3400493D01*
X1661199Y3416187D01*
X1649187Y3428199D01*
X1633493Y3434700D01*
D02*
G37*
G36*
X1150493Y3409050D02*
X1133506D01*
X1117812Y3402549D01*
X1105801Y3390537D01*
X1099300Y3374843D01*
Y3357856D01*
X1105801Y3342162D01*
X1117665Y3330000D01*
X1105800Y3317837D01*
X1099300Y3302144D01*
Y3285156D01*
X1105801Y3269463D01*
X1117812Y3257451D01*
X1133506Y3250950D01*
X1150493D01*
X1166187Y3257451D01*
X1178199Y3269463D01*
X1184700Y3285156D01*
Y3302144D01*
X1178199Y3317837D01*
X1166335Y3330000D01*
X1178199Y3342163D01*
X1184700Y3357856D01*
Y3374843D01*
X1178199Y3390537D01*
X1166187Y3402549D01*
X1150493Y3409050D01*
D02*
G37*
G36*
X1633493Y3307700D02*
X1616506D01*
X1600812Y3301199D01*
X1588801Y3289187D01*
X1582300Y3273493D01*
Y3256506D01*
X1588801Y3240812D01*
X1600812Y3228801D01*
X1616506Y3222300D01*
X1633493D01*
X1649187Y3228801D01*
X1661199Y3240812D01*
X1667700Y3256506D01*
Y3273493D01*
X1661199Y3289187D01*
X1649187Y3301199D01*
X1633493Y3307700D01*
D02*
G37*
G36*
X3133494Y3292700D02*
X3116507D01*
X3100813Y3286199D01*
X3088801Y3274188D01*
X3082300Y3258494D01*
Y3241507D01*
X3088801Y3225813D01*
X3100813Y3213801D01*
X3116507Y3207300D01*
X3133494D01*
X3149188Y3213801D01*
X3161199Y3225813D01*
X3167700Y3241507D01*
Y3258494D01*
X3161199Y3274188D01*
X3149188Y3286199D01*
X3133494Y3292700D01*
D02*
G37*
G36*
X3876503Y3282503D02*
X3856491D01*
X3837161Y3277324D01*
X3819830Y3267318D01*
X3805679Y3253167D01*
X3795673Y3235837D01*
X3790494Y3216506D01*
Y3196494D01*
X3795673Y3177164D01*
X3805679Y3159833D01*
X3819830Y3145683D01*
X3837161Y3135677D01*
X3856491Y3130497D01*
X3876503D01*
X3895833Y3135677D01*
X3913164Y3145683D01*
X3927315Y3159833D01*
X3937321Y3177164D01*
X3942500Y3196494D01*
Y3216506D01*
X3937321Y3235837D01*
X3927315Y3253167D01*
X3913164Y3267318D01*
X3895833Y3277324D01*
X3876503Y3282503D01*
D02*
G37*
G36*
X758494Y3282050D02*
X741507D01*
X725813Y3275549D01*
X713801Y3263537D01*
X707300Y3247843D01*
Y3230856D01*
X713801Y3215162D01*
Y3190837D01*
X707300Y3175144D01*
Y3158156D01*
X713801Y3142463D01*
X725813Y3130451D01*
X741507Y3123950D01*
X758494D01*
X774187Y3130451D01*
X786199Y3142463D01*
X792700Y3158156D01*
Y3175144D01*
X786199Y3190837D01*
Y3215162D01*
X792700Y3230856D01*
Y3247843D01*
X786199Y3263537D01*
X774187Y3275549D01*
X758494Y3282050D01*
D02*
G37*
G36*
X4858493Y3092700D02*
X4841506D01*
X4825813Y3086199D01*
X4813801Y3074187D01*
X4807300Y3058494D01*
Y3041506D01*
X4813801Y3025813D01*
X4825813Y3013801D01*
X4841506Y3007300D01*
X4858493D01*
X4874187Y3013801D01*
X4886199Y3025813D01*
X4892700Y3041506D01*
Y3058494D01*
X4886199Y3074187D01*
X4874187Y3086199D01*
X4858493Y3092700D01*
D02*
G37*
G36*
X4358493D02*
X4341506D01*
X4325813Y3086199D01*
X4313801Y3074187D01*
X4307300Y3058494D01*
Y3041506D01*
X4313801Y3025813D01*
X4325813Y3013801D01*
X4341506Y3007300D01*
X4358493D01*
X4374187Y3013801D01*
X4386199Y3025813D01*
X4392700Y3041506D01*
Y3058494D01*
X4386199Y3074187D01*
X4374187Y3086199D01*
X4358493Y3092700D01*
D02*
G37*
G36*
X1150493Y3028050D02*
X1133506D01*
X1117812Y3021549D01*
X1105801Y3009537D01*
X1099300Y2993843D01*
Y2976856D01*
X1105801Y2961162D01*
X1117665Y2949000D01*
X1105800Y2936837D01*
X1099300Y2921144D01*
Y2904156D01*
X1105801Y2888463D01*
X1117812Y2876451D01*
X1133506Y2869950D01*
X1150493D01*
X1166187Y2876451D01*
X1178199Y2888463D01*
X1184700Y2904156D01*
Y2921144D01*
X1178199Y2936837D01*
X1166335Y2949000D01*
X1178199Y2961163D01*
X1184700Y2976856D01*
Y2993843D01*
X1178199Y3009537D01*
X1166187Y3021549D01*
X1150493Y3028050D01*
D02*
G37*
G36*
X4083493Y2917700D02*
X4066506D01*
X4050813Y2911199D01*
X4038801Y2899187D01*
X4032300Y2883494D01*
Y2866507D01*
X4038801Y2850813D01*
X4050813Y2838801D01*
X4066506Y2832300D01*
X4083493D01*
X4099187Y2838801D01*
X4111199Y2850813D01*
X4117700Y2866507D01*
Y2883494D01*
X4111199Y2899187D01*
X4099187Y2911199D01*
X4083493Y2917700D01*
D02*
G37*
G36*
X3119220Y3013573D02*
X3102233D01*
X3086539Y3007072D01*
X3074527Y2995061D01*
X3068026Y2979367D01*
Y2962380D01*
X3074527Y2946686D01*
X3085815Y2935398D01*
X3086598Y2934135D01*
X3090270Y2900657D01*
X3088801Y2899187D01*
X3082300Y2883494D01*
Y2866507D01*
X3088801Y2850813D01*
X3100665Y2838650D01*
X3088801Y2826487D01*
X3082300Y2810794D01*
Y2793807D01*
X3088801Y2778113D01*
X3100813Y2766101D01*
X3116507Y2759600D01*
X3133494D01*
X3149188Y2766101D01*
X3161199Y2778113D01*
X3167700Y2793807D01*
Y2810794D01*
X3161199Y2826488D01*
X3149335Y2838650D01*
X3161199Y2850813D01*
X3167700Y2866507D01*
Y2883494D01*
X3161199Y2899187D01*
X3149912Y2910475D01*
X3149129Y2911739D01*
X3145456Y2945217D01*
X3146925Y2946686D01*
X3153426Y2962380D01*
Y2979367D01*
X3146925Y2995061D01*
X3134914Y3007072D01*
X3119220Y3013573D01*
D02*
G37*
G36*
X2858493Y2842700D02*
X2841506D01*
X2825812Y2836199D01*
X2813801Y2824187D01*
X2807300Y2808493D01*
Y2791506D01*
X2813801Y2775813D01*
X2825812Y2763801D01*
X2841506Y2757300D01*
X2858493D01*
X2874187Y2763801D01*
X2886199Y2775813D01*
X2892700Y2791506D01*
Y2808493D01*
X2886199Y2824187D01*
X2874187Y2836199D01*
X2858493Y2842700D01*
D02*
G37*
G36*
X1583493D02*
X1566506D01*
X1550812Y2836199D01*
X1538801Y2824187D01*
X1532300Y2808493D01*
Y2791506D01*
X1538801Y2775813D01*
X1550812Y2763801D01*
X1566506Y2757300D01*
X1583493D01*
X1599187Y2763801D01*
X1611199Y2775813D01*
X1617700Y2791506D01*
Y2808493D01*
X1611199Y2824187D01*
X1599187Y2836199D01*
X1583493Y2842700D01*
D02*
G37*
G36*
X758494Y2901050D02*
X741507D01*
X725813Y2894549D01*
X713801Y2882537D01*
X707300Y2866843D01*
Y2849856D01*
X713801Y2834162D01*
Y2809837D01*
X707300Y2794144D01*
Y2777156D01*
X713801Y2761463D01*
X725813Y2749451D01*
X741507Y2742950D01*
X758494D01*
X774187Y2749451D01*
X786199Y2761463D01*
X792700Y2777156D01*
Y2794144D01*
X786199Y2809837D01*
Y2834162D01*
X792700Y2849856D01*
Y2866843D01*
X786199Y2882537D01*
X774187Y2894549D01*
X758494Y2901050D01*
D02*
G37*
G36*
X3108494Y2679049D02*
X3091507D01*
X3075813Y2672548D01*
X3063801Y2660536D01*
X3057300Y2644843D01*
Y2627856D01*
X3063801Y2612162D01*
X3075665Y2599999D01*
X3063801Y2587836D01*
X3057300Y2572143D01*
Y2555156D01*
X3063801Y2539462D01*
X3075813Y2527450D01*
X3091507Y2520949D01*
X3108494D01*
X3124188Y2527450D01*
X3136199Y2539462D01*
X3142700Y2555156D01*
Y2572143D01*
X3136199Y2587837D01*
X3124335Y2599999D01*
X3136199Y2612162D01*
X3142700Y2627856D01*
Y2644843D01*
X3136199Y2660536D01*
X3124188Y2672548D01*
X3108494Y2679049D01*
D02*
G37*
G36*
X2754242Y2475325D02*
X2737255D01*
X2721561Y2468824D01*
X2709550Y2456812D01*
X2703049Y2441119D01*
Y2424132D01*
X2709550Y2408438D01*
X2721414Y2396275D01*
X2709550Y2384112D01*
X2703049Y2368419D01*
Y2351432D01*
X2709550Y2335738D01*
X2721561Y2323726D01*
X2737255Y2317225D01*
X2754242D01*
X2769936Y2323726D01*
X2781948Y2335738D01*
X2788449Y2351432D01*
Y2368419D01*
X2781948Y2384113D01*
X2770084Y2396275D01*
X2781948Y2408438D01*
X2788449Y2424132D01*
Y2441119D01*
X2781948Y2456812D01*
X2769936Y2468824D01*
X2754242Y2475325D01*
D02*
G37*
G36*
X1658494Y2342700D02*
X1641506D01*
X1625813Y2336199D01*
X1613801Y2324187D01*
X1607300Y2308493D01*
Y2291506D01*
X1613801Y2275813D01*
X1625813Y2263801D01*
X1641506Y2257300D01*
X1658494D01*
X1674187Y2263801D01*
X1686199Y2275813D01*
X1692700Y2291506D01*
Y2308493D01*
X1686199Y2324187D01*
X1674187Y2336199D01*
X1658494Y2342700D01*
D02*
G37*
G36*
X3008494Y2365400D02*
X2991507D01*
X2975813Y2358899D01*
X2963801Y2346887D01*
X2957300Y2331193D01*
Y2314206D01*
X2963801Y2298513D01*
X2975665Y2286350D01*
X2963801Y2274187D01*
X2957300Y2258494D01*
Y2241507D01*
X2963801Y2225813D01*
X2975813Y2213801D01*
X2991507Y2207300D01*
X3008494D01*
X3024188Y2213801D01*
X3036199Y2225813D01*
X3042700Y2241507D01*
Y2258494D01*
X3036199Y2274187D01*
X3024335Y2286350D01*
X3036199Y2298513D01*
X3042700Y2314206D01*
Y2331193D01*
X3036199Y2346887D01*
X3024188Y2358899D01*
X3008494Y2365400D01*
D02*
G37*
G36*
X3681518Y2839044D02*
X3664531D01*
X3648837Y2832543D01*
X3636825Y2820531D01*
X3630324Y2804837D01*
Y2787850D01*
X3636825Y2772156D01*
X3648689Y2759994D01*
X3636825Y2747831D01*
X3630324Y2732137D01*
Y2715150D01*
X3636744Y2699652D01*
X3636825Y2699456D01*
X3645512Y2679996D01*
X3636825Y2660536D01*
X3636744Y2660340D01*
X3630324Y2644843D01*
Y2627856D01*
X3636825Y2612162D01*
X3648689Y2599999D01*
X3636825Y2587836D01*
X3630324Y2572143D01*
Y2555156D01*
X3636825Y2539462D01*
X3648837Y2527450D01*
X3664530Y2520949D01*
X3665539Y2519881D01*
X3679828Y2490949D01*
X3677300Y2484848D01*
Y2467861D01*
X3683801Y2452167D01*
X3695665Y2440005D01*
X3683801Y2427842D01*
X3677300Y2412148D01*
Y2395161D01*
X3679838Y2389035D01*
X3665593Y2360160D01*
X3664530Y2359034D01*
X3648837Y2352534D01*
X3636825Y2340522D01*
X3630324Y2324828D01*
Y2307841D01*
X3636825Y2292147D01*
X3648689Y2279985D01*
X3636825Y2267822D01*
X3630324Y2252128D01*
Y2235141D01*
X3636825Y2219447D01*
X3648837Y2207436D01*
X3664531Y2200935D01*
X3681518D01*
X3697212Y2207436D01*
X3709223Y2219447D01*
X3715724Y2235141D01*
Y2252128D01*
X3709223Y2267822D01*
X3697359Y2279985D01*
X3709223Y2292147D01*
X3715724Y2307841D01*
Y2324828D01*
X3713186Y2330954D01*
X3727432Y2359829D01*
X3728494Y2360955D01*
X3744188Y2367456D01*
X3756199Y2379467D01*
X3762700Y2395161D01*
Y2412148D01*
X3756199Y2427842D01*
X3744335Y2440005D01*
X3756199Y2452167D01*
X3762700Y2467861D01*
Y2484848D01*
X3756199Y2500542D01*
X3744188Y2512554D01*
X3728494Y2519054D01*
X3727485Y2520122D01*
X3713197Y2549055D01*
X3715724Y2555156D01*
Y2572143D01*
X3709223Y2587837D01*
X3697359Y2599999D01*
X3709223Y2612162D01*
X3715724Y2627856D01*
Y2644843D01*
X3709304Y2660340D01*
X3709223Y2660536D01*
X3700537Y2679996D01*
X3709223Y2699456D01*
X3709304Y2699652D01*
X3715724Y2715150D01*
Y2732137D01*
X3709223Y2747831D01*
X3697359Y2759994D01*
X3709223Y2772157D01*
X3715724Y2787850D01*
Y2804837D01*
X3709223Y2820531D01*
X3697212Y2832543D01*
X3681518Y2839044D01*
D02*
G37*
G36*
X1868494Y2132700D02*
X1851507D01*
X1835813Y2126199D01*
X1823801Y2114187D01*
X1817300Y2098493D01*
Y2081506D01*
X1823801Y2065812D01*
X1835813Y2053801D01*
X1851507Y2047300D01*
X1868494D01*
X1884187Y2053801D01*
X1896199Y2065812D01*
X1902700Y2081506D01*
Y2098493D01*
X1896199Y2114187D01*
X1884187Y2126199D01*
X1868494Y2132700D01*
D02*
G37*
G36*
X1397493Y2058700D02*
X1380506D01*
X1364812Y2052199D01*
X1352801Y2040187D01*
X1346300Y2024494D01*
Y2007507D01*
X1352801Y1991813D01*
X1364812Y1979801D01*
X1380506Y1973300D01*
X1397493D01*
X1413187Y1979801D01*
X1425199Y1991813D01*
X1431700Y2007507D01*
Y2024494D01*
X1425199Y2040187D01*
X1413187Y2052199D01*
X1397493Y2058700D01*
D02*
G37*
G36*
X906851Y1969430D02*
X883549D01*
X861040Y1963399D01*
X840860Y1951748D01*
X824382Y1935270D01*
X812731Y1915090D01*
X806700Y1892581D01*
Y1869279D01*
X812731Y1846770D01*
X824382Y1826590D01*
X840860Y1810112D01*
X861040Y1798461D01*
X883549Y1792430D01*
X906851D01*
X929360Y1798461D01*
X949540Y1810112D01*
X966018Y1826590D01*
X977669Y1846770D01*
X983700Y1869279D01*
Y1892581D01*
X977669Y1915090D01*
X966018Y1935270D01*
X949540Y1951748D01*
X929360Y1963399D01*
X906851Y1969430D01*
D02*
G37*
G36*
X3681518Y1719056D02*
X3664531D01*
X3648837Y1712555D01*
X3636825Y1700543D01*
X3630324Y1684850D01*
Y1667863D01*
X3636825Y1652169D01*
X3648689Y1640006D01*
X3636825Y1627843D01*
X3630324Y1612150D01*
Y1595163D01*
X3636825Y1579469D01*
X3648837Y1567457D01*
X3664531Y1560956D01*
X3681518D01*
X3697212Y1567457D01*
X3709223Y1579469D01*
X3715724Y1595163D01*
Y1612150D01*
X3709223Y1627844D01*
X3697359Y1640006D01*
X3709223Y1652169D01*
X3715724Y1667863D01*
Y1684850D01*
X3709223Y1700543D01*
X3697212Y1712555D01*
X3681518Y1719056D01*
D02*
G37*
G36*
X3108494D02*
X3091507D01*
X3075813Y1712555D01*
X3063801Y1700543D01*
X3057300Y1684850D01*
Y1667863D01*
X3063801Y1652169D01*
X3075665Y1640006D01*
X3063801Y1627843D01*
X3057300Y1612150D01*
Y1595163D01*
X3063801Y1579469D01*
X3075813Y1567457D01*
X3091507Y1560956D01*
X3108494D01*
X3124188Y1567457D01*
X3136199Y1579469D01*
X3142700Y1595163D01*
Y1612150D01*
X3136199Y1627844D01*
X3124335Y1640006D01*
X3136199Y1652169D01*
X3142700Y1667863D01*
Y1684850D01*
X3136199Y1700543D01*
X3124188Y1712555D01*
X3108494Y1719056D01*
D02*
G37*
G36*
X2208493Y1642700D02*
X2191506D01*
X2175813Y1636199D01*
X2163801Y1624188D01*
X2157300Y1608494D01*
Y1591507D01*
X2163801Y1575813D01*
X2175813Y1563801D01*
X2191506Y1557300D01*
X2208493D01*
X2224187Y1563801D01*
X2236199Y1575813D01*
X2242700Y1591507D01*
Y1608494D01*
X2236199Y1624188D01*
X2224187Y1636199D01*
X2208493Y1642700D01*
D02*
G37*
G36*
X1009698Y1562000D02*
X970302D01*
X931662Y1554314D01*
X895265Y1539238D01*
X862508Y1517350D01*
X834650Y1489493D01*
X812762Y1456735D01*
X797686Y1420338D01*
X790000Y1381698D01*
Y1342302D01*
X797686Y1303662D01*
X812762Y1267265D01*
X834650Y1234508D01*
X862508Y1206650D01*
X895265Y1184762D01*
X931662Y1169686D01*
X970302Y1162000D01*
X1009698D01*
X1048338Y1169686D01*
X1084735Y1184762D01*
X1117493Y1206650D01*
X1145350Y1234508D01*
X1167238Y1267265D01*
X1182314Y1303662D01*
X1190000Y1342302D01*
Y1381698D01*
X1182314Y1420338D01*
X1167238Y1456735D01*
X1145350Y1489493D01*
X1117493Y1517350D01*
X1084735Y1539238D01*
X1048338Y1554314D01*
X1009698Y1562000D01*
D02*
G37*
G36*
X3876503Y1269503D02*
X3856491D01*
X3837161Y1264323D01*
X3819830Y1254317D01*
X3805679Y1240166D01*
X3795673Y1222836D01*
X3790494Y1203506D01*
Y1183493D01*
X3795673Y1164163D01*
X3805679Y1146833D01*
X3819830Y1132682D01*
X3837161Y1122676D01*
X3856491Y1117496D01*
X3876503D01*
X3895833Y1122676D01*
X3913164Y1132682D01*
X3927315Y1146833D01*
X3937321Y1164163D01*
X3942500Y1183493D01*
Y1203506D01*
X3937321Y1222836D01*
X3927315Y1240166D01*
X3913164Y1254317D01*
X3895833Y1264323D01*
X3876503Y1269503D01*
D02*
G37*
G36*
X3618221Y684995D02*
X3581780D01*
X3546039Y677885D01*
X3512372Y663940D01*
X3482073Y643695D01*
X3456306Y617927D01*
X3436060Y587628D01*
X3422115Y553961D01*
X3415006Y518220D01*
Y481780D01*
X3422115Y446039D01*
X3436060Y412372D01*
X3456306Y382073D01*
X3482073Y356305D01*
X3512372Y336060D01*
X3546039Y322115D01*
X3581780Y315005D01*
X3618221D01*
X3653961Y322115D01*
X3687628Y336060D01*
X3717927Y356305D01*
X3743695Y382073D01*
X3763940Y412372D01*
X3777886Y446039D01*
X3784995Y481780D01*
Y518220D01*
X3777886Y553961D01*
X3763940Y587628D01*
X3743695Y617927D01*
X3717927Y643695D01*
X3687628Y663940D01*
X3653961Y677885D01*
X3618221Y684995D01*
D02*
G37*
G36*
X4700000Y651210D02*
X4650991Y646383D01*
X4603866Y632087D01*
X4560435Y608873D01*
X4522368Y577632D01*
X4491127Y539565D01*
X4467913Y496134D01*
X4453617Y449008D01*
X4448790Y400000D01*
X4453617Y350991D01*
X4467913Y303866D01*
X4491127Y260435D01*
X4522368Y222368D01*
X4560435Y191127D01*
X4603866Y167913D01*
X4650991Y153617D01*
X4700000Y148790D01*
X4749009Y153617D01*
X4796134Y167913D01*
X4839565Y191127D01*
X4877632Y222368D01*
X4908873Y260435D01*
X4932087Y303866D01*
X4946383Y350991D01*
X4951210Y400000D01*
X4946383Y449008D01*
X4932087Y496134D01*
X4908873Y539565D01*
X4877632Y577632D01*
X4839565Y608873D01*
X4796134Y632087D01*
X4749009Y646383D01*
X4700000Y651210D01*
D02*
G37*
G36*
X400000D02*
X350991Y646383D01*
X303866Y632087D01*
X260435Y608873D01*
X222368Y577632D01*
X191127Y539565D01*
X167913Y496134D01*
X153617Y449008D01*
X148790Y400000D01*
X153617Y350991D01*
X167913Y303866D01*
X191127Y260435D01*
X222368Y222368D01*
X260435Y191127D01*
X303866Y167913D01*
X350991Y153617D01*
X400000Y148790D01*
X449008Y153617D01*
X496134Y167913D01*
X539565Y191127D01*
X577632Y222368D01*
X608873Y260435D01*
X632087Y303866D01*
X646383Y350991D01*
X651210Y400000D01*
X646383Y449008D01*
X632087Y496134D01*
X608873Y539565D01*
X577632Y577632D01*
X539565Y608873D01*
X496134Y632087D01*
X449008Y646383D01*
X400000Y651210D01*
D02*
G37*
%LPD*%
G36*
X1636334Y5546238D02*
X1696688Y5485884D01*
X1704196Y5480867D01*
X1713053Y5479105D01*
X1721214D01*
X1737011Y5455740D01*
X1734393Y5448351D01*
X1733966Y5448145D01*
X1715000D01*
X1706143Y5446383D01*
X1698634Y5441366D01*
X1628463Y5371194D01*
X1478050D01*
X1469193Y5369433D01*
X1451269Y5393537D01*
X1590464Y5532732D01*
X1591507Y5532300D01*
X1608494D01*
X1624188Y5538801D01*
X1632046Y5546660D01*
X1636334Y5546238D01*
D02*
G37*
G36*
X1778576Y5404000D02*
X1776386Y5406090D01*
X1774131Y5407960D01*
X1771810Y5409610D01*
X1769423Y5411040D01*
X1766970Y5412250D01*
X1764451Y5413240D01*
X1761866Y5414010D01*
X1759215Y5414560D01*
X1756498Y5414890D01*
X1753716Y5415000D01*
Y5435000D01*
X1756498Y5435110D01*
X1759215Y5435440D01*
X1761866Y5435990D01*
X1764451Y5436760D01*
X1766970Y5437750D01*
X1769423Y5438960D01*
X1771810Y5440390D01*
X1774131Y5442040D01*
X1776386Y5443910D01*
X1778576Y5446000D01*
Y5404000D01*
D02*
G37*
G36*
X1714715Y5264186D02*
X1712502Y5265324D01*
X1710294Y5266114D01*
X1708090Y5266557D01*
X1705892Y5266651D01*
X1703698Y5266398D01*
X1701510Y5265796D01*
X1699326Y5264847D01*
X1697147Y5263551D01*
X1694973Y5261906D01*
X1692805Y5259913D01*
X1681216Y5276608D01*
X1684488Y5279930D01*
X1697284Y5294452D01*
X1699130Y5296939D01*
X1702109Y5301496D01*
X1703242Y5303566D01*
X1714715Y5264186D01*
D02*
G37*
G36*
X1787829Y5205639D02*
X1792043Y5202356D01*
X1795222Y5197419D01*
Y5180432D01*
X1801723Y5164738D01*
X1813735Y5152726D01*
X1826855Y5147291D01*
Y5022899D01*
X1811510Y5011000D01*
X1802363Y5011763D01*
X1779013Y5019856D01*
X1775148Y5029187D01*
X1763136Y5041199D01*
X1747442Y5047700D01*
X1730455D01*
X1714761Y5041199D01*
X1702750Y5029187D01*
X1696249Y5013493D01*
X1696248Y5006008D01*
X1667183Y5000226D01*
X1665369Y5002811D01*
X1664716Y5003742D01*
X1662440Y5006017D01*
X1652704Y5015754D01*
X1637010Y5022255D01*
X1620023D01*
X1604329Y5015754D01*
X1592317Y5003742D01*
X1585816Y4988048D01*
Y4971061D01*
X1592317Y4955367D01*
X1604329Y4943356D01*
X1620023Y4936855D01*
X1637010D01*
X1652704Y4943356D01*
X1664715Y4955367D01*
X1671216Y4971061D01*
X1671217Y4978547D01*
X1700282Y4984329D01*
X1702096Y4981744D01*
X1702749Y4980812D01*
X1705025Y4978537D01*
X1714761Y4968801D01*
X1730455Y4962300D01*
X1732614D01*
X1745040Y4932300D01*
X1568235Y4755495D01*
X1568234Y4755495D01*
X1520934Y4708195D01*
X1515917Y4700686D01*
X1514155Y4691829D01*
Y4639682D01*
X1497619Y4623144D01*
X1464646D01*
X1464645Y4623145D01*
X1341881D01*
X1339871Y4624711D01*
X1324304Y4653138D01*
X1329019Y4656288D01*
X1387692Y4714961D01*
X1387692Y4714961D01*
X1446366Y4773634D01*
X1451383Y4781143D01*
X1453145Y4790000D01*
Y4920413D01*
X1746887Y5214155D01*
X1751829D01*
X1760686Y5215917D01*
X1787829Y5205639D01*
D02*
G37*
G36*
X1232300Y4741506D02*
X1238801Y4725812D01*
X1241515Y4723099D01*
X1250478Y4711751D01*
X1246801Y4689188D01*
X1240300Y4673494D01*
Y4656507D01*
X1241693Y4653145D01*
X1226129Y4624710D01*
X1224119Y4623145D01*
X1182000D01*
X1173143Y4621383D01*
X1165634Y4616366D01*
X1126536Y4577268D01*
X1125493Y4577700D01*
X1108506D01*
X1092812Y4571199D01*
X1082907Y4561294D01*
X1073003Y4562277D01*
X1052907Y4570240D01*
Y4601427D01*
X1202300Y4750820D01*
X1232300Y4741506D01*
D02*
G37*
D22*
X1206688Y5181688D02*
X1600000Y5575000D01*
X1206688Y5165659D02*
Y5181688D01*
X1837922Y5188925D02*
X1845576Y5181272D01*
Y5162709D02*
Y5181272D01*
Y5162709D02*
X1850000Y5158284D01*
Y5004529D02*
Y5158284D01*
X950000Y4200000D02*
Y4820000D01*
X780000Y4030000D02*
X950000Y4200000D01*
X775000Y4030000D02*
X780000D01*
X1926356Y5135690D02*
Y5158397D01*
X1687300Y4737300D02*
X1925000Y4975000D01*
X1926356Y5158397D02*
X1934009Y5166050D01*
X1925000Y4975000D02*
Y5134334D01*
X1926356Y5135690D01*
X1584600Y4739129D02*
X1850000Y5004529D01*
X1299426Y5073250D02*
Y5074426D01*
X1525000Y5300000D02*
X1663674D01*
X1283000Y5046000D02*
Y5056824D01*
X1299426Y5073250D01*
Y5074426D02*
X1525000Y5300000D01*
X778000Y4795000D02*
X836029D01*
X1206688Y5165659D01*
X1507205Y4600000D02*
X1537300Y4630095D01*
X1182000Y4600000D02*
X1464645D01*
X1464644Y4600000D02*
X1507205D01*
X1537300Y4630095D02*
Y4691829D01*
X1117750Y4535750D02*
X1182000Y4600000D01*
X1584600Y4739129D02*
X1584600D01*
X1537300Y4691829D02*
X1584600Y4739129D01*
X1430000Y4930000D02*
X1737300Y5237300D01*
X1751829D01*
X1764529Y5250000D01*
X1850000D02*
X1910000Y5310000D01*
X1764529Y5250000D02*
X1850000D01*
X1430000Y4790000D02*
Y4930000D01*
X1701096Y5282347D02*
X1722347D01*
X1415702Y4981173D02*
X1642700Y5208171D01*
Y5223951D01*
X1722347Y5282347D02*
X1730000Y5290000D01*
X1642700Y5223951D02*
X1701096Y5282347D01*
X1399922Y4981173D02*
X1415702D01*
X1029762Y4611013D02*
X1399922Y4981173D01*
X1687300Y4692771D02*
Y4737300D01*
X1600000Y4500000D02*
Y4605471D01*
X1687300Y4692771D01*
X1910000Y5310000D02*
Y5531033D01*
X775000Y4792000D02*
X778000Y4795000D01*
X1150000Y4188500D02*
Y4289262D01*
X1116250Y4154750D02*
X1150000Y4188500D01*
X1029762Y4409500D02*
X1150000Y4289262D01*
X1478050Y5348050D02*
X1638050D01*
X1715000Y5425000D02*
X1800000D01*
X1638050Y5348050D02*
X1715000Y5425000D01*
X1663674Y5300000D02*
X1711723Y5348050D01*
X1813335D01*
X950000Y4820000D02*
X1478050Y5348050D01*
X1813335D02*
X1860000Y5394714D01*
Y5466499D01*
X1824250Y5502250D02*
X1860000Y5466499D01*
X1713053Y5502250D02*
X1824250D01*
X1652700Y5562603D02*
X1713053Y5502250D01*
X1650000Y5650000D02*
X1652700Y5647300D01*
Y5562603D02*
Y5647300D01*
X1881033Y5560000D02*
X1910000Y5531033D01*
X1780000Y5560000D02*
X1881033D01*
X1371326Y4731327D02*
X1371327D01*
X1283000Y4665000D02*
X1290654Y4672654D01*
X1312653D02*
X1371326Y4731327D01*
X1290654Y4672654D02*
X1312653D01*
X1371327Y4731327D02*
X1430000Y4790000D01*
X1029762Y4409500D02*
Y4611013D01*
D25*
X990000Y7698000D02*
D03*
Y1362000D02*
D03*
D26*
X1200000Y7319070D02*
D03*
X895200Y1880930D02*
D03*
D27*
X3600000Y500000D02*
D03*
Y3900000D02*
D03*
X3600000Y8500000D02*
D03*
Y5100000D02*
D03*
D28*
X3866497Y3206500D02*
D03*
Y1193500D02*
D03*
X3866497Y5793500D02*
D03*
Y7806501D02*
D03*
D29*
X400000Y400000D02*
D03*
Y8800000D02*
D03*
X4700000D02*
D03*
Y400000D02*
D03*
D30*
X2200000Y1600000D02*
D03*
X2875000Y5750000D02*
D03*
X2400000Y1400000D02*
D03*
X1130000Y5957300D02*
D03*
X3700000Y7400000D02*
D03*
Y7472700D02*
D03*
X1130000Y6030000D02*
D03*
X1575000Y2800000D02*
D03*
X1650000Y5650000D02*
D03*
X1600000Y5575000D02*
D03*
X1800000Y5425000D02*
D03*
X1837922Y5188925D02*
D03*
X4500000Y8500000D02*
D03*
Y8000000D02*
D03*
Y5000000D02*
D03*
Y4500000D02*
D03*
Y4000000D02*
D03*
Y1000000D02*
D03*
X4000000Y8500000D02*
D03*
Y8000000D02*
D03*
Y4500000D02*
D03*
Y4000000D02*
D03*
Y500000D02*
D03*
X3000000Y8500000D02*
D03*
Y4500000D02*
D03*
Y500000D02*
D03*
X2500000Y8500000D02*
D03*
Y5000000D02*
D03*
Y2000000D02*
D03*
Y500000D02*
D03*
X2000000Y8500000D02*
D03*
Y500000D02*
D03*
X1500000Y8500000D02*
D03*
Y1000000D02*
D03*
Y500000D02*
D03*
X1000000Y8500000D02*
D03*
Y8000000D02*
D03*
Y1000000D02*
D03*
Y500000D02*
D03*
X500000Y8500000D02*
D03*
Y8000000D02*
D03*
Y7500000D02*
D03*
Y7000000D02*
D03*
Y6500000D02*
D03*
Y6000000D02*
D03*
Y5000000D02*
D03*
Y4500000D02*
D03*
Y4000000D02*
D03*
Y3500000D02*
D03*
Y3000000D02*
D03*
Y2500000D02*
D03*
Y2000000D02*
D03*
Y1000000D02*
D03*
X2644269Y6084534D02*
D03*
X1142000Y3366350D02*
D03*
Y3293650D02*
D03*
X3720000Y2476354D02*
D03*
Y2403655D02*
D03*
X1860000Y2090000D02*
D03*
X1258000Y4182650D02*
D03*
X3125000Y2802300D02*
D03*
X1258000Y4255350D02*
D03*
X3125000Y2875000D02*
D03*
X1290000Y3950000D02*
D03*
X2190000Y7080000D02*
D03*
X3673024Y2316334D02*
D03*
X1142000Y2985350D02*
D03*
X3673024Y2243635D02*
D03*
X1142000Y2912650D02*
D03*
X3690000Y6670000D02*
D03*
X750000Y6668350D02*
D03*
Y6595650D02*
D03*
X3500000Y6276356D02*
D03*
Y6203656D02*
D03*
X3719784Y6197943D02*
D03*
Y6270643D02*
D03*
X3450000Y7750000D02*
D03*
X3517730Y7313223D02*
D03*
X3600000Y5800000D02*
D03*
X3525822Y3013540D02*
D03*
X3550000Y2250000D02*
D03*
X3600000Y2173167D02*
D03*
X3500000Y1400000D02*
D03*
X820500Y6381000D02*
D03*
X4200000Y3345000D02*
D03*
X3175007Y7615848D02*
D03*
X3050000Y7600000D02*
D03*
X2850000Y7572700D02*
D03*
Y7500000D02*
D03*
X1625000Y3265000D02*
D03*
X3110726Y2970873D02*
D03*
X1625000Y3392000D02*
D03*
X3125000Y3250000D02*
D03*
X2850000Y2800000D02*
D03*
Y3500000D02*
D03*
X4050550Y7480009D02*
D03*
X4150000Y5850000D02*
D03*
X4350000Y3050000D02*
D03*
X4850000D02*
D03*
X4175000Y6295000D02*
D03*
X2898852Y1628258D02*
D03*
X4315000Y1680000D02*
D03*
X4200000Y2600000D02*
D03*
X1300000Y2100000D02*
D03*
X1650000Y2700000D02*
D03*
X1600000Y3500000D02*
D03*
Y3600000D02*
D03*
Y4000000D02*
D03*
X1653705Y4203705D02*
D03*
X1250000Y4450000D02*
D03*
X1660000Y5085471D02*
D03*
X1628516Y4979555D02*
D03*
X1738949Y5005000D02*
D03*
X1200000Y5250000D02*
D03*
X1455500Y5619000D02*
D03*
X1328500Y5873000D02*
D03*
X1579500Y6248000D02*
D03*
X1452500Y6375000D02*
D03*
X1330000Y6503500D02*
D03*
X1457000Y6630500D02*
D03*
X1579500Y6756000D02*
D03*
X1451000Y6760500D02*
D03*
Y6887500D02*
D03*
X1578000Y7014500D02*
D03*
X1071500Y7137000D02*
D03*
X943000Y6760500D02*
D03*
X1071500Y6756000D02*
D03*
X1070000Y6506500D02*
D03*
X1071500Y6248000D02*
D03*
X820500Y6000000D02*
D03*
X947500Y5746000D02*
D03*
X943000Y5617500D02*
D03*
X822000Y5360500D02*
D03*
X944500Y4978000D02*
D03*
X1173237Y4652700D02*
D03*
X800000Y4550000D02*
D03*
X1070000Y4220500D02*
D03*
X822000Y4217500D02*
D03*
X944500Y3835000D02*
D03*
X1070000Y3458500D02*
D03*
X943000Y3331500D02*
D03*
X947500Y3079000D02*
D03*
X943000Y2950500D02*
D03*
X947500Y2698000D02*
D03*
X943000Y2569500D02*
D03*
X1070000Y2061500D02*
D03*
Y2315500D02*
D03*
X943000Y2188500D02*
D03*
X1600000Y2500000D02*
D03*
X1452500Y2565000D02*
D03*
X1624250Y2376750D02*
D03*
X1590000Y2100000D02*
D03*
Y5230000D02*
D03*
X1730000Y5290000D02*
D03*
X1780000Y5560000D02*
D03*
X1116250Y4154750D02*
D03*
X1600000Y4500000D02*
D03*
X1934009Y5166050D02*
D03*
X1590000Y4670000D02*
D03*
X1740000Y4700000D02*
D03*
X1881309Y4751098D02*
D03*
X1934009Y4348596D02*
D03*
X775000Y4900000D02*
D03*
X1275000Y4750000D02*
D03*
X1804983Y4430000D02*
D03*
X1116250Y4789750D02*
D03*
X1117000Y4535000D02*
D03*
Y5297000D02*
D03*
X1725000Y4589999D02*
D03*
X4075000Y2875000D02*
D03*
X775000Y4665000D02*
D03*
Y3903000D02*
D03*
Y4284000D02*
D03*
X1283000Y4538000D02*
D03*
X3000000Y2322700D02*
D03*
Y2250000D02*
D03*
X2745749Y2432625D02*
D03*
Y2359925D02*
D03*
X775000Y4030000D02*
D03*
Y4411000D02*
D03*
X1283000Y4665000D02*
D03*
X775000Y4792000D02*
D03*
X1283000Y5046000D02*
D03*
X775000Y5173000D02*
D03*
X3050000Y6897700D02*
D03*
Y6825000D02*
D03*
X1650000Y2300000D02*
D03*
X1389000Y2016000D02*
D03*
X3100000Y1676356D02*
D03*
Y1603656D02*
D03*
X1258000Y3801650D02*
D03*
Y3874350D02*
D03*
X3673024Y2723644D02*
D03*
Y2796344D02*
D03*
X750000Y3620350D02*
D03*
X3100000Y2636349D02*
D03*
X1142000Y3747350D02*
D03*
Y3674650D02*
D03*
X3100000Y2563649D02*
D03*
X3673024Y2636349D02*
D03*
Y2563649D02*
D03*
X750000Y3547650D02*
D03*
X3673024Y1603656D02*
D03*
Y1676356D02*
D03*
X1258000Y6087650D02*
D03*
Y6160350D02*
D03*
X2700000Y7422700D02*
D03*
Y7350000D02*
D03*
X750000Y5525350D02*
D03*
X3673024Y6916335D02*
D03*
Y6843635D02*
D03*
Y7163649D02*
D03*
Y7236349D02*
D03*
X1258000Y5779350D02*
D03*
Y5706650D02*
D03*
X1142000Y5579650D02*
D03*
Y5652350D02*
D03*
X1650000Y5906350D02*
D03*
Y5833650D02*
D03*
X750000D02*
D03*
Y5906350D02*
D03*
Y6214650D02*
D03*
Y6287350D02*
D03*
X1650000Y3801650D02*
D03*
Y3874350D02*
D03*
X3673024Y7003655D02*
D03*
Y7076355D02*
D03*
X3100000Y7003655D02*
D03*
Y7076355D02*
D03*
X1258000Y5325650D02*
D03*
Y5398350D02*
D03*
X1142000Y6414350D02*
D03*
Y6341650D02*
D03*
X750000Y2785650D02*
D03*
Y2858350D02*
D03*
Y3166650D02*
D03*
Y3239350D02*
D03*
Y5452650D02*
D03*
%TF.MD5,b4f045af779b7333fe4891d512ead632*%
M02*
