%TF.GenerationSoftware,Altium Limited,Altium Designer,21.5.1 (32)*%
G04 Layer_Color=8388736*
%FSLAX45Y45*%
%MOMM*%
%TF.SameCoordinates,51D5493F-A844-4614-94AE-4B196E198A34*%
%TF.FilePolarity,Negative*%
%TF.FileFunction,Soldermask,Bot*%
%TF.Part,Single*%
G01*
G75*
%TA.AperFunction,SMDPad,CuDef*%
G04:AMPARAMS|DCode=36|XSize=0.74008mm|YSize=0.74008mm|CornerRadius=0.37004mm|HoleSize=0mm|Usage=FLASHONLY|Rotation=90.000|XOffset=0mm|YOffset=0mm|HoleType=Round|Shape=RoundedRectangle|*
%AMROUNDEDRECTD36*
21,1,0.74008,0.00000,0,0,90.0*
21,1,0.00000,0.74008,0,0,90.0*
1,1,0.74008,0.00000,0.00000*
1,1,0.74008,0.00000,0.00000*
1,1,0.74008,0.00000,0.00000*
1,1,0.74008,0.00000,0.00000*
%
%ADD36ROUNDEDRECTD36*%
%TA.AperFunction,WasherPad*%
%ADD37C,3.60000*%
%TA.AperFunction,ComponentPad*%
%ADD38C,1.37000*%
%ADD39C,3.29989*%
%ADD40C,1.12006*%
%ADD41C,3.30000*%
D36*
X1009500Y2123500D02*
D03*
X882500D02*
D03*
X1009500Y2250500D02*
D03*
X882500D02*
D03*
X1009500Y2377500D02*
D03*
X882500D02*
D03*
X1009500Y2504500D02*
D03*
X882500D02*
D03*
X1009500Y2631500D02*
D03*
X882500D02*
D03*
X1009500Y2758500D02*
D03*
X882500D02*
D03*
X1009500Y2885500D02*
D03*
X882500D02*
D03*
X1009500Y3012500D02*
D03*
X882500D02*
D03*
X1009500Y3139500D02*
D03*
X882500D02*
D03*
X1009500Y3266500D02*
D03*
X882500D02*
D03*
X1009500Y3393500D02*
D03*
X882500D02*
D03*
X1009500Y3520500D02*
D03*
X882500D02*
D03*
X1009500Y3647500D02*
D03*
X882500D02*
D03*
X1009500Y3774500D02*
D03*
X882500D02*
D03*
X1009500Y3901500D02*
D03*
X882500D02*
D03*
X1009500Y4028500D02*
D03*
X882500D02*
D03*
X1009500Y4155500D02*
D03*
X882500D02*
D03*
X1009500Y4282500D02*
D03*
X882500D02*
D03*
X1009500Y4409500D02*
D03*
X882500D02*
D03*
X1009500Y4536500D02*
D03*
X882500D02*
D03*
X1009500Y4663500D02*
D03*
X882500D02*
D03*
X1009500Y4790500D02*
D03*
X882500D02*
D03*
X1009500Y4917500D02*
D03*
X882500D02*
D03*
X1009500Y5044500D02*
D03*
X882500D02*
D03*
X1009500Y5171500D02*
D03*
X882500D02*
D03*
X1009500Y5298500D02*
D03*
X882500D02*
D03*
X1009500Y5425500D02*
D03*
X882500D02*
D03*
X1009500Y5552500D02*
D03*
X882500D02*
D03*
X1009500Y5679500D02*
D03*
X882500D02*
D03*
X1009500Y5806500D02*
D03*
X882500D02*
D03*
X1009500Y5933500D02*
D03*
X882500D02*
D03*
X1009500Y6060500D02*
D03*
X882500D02*
D03*
X1009500Y6187500D02*
D03*
X882500D02*
D03*
X1009500Y6314500D02*
D03*
X882500D02*
D03*
X1009500Y6441500D02*
D03*
X882500D02*
D03*
X1009500Y6568500D02*
D03*
X882500D02*
D03*
X1009500Y6695500D02*
D03*
X882500D02*
D03*
X1009500Y6822500D02*
D03*
X882500D02*
D03*
X1009500Y6949500D02*
D03*
X882500D02*
D03*
X1009500Y7076500D02*
D03*
X882500D02*
D03*
X1390500Y2123500D02*
D03*
Y2250500D02*
D03*
Y2377500D02*
D03*
Y2504500D02*
D03*
Y2631500D02*
D03*
Y2758500D02*
D03*
Y2885500D02*
D03*
Y3012500D02*
D03*
Y3139500D02*
D03*
Y3266500D02*
D03*
Y3393500D02*
D03*
Y3520500D02*
D03*
Y3647500D02*
D03*
Y3774500D02*
D03*
Y3901500D02*
D03*
Y4028500D02*
D03*
Y4155500D02*
D03*
Y4282500D02*
D03*
Y4409500D02*
D03*
Y4536500D02*
D03*
Y4663500D02*
D03*
Y4790500D02*
D03*
Y4917500D02*
D03*
Y5044500D02*
D03*
Y5171500D02*
D03*
Y5298500D02*
D03*
Y5425500D02*
D03*
Y5552500D02*
D03*
Y5679500D02*
D03*
Y5806500D02*
D03*
Y5933500D02*
D03*
Y6060500D02*
D03*
Y6187500D02*
D03*
Y6314500D02*
D03*
Y6441500D02*
D03*
Y6568500D02*
D03*
Y6695500D02*
D03*
Y6822500D02*
D03*
Y6949500D02*
D03*
Y7076500D02*
D03*
X1517500Y2123500D02*
D03*
Y2250500D02*
D03*
Y2377500D02*
D03*
Y2504500D02*
D03*
Y2631500D02*
D03*
Y2758500D02*
D03*
Y2885500D02*
D03*
Y3012500D02*
D03*
Y3139500D02*
D03*
Y3266500D02*
D03*
Y3393500D02*
D03*
Y3520500D02*
D03*
Y3647500D02*
D03*
Y3774500D02*
D03*
Y3901500D02*
D03*
Y4028500D02*
D03*
Y4155500D02*
D03*
Y4282500D02*
D03*
Y4409500D02*
D03*
Y4536500D02*
D03*
Y4663500D02*
D03*
Y4790500D02*
D03*
Y4917500D02*
D03*
Y5044500D02*
D03*
Y5171500D02*
D03*
Y5298500D02*
D03*
Y5425500D02*
D03*
Y5552500D02*
D03*
Y5679500D02*
D03*
Y5806500D02*
D03*
Y5933500D02*
D03*
Y6060500D02*
D03*
Y6187500D02*
D03*
Y6314500D02*
D03*
Y6441500D02*
D03*
Y6568500D02*
D03*
Y6695500D02*
D03*
Y6822500D02*
D03*
Y6949500D02*
D03*
Y7076500D02*
D03*
D37*
X990000Y7698000D02*
D03*
Y1362000D02*
D03*
D38*
X1200000Y7319070D02*
D03*
X895200Y1880930D02*
D03*
D39*
X3600000Y500000D02*
D03*
Y3900000D02*
D03*
X3600000Y8500000D02*
D03*
Y5100000D02*
D03*
D40*
X3866497Y3206500D02*
D03*
Y1193500D02*
D03*
X3866497Y5793500D02*
D03*
Y7806501D02*
D03*
D41*
X400000Y400000D02*
D03*
Y8800000D02*
D03*
X4700000D02*
D03*
Y400000D02*
D03*
%TF.MD5,43f54cf7021f844fc6cda687906b757e*%
M02*
