%TF.GenerationSoftware,Altium Limited,Altium Designer,21.5.1 (32)*%
G04 Layer_Color=32896*
%FSLAX45Y45*%
%MOMM*%
%TF.SameCoordinates,51D5493F-A844-4614-94AE-4B196E198A34*%
%TF.FilePolarity,Positive*%
%TF.FileFunction,Legend,Bot*%
%TF.Part,Single*%
G01*
G75*
%TA.AperFunction,NonConductor*%
%ADD33C,0.19990*%
%ADD34C,0.25400*%
%ADD35C,0.12700*%
G36*
X472921Y640392D02*
X518418Y621547D01*
X559363Y594188D01*
X594185Y559366D01*
X621544Y518421D01*
X640389Y472924D01*
X649997Y424625D01*
Y400003D01*
X649997D01*
X560024Y399999D01*
X559166Y415654D01*
X552917Y446344D01*
X540844Y475243D01*
X523404Y501258D01*
X501258Y523404D01*
X475243Y540844D01*
X446344Y552916D01*
X415654Y559166D01*
X399999Y560024D01*
X400000Y560024D01*
Y650000D01*
X424622D01*
X472921Y640392D01*
D02*
G37*
G36*
X240834Y384345D02*
X247083Y353656D01*
X259156Y324757D01*
X276596Y298742D01*
X298742Y276596D01*
X324757Y259156D01*
X353656Y247083D01*
X384346Y240834D01*
X400000Y239976D01*
X400000D01*
X400000Y150000D01*
X375377D01*
X327079Y159608D01*
X281582Y178453D01*
X240637Y205812D01*
X205815Y240634D01*
X178456Y281579D01*
X159611Y327076D01*
X150003Y375374D01*
Y399997D01*
Y399997D01*
X239976Y400000D01*
X240834Y384345D01*
D02*
G37*
G36*
X4772921Y640392D02*
X4818418Y621547D01*
X4859363Y594188D01*
X4894185Y559366D01*
X4921544Y518421D01*
X4940389Y472924D01*
X4949997Y424625D01*
Y400003D01*
X4949997D01*
X4860024Y399999D01*
X4859166Y415654D01*
X4852917Y446344D01*
X4840844Y475243D01*
X4823404Y501258D01*
X4801258Y523404D01*
X4775243Y540844D01*
X4746344Y552916D01*
X4715654Y559166D01*
X4699999Y560024D01*
X4700000Y560024D01*
Y650000D01*
X4724623D01*
X4772921Y640392D01*
D02*
G37*
G36*
X4540834Y384345D02*
X4547083Y353656D01*
X4559156Y324757D01*
X4576596Y298742D01*
X4598742Y276596D01*
X4624757Y259156D01*
X4653656Y247083D01*
X4684346Y240834D01*
X4700001Y239976D01*
X4700000D01*
X4700000Y150000D01*
X4675377D01*
X4627079Y159608D01*
X4581582Y178453D01*
X4540637Y205812D01*
X4505815Y240634D01*
X4478456Y281579D01*
X4459611Y327076D01*
X4450003Y375374D01*
Y399997D01*
Y399997D01*
X4539976Y400000D01*
X4540834Y384345D01*
D02*
G37*
G36*
X472921Y9040392D02*
X518418Y9021547D01*
X559363Y8994188D01*
X594185Y8959366D01*
X621544Y8918421D01*
X640389Y8872924D01*
X649997Y8824625D01*
Y8800003D01*
X649997D01*
X560024Y8799999D01*
X559166Y8815654D01*
X552917Y8846344D01*
X540844Y8875243D01*
X523404Y8901258D01*
X501258Y8923404D01*
X475243Y8940844D01*
X446344Y8952916D01*
X415654Y8959166D01*
X399999Y8960024D01*
X400000Y8960024D01*
Y9050000D01*
X424622D01*
X472921Y9040392D01*
D02*
G37*
G36*
X240834Y8784345D02*
X247083Y8753656D01*
X259156Y8724757D01*
X276596Y8698742D01*
X298742Y8676596D01*
X324757Y8659156D01*
X353656Y8647083D01*
X384346Y8640834D01*
X400000Y8639976D01*
X400000D01*
X400000Y8550000D01*
X375377D01*
X327079Y8559607D01*
X281582Y8578453D01*
X240637Y8605812D01*
X205815Y8640633D01*
X178456Y8681579D01*
X159611Y8727076D01*
X150003Y8775374D01*
Y8799997D01*
Y8799997D01*
X239976Y8800000D01*
X240834Y8784345D01*
D02*
G37*
G36*
X4772921Y9040392D02*
X4818418Y9021547D01*
X4859363Y8994188D01*
X4894185Y8959366D01*
X4921544Y8918421D01*
X4940389Y8872924D01*
X4949997Y8824625D01*
Y8800003D01*
X4949997D01*
X4860024Y8799999D01*
X4859166Y8815654D01*
X4852917Y8846344D01*
X4840844Y8875243D01*
X4823404Y8901258D01*
X4801258Y8923404D01*
X4775243Y8940844D01*
X4746344Y8952916D01*
X4715654Y8959166D01*
X4699999Y8960024D01*
X4700000Y8960024D01*
Y9050000D01*
X4724623D01*
X4772921Y9040392D01*
D02*
G37*
G36*
X4540834Y8784345D02*
X4547083Y8753656D01*
X4559156Y8724757D01*
X4576596Y8698742D01*
X4598742Y8676596D01*
X4624757Y8659156D01*
X4653656Y8647083D01*
X4684346Y8640834D01*
X4700001Y8639976D01*
X4700000D01*
X4700000Y8550000D01*
X4675377D01*
X4627079Y8559607D01*
X4581582Y8578453D01*
X4540637Y8605812D01*
X4505815Y8640633D01*
X4478456Y8681579D01*
X4459611Y8727076D01*
X4450003Y8775374D01*
Y8799997D01*
Y8799997D01*
X4539976Y8800000D01*
X4540834Y8784345D01*
D02*
G37*
D33*
X1529997Y7459989D02*
G03*
X1529997Y7459989I-10008J0D01*
G01*
D34*
X650000Y400000D02*
G03*
X650000Y400000I-250000J0D01*
G01*
Y8800000D02*
G03*
X650000Y8800000I-250000J0D01*
G01*
X4950000D02*
G03*
X4950000Y8800000I-250000J0D01*
G01*
Y400000D02*
G03*
X4950000Y400000I-250000J0D01*
G01*
X1836453Y7736791D02*
X1887237D01*
X1861845D01*
Y7609832D01*
X1887237Y7584440D01*
X1912628D01*
X1938020Y7609832D01*
X1684102Y7584440D02*
X1785669D01*
X1684102Y7686007D01*
Y7711399D01*
X1709494Y7736791D01*
X1760277D01*
X1785669Y7711399D01*
D35*
X1275997Y7388996D02*
X1934009D01*
X465991D02*
X1124003D01*
X465991Y1811004D02*
X1934009D01*
Y7388996D01*
X1124003Y7477998D02*
X1275997D01*
X465991Y1811004D02*
Y7388996D01*
X1275997D02*
Y7477998D01*
X1124003Y7388996D02*
Y7477998D01*
%TF.MD5,7e5167d1f0f556d33ae5cfdfe2cc25d2*%
M02*
