%TF.GenerationSoftware,Altium Limited,Altium Designer,21.5.1 (32)*%
G04 Layer_Physical_Order=4*
G04 Layer_Color=9720587*
%FSLAX45Y45*%
%MOMM*%
%TF.SameCoordinates,51D5493F-A844-4614-94AE-4B196E198A34*%
%TF.FilePolarity,Positive*%
%TF.FileFunction,Copper,L4,Bot,Signal*%
%TF.Part,Single*%
G01*
G75*
%TA.AperFunction,Conductor*%
%ADD20C,0.30000*%
%ADD21C,1.00000*%
%ADD22C,0.20000*%
%ADD23C,0.60000*%
%TA.AperFunction,WasherPad*%
%ADD25C,3.50000*%
%TA.AperFunction,ComponentPad*%
%ADD26C,1.27000*%
%ADD27C,3.19989*%
%ADD28C,1.02006*%
%ADD29C,3.20000*%
%TA.AperFunction,ViaPad*%
%ADD30C,0.60000*%
%TA.AperFunction,SMDPad,CuDef*%
G04:AMPARAMS|DCode=32|XSize=0.64008mm|YSize=0.64008mm|CornerRadius=0.32004mm|HoleSize=0mm|Usage=FLASHONLY|Rotation=90.000|XOffset=0mm|YOffset=0mm|HoleType=Round|Shape=RoundedRectangle|*
%AMROUNDEDRECTD32*
21,1,0.64008,0.00000,0,0,90.0*
21,1,0.00000,0.64008,0,0,90.0*
1,1,0.64008,0.00000,0.00000*
1,1,0.64008,0.00000,0.00000*
1,1,0.64008,0.00000,0.00000*
1,1,0.64008,0.00000,0.00000*
%
%ADD32ROUNDEDRECTD32*%
G36*
X5079609Y20391D02*
X20391D01*
Y9179609D01*
X5079609D01*
Y20391D01*
D02*
G37*
%LPC*%
G36*
X4700000Y9051209D02*
X4650991Y9046382D01*
X4603866Y9032087D01*
X4560435Y9008873D01*
X4522368Y8977632D01*
X4491127Y8939565D01*
X4467913Y8896134D01*
X4453617Y8849008D01*
X4448790Y8800000D01*
X4453617Y8750991D01*
X4467913Y8703866D01*
X4491127Y8660435D01*
X4522368Y8622368D01*
X4560435Y8591127D01*
X4603866Y8567913D01*
X4650991Y8553617D01*
X4700000Y8548790D01*
X4749009Y8553617D01*
X4796134Y8567913D01*
X4839565Y8591127D01*
X4877632Y8622368D01*
X4908873Y8660435D01*
X4932087Y8703866D01*
X4946383Y8750991D01*
X4951210Y8800000D01*
X4946383Y8849008D01*
X4932087Y8896134D01*
X4908873Y8939565D01*
X4877632Y8977632D01*
X4839565Y9008873D01*
X4796134Y9032087D01*
X4749009Y9046382D01*
X4700000Y9051209D01*
D02*
G37*
G36*
X400000D02*
X350991Y9046382D01*
X303866Y9032087D01*
X260435Y9008873D01*
X222368Y8977632D01*
X191127Y8939565D01*
X167913Y8896134D01*
X153617Y8849008D01*
X148790Y8800000D01*
X153617Y8750991D01*
X167913Y8703866D01*
X191127Y8660435D01*
X222368Y8622368D01*
X260435Y8591127D01*
X303866Y8567913D01*
X350991Y8553617D01*
X400000Y8548790D01*
X449008Y8553617D01*
X496134Y8567913D01*
X539565Y8591127D01*
X577632Y8622368D01*
X608873Y8660435D01*
X632087Y8703866D01*
X646383Y8750991D01*
X651210Y8800000D01*
X646383Y8849008D01*
X632087Y8896134D01*
X608873Y8939565D01*
X577632Y8977632D01*
X539565Y9008873D01*
X496134Y9032087D01*
X449008Y9046382D01*
X400000Y9051209D01*
D02*
G37*
G36*
X3618220Y8684995D02*
X3581779D01*
X3546039Y8677885D01*
X3512372Y8663940D01*
X3482073Y8643695D01*
X3456305Y8617927D01*
X3436060Y8587628D01*
X3422115Y8553961D01*
X3415005Y8518220D01*
Y8481780D01*
X3422115Y8446039D01*
X3436060Y8412372D01*
X3456305Y8382073D01*
X3482073Y8356305D01*
X3512372Y8336060D01*
X3546039Y8322115D01*
X3581779Y8315005D01*
X3618220D01*
X3653961Y8322115D01*
X3687628Y8336060D01*
X3717927Y8356305D01*
X3743695Y8382073D01*
X3763940Y8412372D01*
X3777885Y8446039D01*
X3784994Y8481780D01*
Y8518220D01*
X3777885Y8553961D01*
X3763940Y8587628D01*
X3743695Y8617927D01*
X3717927Y8643695D01*
X3687628Y8663940D01*
X3653961Y8677885D01*
X3618220Y8684995D01*
D02*
G37*
G36*
X3876503Y7882504D02*
X3856491D01*
X3837160Y7877324D01*
X3819830Y7867318D01*
X3805679Y7853167D01*
X3795673Y7835837D01*
X3790494Y7816507D01*
Y7796494D01*
X3795673Y7777164D01*
X3805679Y7759834D01*
X3819830Y7745683D01*
X3814450Y7714148D01*
X3809509Y7708243D01*
X3130001D01*
X3130000Y7708243D01*
X3119192Y7706093D01*
X3110029Y7699971D01*
X3110029Y7699970D01*
X3052759Y7642700D01*
X3041506D01*
X3025813Y7636199D01*
X3013801Y7624187D01*
X3007300Y7608494D01*
Y7591507D01*
X3013801Y7575813D01*
X3025813Y7563801D01*
X3041506Y7557300D01*
X3058494D01*
X3074187Y7563801D01*
X3086199Y7575813D01*
X3092700Y7591506D01*
X3099028Y7596782D01*
X3106763Y7600798D01*
X3138808Y7591660D01*
X3150820Y7579649D01*
X3166514Y7573148D01*
X3183501D01*
X3199195Y7579649D01*
X3199539Y7579993D01*
X3227792Y7580029D01*
X3236955Y7573907D01*
X3247763Y7571757D01*
X3247764Y7571757D01*
X3571671D01*
X3586522Y7541757D01*
X3576217Y7528243D01*
X3353493D01*
X3353492Y7528243D01*
X3342683Y7526093D01*
X3333521Y7519971D01*
X3041793Y7228243D01*
X1886303D01*
X1886302Y7228243D01*
X1875494Y7226093D01*
X1866331Y7219971D01*
X1866331Y7219970D01*
X1780029Y7133669D01*
X1773907Y7124507D01*
X1771757Y7113698D01*
X1771757Y7113697D01*
Y5696866D01*
X1722700Y5647809D01*
X1692700Y5658494D01*
X1686199Y5674187D01*
X1674187Y5686199D01*
X1658494Y5692700D01*
X1641506D01*
X1625813Y5686199D01*
X1613801Y5674187D01*
X1607300Y5658493D01*
Y5647700D01*
X1607300Y5641506D01*
X1591506Y5617700D01*
X1585688Y5615290D01*
X1575813Y5611199D01*
X1572601Y5607988D01*
X1566596Y5605318D01*
X1558015Y5607521D01*
X1554999Y5614846D01*
X1557652Y5646107D01*
X1561587Y5650042D01*
X1567575Y5664500D01*
X1517500D01*
X1509892D01*
X1525775Y5648617D01*
X1521507Y5647901D01*
X1517314Y5646886D01*
X1513197Y5645573D01*
X1509156Y5643963D01*
X1505190Y5642053D01*
X1501300Y5639845D01*
X1497485Y5637339D01*
X1493746Y5634535D01*
X1492569Y5633538D01*
X1495750Y5632220D01*
Y5599780D01*
X1494649Y5599323D01*
X1500050Y5594826D01*
X1503776Y5592198D01*
X1507485Y5589901D01*
X1511178Y5587935D01*
X1514853Y5586301D01*
X1518511Y5584997D01*
X1522151Y5584025D01*
X1525775Y5583383D01*
X1486617Y5544225D01*
X1485864Y5548815D01*
X1484831Y5553281D01*
X1483517Y5557623D01*
X1481924Y5561843D01*
X1480049Y5565939D01*
X1477894Y5569911D01*
X1475459Y5573760D01*
X1472744Y5577485D01*
X1471954Y5578435D01*
X1470220Y5574249D01*
X1437779D01*
X1436462Y5577431D01*
X1435464Y5576254D01*
X1432660Y5572515D01*
X1430154Y5568700D01*
X1427947Y5564810D01*
X1426037Y5560844D01*
X1424426Y5556803D01*
X1423114Y5552686D01*
X1422099Y5548493D01*
X1421383Y5544225D01*
X1405500Y5560108D01*
Y5552500D01*
Y5502425D01*
X1419958Y5508413D01*
X1434587Y5523042D01*
X1437779Y5530750D01*
X1470220D01*
X1473413Y5523042D01*
X1488042Y5508413D01*
X1502500Y5502425D01*
Y5552500D01*
X1532500D01*
Y5502425D01*
X1546958Y5508413D01*
X1561587Y5523042D01*
X1591507Y5532300D01*
X1608494D01*
X1624188Y5538801D01*
X1636199Y5550813D01*
X1638445Y5556234D01*
X1668445Y5550267D01*
Y5519484D01*
X1601953Y5452993D01*
X1553228D01*
X1542823Y5463398D01*
X1526392Y5470204D01*
X1508608D01*
X1492177Y5463398D01*
X1479602Y5450823D01*
X1472796Y5434392D01*
Y5416608D01*
X1479602Y5400177D01*
X1492177Y5387602D01*
X1508608Y5380796D01*
X1526392D01*
X1542823Y5387602D01*
X1551728Y5396507D01*
X1613651D01*
X1613652Y5396507D01*
X1624460Y5398657D01*
X1633623Y5404779D01*
X1716658Y5487814D01*
X1716658Y5487815D01*
X1722781Y5496978D01*
X1724931Y5507786D01*
Y5512257D01*
X1754930Y5524683D01*
X1755813Y5523801D01*
X1771506Y5517300D01*
X1788494D01*
X1804187Y5523801D01*
X1816199Y5535813D01*
X1822700Y5551507D01*
Y5568494D01*
X1816199Y5584187D01*
X1804187Y5596199D01*
X1796559Y5599359D01*
X1787793Y5623306D01*
X1787474Y5632700D01*
X1819970Y5665196D01*
X1819971Y5665197D01*
X1826093Y5674360D01*
X1828243Y5685168D01*
X1828243Y5685169D01*
Y7102000D01*
X1898000Y7171758D01*
X2176132D01*
X2179086Y7141758D01*
X2165535Y7139062D01*
X2144796Y7125204D01*
X1929795Y6910203D01*
X1915937Y6889463D01*
X1911071Y6864999D01*
Y6650124D01*
X1899941Y6633467D01*
X1895074Y6609003D01*
Y5385152D01*
X1899941Y5360688D01*
X1913799Y5339948D01*
X1986072Y5267675D01*
Y5216800D01*
X1958196Y5202249D01*
X1942503Y5208750D01*
X1925516D01*
X1909822Y5202249D01*
X1908973Y5201401D01*
X1906981Y5201121D01*
X1875703Y5209294D01*
X1874121Y5213113D01*
X1862110Y5225124D01*
X1846416Y5231625D01*
X1829429D01*
X1813735Y5225124D01*
X1801723Y5213113D01*
X1795222Y5197419D01*
Y5180432D01*
X1801723Y5164738D01*
X1813735Y5152726D01*
X1829429Y5146225D01*
X1846416D01*
X1862110Y5152726D01*
X1862958Y5153575D01*
X1864950Y5153855D01*
X1896228Y5145682D01*
X1897810Y5141863D01*
X1909822Y5129851D01*
X1925516Y5123350D01*
X1942503D01*
X1958196Y5129851D01*
X1986072Y5115300D01*
Y4894386D01*
X1956072Y4891431D01*
X1955392Y4894848D01*
X1950375Y4902357D01*
X1677751Y5174981D01*
X1670243Y5179998D01*
X1661385Y5181760D01*
X1644573D01*
X1637342Y5191225D01*
X1628663Y5211760D01*
X1632700Y5221506D01*
Y5238493D01*
X1626199Y5254187D01*
X1614188Y5266199D01*
X1598494Y5272700D01*
X1585241D01*
X1562204Y5295737D01*
Y5307392D01*
X1555398Y5323823D01*
X1542823Y5336398D01*
X1526392Y5343204D01*
X1508608D01*
X1492177Y5336398D01*
X1479602Y5323823D01*
X1472796Y5307392D01*
Y5289608D01*
X1479602Y5273177D01*
X1492177Y5260602D01*
X1494606Y5259596D01*
X1499251Y5251220D01*
X1488042Y5215586D01*
X1473413Y5200958D01*
X1470220Y5193249D01*
X1437779D01*
X1434587Y5200958D01*
X1419958Y5215587D01*
X1405500Y5221575D01*
Y5171500D01*
X1375500D01*
Y5179108D01*
X1359617Y5163225D01*
X1358919Y5167332D01*
X1357914Y5171388D01*
X1356602Y5175392D01*
X1354982Y5179344D01*
X1353055Y5183245D01*
X1350821Y5187095D01*
X1348280Y5190892D01*
X1345431Y5194638D01*
X1344329Y5195927D01*
X1340465Y5186598D01*
X1322146Y5178736D01*
X1308496Y5176141D01*
X1296771Y5187866D01*
X1289263Y5192883D01*
X1280406Y5194645D01*
X1048300D01*
X1047398Y5196823D01*
X1034823Y5209398D01*
X1018392Y5216204D01*
X1000608D01*
X984177Y5209398D01*
X971602Y5196823D01*
X964796Y5180392D01*
Y5162608D01*
X971602Y5146177D01*
X984177Y5133602D01*
X1000608Y5126796D01*
X1018392D01*
X1034823Y5133602D01*
X1047398Y5146177D01*
X1048300Y5148355D01*
X1270819D01*
X1302758Y5116416D01*
X1295107Y5097592D01*
X1288047Y5088700D01*
X1274506D01*
X1258813Y5082199D01*
X1246801Y5070187D01*
X1240300Y5054494D01*
Y5037507D01*
X1242863Y5031318D01*
X1244642Y5015085D01*
X1238634Y4996366D01*
X1182913Y4940645D01*
X1048300D01*
X1047398Y4942823D01*
X1034823Y4955398D01*
X1018392Y4962204D01*
X1000608D01*
X984177Y4955398D01*
X971602Y4942823D01*
X964796Y4926392D01*
Y4908608D01*
X971602Y4892177D01*
X984177Y4879602D01*
X1000608Y4872796D01*
X1018392D01*
X1034823Y4879602D01*
X1047398Y4892177D01*
X1048300Y4894355D01*
X1192500D01*
X1201357Y4896117D01*
X1208866Y4901134D01*
X1264587Y4956855D01*
X1327437D01*
X1345988Y4926855D01*
X1345796Y4926392D01*
Y4908608D01*
X1346698Y4906430D01*
X1258634Y4818366D01*
X1253617Y4810857D01*
X1251855Y4802000D01*
Y4786631D01*
X1250813Y4786199D01*
X1238801Y4774187D01*
X1232300Y4758493D01*
Y4741506D01*
X1238801Y4725812D01*
X1241515Y4723099D01*
X1250478Y4711751D01*
X1246801Y4689188D01*
X1240300Y4673494D01*
Y4656507D01*
X1246801Y4640813D01*
X1258813Y4628801D01*
X1274506Y4622300D01*
X1291493D01*
X1307187Y4628801D01*
X1319199Y4640813D01*
X1319320Y4641105D01*
X1351389D01*
X1352602Y4638177D01*
X1365177Y4625602D01*
X1381608Y4618796D01*
X1399392D01*
X1415823Y4625602D01*
X1428398Y4638177D01*
X1435204Y4654608D01*
Y4672392D01*
X1428398Y4688823D01*
X1415823Y4701398D01*
X1399392Y4708204D01*
X1381608D01*
X1365177Y4701398D01*
X1357394Y4693615D01*
X1327239Y4694020D01*
X1324294Y4694623D01*
X1309095Y4712902D01*
X1311199Y4725812D01*
X1317700Y4741506D01*
Y4751968D01*
X1344478Y4760430D01*
X1346808Y4760648D01*
X1361042Y4746413D01*
X1375500Y4740425D01*
Y4790500D01*
X1390500D01*
Y4805500D01*
X1440575D01*
X1434587Y4819958D01*
X1419958Y4834587D01*
X1418062Y4835372D01*
X1404428Y4869599D01*
X1404607Y4870946D01*
X1407717Y4876244D01*
X1415823Y4879602D01*
X1428398Y4892177D01*
X1435204Y4908608D01*
Y4926392D01*
X1446159Y4927439D01*
X1472796Y4908607D01*
X1479602Y4892177D01*
X1492177Y4879602D01*
X1508608Y4872796D01*
X1526392D01*
X1542823Y4879602D01*
X1555398Y4892177D01*
X1556300Y4894355D01*
X1651449D01*
X1660306Y4896117D01*
X1667815Y4901134D01*
X1729412Y4962732D01*
X1730455Y4962300D01*
X1747442D01*
X1763136Y4968801D01*
X1769589Y4975253D01*
X1792340Y4980372D01*
X1807279Y4979990D01*
X1910864Y4876404D01*
Y4817546D01*
X1889802Y4793798D01*
X1872816D01*
X1857122Y4787297D01*
X1851564Y4781740D01*
X1848511Y4780274D01*
X1834800Y4777036D01*
X1814772Y4780437D01*
X1788343Y4806866D01*
X1780834Y4811883D01*
X1771977Y4813645D01*
X1556300D01*
X1555398Y4815823D01*
X1542823Y4828398D01*
X1526392Y4835204D01*
X1508608D01*
X1492177Y4828398D01*
X1479602Y4815823D01*
X1472796Y4799392D01*
Y4781608D01*
X1479602Y4765177D01*
X1492177Y4752602D01*
X1508608Y4745796D01*
X1526392D01*
X1542823Y4752602D01*
X1555398Y4765177D01*
X1556300Y4767355D01*
X1712636D01*
X1718604Y4737355D01*
X1715813Y4736199D01*
X1703801Y4724187D01*
X1697300Y4708494D01*
Y4691506D01*
X1697732Y4690464D01*
X1646134Y4638866D01*
X1641117Y4631357D01*
X1639355Y4622500D01*
Y4560228D01*
X1609355Y4542343D01*
X1608494Y4542700D01*
X1591507D01*
X1562989Y4562572D01*
X1561587Y4565958D01*
X1546958Y4580587D01*
X1539249Y4583780D01*
Y4616220D01*
X1546958Y4619413D01*
X1561587Y4634042D01*
X1567575Y4648500D01*
X1546534D01*
X1544988Y4648060D01*
X1543704Y4647513D01*
X1545189D01*
X1542778Y4644116D01*
X1540621Y4640538D01*
X1538718Y4636778D01*
X1537068Y4632839D01*
X1535672Y4628718D01*
X1534530Y4624416D01*
X1533642Y4619934D01*
X1533007Y4615271D01*
X1532627Y4610427D01*
X1532500Y4605402D01*
X1502500D01*
X1502373Y4610427D01*
X1501992Y4615271D01*
X1501358Y4619934D01*
X1500470Y4624416D01*
X1499327Y4628718D01*
X1497932Y4632839D01*
X1496282Y4636778D01*
X1494379Y4640538D01*
X1492222Y4644116D01*
X1489811Y4647513D01*
X1534323D01*
X1534304Y4648500D01*
X1517500D01*
X1467425D01*
X1473413Y4634042D01*
X1488042Y4619413D01*
X1495750Y4616220D01*
Y4583780D01*
X1488042Y4580587D01*
X1473413Y4565958D01*
X1467425Y4551500D01*
X1517500D01*
Y4521500D01*
X1467425D01*
X1473413Y4507042D01*
X1488042Y4492413D01*
X1507155Y4484496D01*
X1503853Y4455864D01*
X1502098Y4451508D01*
X1492177Y4447398D01*
X1479602Y4434823D01*
X1472796Y4418392D01*
Y4400608D01*
X1460369Y4392887D01*
X1442504Y4414430D01*
Y4419844D01*
X1434587Y4438958D01*
X1419958Y4453587D01*
X1405500Y4459575D01*
Y4409500D01*
X1390500D01*
Y4394500D01*
X1374514D01*
Y4381811D01*
X1371116Y4384222D01*
X1367538Y4386379D01*
X1363778Y4388282D01*
X1359838Y4389932D01*
X1355718Y4391328D01*
X1351416Y4392470D01*
X1346934Y4393358D01*
X1342271Y4393992D01*
X1340580Y4394125D01*
X1342144Y4390349D01*
X1328885Y4364239D01*
X1324570Y4360349D01*
X1272383D01*
X1206866Y4425866D01*
X1199357Y4430883D01*
X1190500Y4432645D01*
X1048300D01*
X1047398Y4434823D01*
X1034823Y4447398D01*
X1018392Y4454204D01*
X1000608D01*
X984177Y4447398D01*
X971602Y4434823D01*
X964796Y4418392D01*
Y4400608D01*
X971602Y4384177D01*
X984177Y4371602D01*
X1000608Y4364796D01*
X1018392D01*
X1034823Y4371602D01*
X1047398Y4384177D01*
X1048300Y4386355D01*
X1180913D01*
X1241502Y4325766D01*
X1239993Y4304220D01*
X1235327Y4292176D01*
X1233813Y4291549D01*
X1221801Y4279537D01*
X1215300Y4263843D01*
Y4246856D01*
X1221801Y4231162D01*
X1233665Y4219000D01*
X1221801Y4206837D01*
X1215300Y4191144D01*
Y4174156D01*
X1221801Y4158463D01*
X1233813Y4146451D01*
X1241794Y4143145D01*
X1235827Y4113145D01*
X1180000D01*
X1174806Y4112112D01*
X1165876Y4119482D01*
X1154869Y4136405D01*
X1158950Y4146256D01*
Y4163243D01*
X1152449Y4178937D01*
X1140437Y4190949D01*
X1124743Y4197450D01*
X1107756D01*
X1092062Y4190949D01*
X1080051Y4178937D01*
X1079619Y4177895D01*
X1048611D01*
X1047398Y4180823D01*
X1034823Y4193398D01*
X1018392Y4200204D01*
X1000608D01*
X984177Y4193398D01*
X971602Y4180823D01*
X964796Y4164392D01*
Y4146608D01*
X971602Y4130177D01*
X984177Y4117602D01*
X1000608Y4110796D01*
X1018392D01*
X1034823Y4117602D01*
X1047398Y4130177D01*
X1047990Y4131605D01*
X1079619D01*
X1080051Y4130562D01*
X1092062Y4118551D01*
X1107756Y4112050D01*
X1124743D01*
X1128412Y4113569D01*
X1145405Y4088137D01*
X1108163Y4050895D01*
X1048611D01*
X1047398Y4053823D01*
X1034823Y4066398D01*
X1018392Y4073204D01*
X1000608D01*
X984177Y4066398D01*
X971602Y4053823D01*
X964796Y4037392D01*
Y4019608D01*
X971602Y4003177D01*
X984177Y3990602D01*
X1000608Y3983796D01*
X1018392D01*
X1034823Y3990602D01*
X1047398Y4003177D01*
X1047990Y4004605D01*
X1113229D01*
X1117000Y4003855D01*
X1125857Y4005617D01*
X1133366Y4010634D01*
X1189587Y4066855D01*
X1317627D01*
X1335027Y4043500D01*
X1390500D01*
Y4028500D01*
X1405500D01*
Y3978425D01*
X1419958Y3984413D01*
X1434587Y3999042D01*
X1437779Y4006750D01*
X1470220D01*
X1473413Y3999042D01*
X1488042Y3984413D01*
X1502500Y3978425D01*
Y4028500D01*
X1517500D01*
Y4043500D01*
X1572973D01*
X1590373Y4066855D01*
X1640000D01*
X1648857Y4068617D01*
X1656365Y4073634D01*
X1881262Y4298531D01*
X1909822Y4312397D01*
X1925516Y4305896D01*
X1942503D01*
X1958196Y4312397D01*
X1986072Y4297846D01*
Y3301480D01*
X1589920Y2905329D01*
X1555398Y2910823D01*
X1542823Y2923398D01*
X1526392Y2930204D01*
X1508608D01*
X1492177Y2923398D01*
X1479602Y2910823D01*
X1472796Y2894392D01*
Y2876608D01*
X1479602Y2860177D01*
X1492177Y2847602D01*
X1494636Y2846583D01*
X1498722Y2842341D01*
X1505618Y2815217D01*
X1505263Y2812181D01*
X1487482Y2794400D01*
X1482051Y2786272D01*
X1479602Y2783823D01*
X1478276Y2780623D01*
X1478044Y2780276D01*
X1477963Y2779866D01*
X1472796Y2767392D01*
Y2749608D01*
X1479602Y2733177D01*
X1492177Y2720602D01*
X1508608Y2713796D01*
X1526392D01*
X1542823Y2720602D01*
X1555398Y2733177D01*
X1557998Y2739453D01*
X1575000Y2736072D01*
X1599464Y2740938D01*
X1620204Y2754796D01*
X2095204Y3229796D01*
X2109062Y3250536D01*
X2113928Y3275000D01*
Y5294155D01*
X2109062Y5318619D01*
X2095204Y5339359D01*
X2022931Y5411632D01*
Y6583877D01*
X2034061Y6600534D01*
X2038927Y6624999D01*
Y6838519D01*
X2235204Y7034796D01*
X2249062Y7055536D01*
X2253928Y7080000D01*
X2249062Y7104464D01*
X2235204Y7125204D01*
X2214464Y7139062D01*
X2200914Y7141758D01*
X2203868Y7171758D01*
X3053491D01*
X3053492Y7171757D01*
X3064300Y7173907D01*
X3073463Y7180030D01*
X3365190Y7471757D01*
X3599999D01*
X3600000Y7471757D01*
X3610808Y7473907D01*
X3619971Y7480029D01*
X3629584Y7489642D01*
X3639403Y7486649D01*
X3657300Y7474932D01*
Y7464206D01*
X3663801Y7448512D01*
X3675665Y7436350D01*
X3663801Y7424187D01*
X3657300Y7408493D01*
Y7391506D01*
X3663801Y7375813D01*
X3675813Y7363801D01*
X3691506Y7357300D01*
X3708493D01*
X3724187Y7363801D01*
X3736199Y7375813D01*
X3742700Y7391506D01*
Y7408493D01*
X3736199Y7424187D01*
X3724335Y7436350D01*
X3736199Y7448513D01*
X3742700Y7464206D01*
Y7481193D01*
X3766488Y7502157D01*
X3988460D01*
X4007850Y7482768D01*
Y7471515D01*
X4014351Y7455822D01*
X4026363Y7443810D01*
X4042056Y7437309D01*
X4059043D01*
X4074737Y7443810D01*
X4086749Y7455822D01*
X4093250Y7471515D01*
Y7488502D01*
X4086749Y7504196D01*
X4074737Y7516208D01*
X4059043Y7522709D01*
X4048885D01*
X4030238Y7545438D01*
X4040924Y7571757D01*
X4097175D01*
X4321757Y7347175D01*
Y5411698D01*
X3768301Y4858243D01*
X3616864D01*
X3616863Y4858243D01*
X3606055Y4856093D01*
X3596892Y4849971D01*
X3180029Y4433108D01*
X3173907Y4423945D01*
X3171757Y4413137D01*
X3171757Y4413136D01*
Y3336699D01*
X3127759Y3292700D01*
X3116507D01*
X3100813Y3286199D01*
X3088801Y3274188D01*
X3082300Y3258494D01*
Y3241507D01*
X3088801Y3225813D01*
X3100813Y3213801D01*
X3116507Y3207300D01*
X3133494D01*
X3149188Y3213801D01*
X3161199Y3225813D01*
X3167700Y3241507D01*
Y3252759D01*
X3219970Y3305029D01*
X3219971Y3305029D01*
X3246821Y3291636D01*
X3251757Y3288030D01*
Y3151846D01*
X3113485Y3013573D01*
X3102233D01*
X3086539Y3007072D01*
X3074527Y2995061D01*
X3068026Y2979367D01*
Y2962380D01*
X3074527Y2946686D01*
X3085815Y2935398D01*
X3086598Y2934135D01*
X3090270Y2900657D01*
X3088801Y2899187D01*
X3082300Y2883494D01*
Y2866507D01*
X3088801Y2850813D01*
X3100665Y2838650D01*
X3088801Y2826487D01*
X3082300Y2810794D01*
Y2793807D01*
X3088801Y2778113D01*
X3100813Y2766101D01*
X3116507Y2759600D01*
X3133494D01*
X3149188Y2766101D01*
X3161199Y2778113D01*
X3167700Y2793807D01*
Y2810794D01*
X3161199Y2826488D01*
X3149335Y2838650D01*
X3161199Y2850813D01*
X3167700Y2866507D01*
Y2883494D01*
X3161199Y2899187D01*
X3149912Y2910475D01*
X3149129Y2911739D01*
X3145456Y2945217D01*
X3146925Y2946686D01*
X3153426Y2962380D01*
Y2973632D01*
X3299970Y3120176D01*
X3299971Y3120176D01*
X3306093Y3129339D01*
X3308243Y3140147D01*
Y4368302D01*
X3661698Y4721757D01*
X3813136D01*
X3813137Y4721757D01*
X3823945Y4723907D01*
X3833108Y4730029D01*
X4449970Y5346892D01*
X4449971Y5346892D01*
X4456093Y5356055D01*
X4458243Y5366863D01*
X4458243Y5366864D01*
Y7392009D01*
X4458243Y7392011D01*
X4456093Y7402819D01*
X4449971Y7411981D01*
X4161981Y7699971D01*
X4152819Y7706093D01*
X4142011Y7708243D01*
X4142009Y7708243D01*
X3923485D01*
X3918543Y7714148D01*
X3913164Y7745683D01*
X3927314Y7759834D01*
X3937320Y7777164D01*
X3942500Y7796494D01*
Y7816507D01*
X3937320Y7835837D01*
X3927314Y7853167D01*
X3913164Y7867318D01*
X3895833Y7877324D01*
X3876503Y7882504D01*
D02*
G37*
G36*
X1009698Y7898000D02*
X970302D01*
X931662Y7890314D01*
X895265Y7875238D01*
X862508Y7853350D01*
X834650Y7825493D01*
X812762Y7792735D01*
X797686Y7756338D01*
X790000Y7717698D01*
Y7678302D01*
X797686Y7639662D01*
X812762Y7603265D01*
X834650Y7570508D01*
X862508Y7542650D01*
X895265Y7520762D01*
X931662Y7505686D01*
X970302Y7498000D01*
X1009698D01*
X1048338Y7505686D01*
X1084735Y7520762D01*
X1117493Y7542650D01*
X1145350Y7570508D01*
X1167238Y7603265D01*
X1182314Y7639662D01*
X1190000Y7678302D01*
Y7717698D01*
X1182314Y7756338D01*
X1167238Y7792735D01*
X1145350Y7825493D01*
X1117493Y7853350D01*
X1084735Y7875238D01*
X1048338Y7890314D01*
X1009698Y7898000D01*
D02*
G37*
G36*
X2858493Y7615400D02*
X2841506D01*
X2825812Y7608899D01*
X2813801Y7596887D01*
X2807300Y7581193D01*
Y7564206D01*
X2813801Y7548512D01*
X2825665Y7536350D01*
X2813801Y7524187D01*
X2807300Y7508493D01*
Y7491506D01*
X2813801Y7475813D01*
X2825812Y7463801D01*
X2841506Y7457300D01*
X2858493D01*
X2874187Y7463801D01*
X2886199Y7475813D01*
X2892700Y7491506D01*
Y7508493D01*
X2886199Y7524187D01*
X2874335Y7536350D01*
X2886199Y7548513D01*
X2892700Y7564206D01*
Y7581193D01*
X2886199Y7596887D01*
X2874187Y7608899D01*
X2858493Y7615400D01*
D02*
G37*
G36*
X2708493Y7465400D02*
X2691506D01*
X2675813Y7458899D01*
X2663801Y7446887D01*
X2657300Y7431193D01*
Y7414206D01*
X2663801Y7398513D01*
X2675665Y7386350D01*
X2663801Y7374187D01*
X2657300Y7358494D01*
Y7341507D01*
X2663801Y7325813D01*
X2675813Y7313801D01*
X2691506Y7307300D01*
X2708493D01*
X2724187Y7313801D01*
X2736199Y7325813D01*
X2742700Y7341507D01*
Y7358494D01*
X2736199Y7374187D01*
X2724335Y7386350D01*
X2736199Y7398513D01*
X2742700Y7414206D01*
Y7431193D01*
X2736199Y7446887D01*
X2724187Y7458899D01*
X2708493Y7465400D01*
D02*
G37*
G36*
X1211651Y7407570D02*
X1188349D01*
X1165840Y7401539D01*
X1145660Y7389888D01*
X1129182Y7373410D01*
X1117531Y7353230D01*
X1111500Y7330721D01*
Y7307419D01*
X1117531Y7284910D01*
X1129182Y7264730D01*
X1145660Y7248252D01*
X1165840Y7236601D01*
X1188349Y7230570D01*
X1211651D01*
X1234160Y7236601D01*
X1254340Y7248252D01*
X1270818Y7264730D01*
X1282469Y7284910D01*
X1288500Y7307419D01*
Y7330721D01*
X1282469Y7353230D01*
X1270818Y7373410D01*
X1254340Y7389888D01*
X1234160Y7401539D01*
X1211651Y7407570D01*
D02*
G37*
G36*
X1024500Y7126575D02*
Y7115473D01*
X1025700Y7116154D01*
X1029515Y7118660D01*
X1033254Y7121465D01*
X1034431Y7122462D01*
X1024500Y7126575D01*
D02*
G37*
G36*
X1055915Y7100336D02*
X1051780Y7095269D01*
X1049211Y7091500D01*
X1059575D01*
X1055915Y7100336D01*
D02*
G37*
G36*
X1532500Y7126575D02*
Y7091500D01*
X1567575D01*
X1561587Y7105958D01*
X1546958Y7120587D01*
X1532500Y7126575D01*
D02*
G37*
G36*
X1502500D02*
X1488042Y7120587D01*
X1473413Y7105958D01*
X1467425Y7091500D01*
X1502500D01*
Y7126575D01*
D02*
G37*
G36*
X994500D02*
X980042Y7120587D01*
X965413Y7105958D01*
X959425Y7091500D01*
X994500D01*
Y7126575D01*
D02*
G37*
G36*
X1567575Y7061500D02*
X1556473D01*
X1557154Y7060300D01*
X1559660Y7056485D01*
X1562464Y7052746D01*
X1563462Y7051569D01*
X1567575Y7061500D01*
D02*
G37*
G36*
X1399392Y7121204D02*
X1381608D01*
X1365177Y7114398D01*
X1352602Y7101823D01*
X1345796Y7085392D01*
Y7067608D01*
X1352602Y7051177D01*
X1365177Y7038602D01*
X1381608Y7031796D01*
X1399392D01*
X1415823Y7038602D01*
X1428398Y7051177D01*
X1435204Y7067608D01*
Y7085392D01*
X1428398Y7101823D01*
X1415823Y7114398D01*
X1399392Y7121204D01*
D02*
G37*
G36*
X891392D02*
X873608D01*
X857177Y7114398D01*
X844602Y7101823D01*
X837796Y7085392D01*
Y7067608D01*
X844602Y7051177D01*
X857177Y7038602D01*
X873608Y7031796D01*
X891392D01*
X907823Y7038602D01*
X920398Y7051177D01*
X927204Y7067608D01*
Y7085392D01*
X920398Y7101823D01*
X907823Y7114398D01*
X891392Y7121204D01*
D02*
G37*
G36*
X1532500Y7036789D02*
Y7026425D01*
X1541336Y7030085D01*
X1536269Y7034220D01*
X1532500Y7036789D01*
D02*
G37*
G36*
X1059575Y7061500D02*
X1024500D01*
Y7026425D01*
X1038958Y7032413D01*
X1053587Y7047042D01*
X1059575Y7061500D01*
D02*
G37*
G36*
X1502500D02*
X1467425D01*
X1473413Y7047042D01*
X1488042Y7032413D01*
X1502500Y7026425D01*
Y7061500D01*
D02*
G37*
G36*
X994500D02*
X959425D01*
X965413Y7047042D01*
X980042Y7032413D01*
X994500Y7026425D01*
Y7061500D01*
D02*
G37*
G36*
X1405500Y6999575D02*
Y6964500D01*
X1440575D01*
X1434587Y6978958D01*
X1419958Y6993587D01*
X1405500Y6999575D01*
D02*
G37*
G36*
X1375500D02*
X1361042Y6993587D01*
X1346413Y6978958D01*
X1340425Y6964500D01*
X1375500D01*
Y6999575D01*
D02*
G37*
G36*
X3108493Y7119055D02*
X3091506D01*
X3075812Y7112554D01*
X3063801Y7100542D01*
X3057300Y7084848D01*
Y7067861D01*
X3063801Y7052167D01*
X3075665Y7040005D01*
X3063801Y7027842D01*
X3057300Y7012148D01*
Y6995161D01*
X3063801Y6979467D01*
X3075812Y6967456D01*
X3091506Y6960955D01*
X3108493D01*
X3124187Y6967456D01*
X3136199Y6979467D01*
X3142700Y6995161D01*
Y7012148D01*
X3136199Y7027842D01*
X3124335Y7040005D01*
X3136199Y7052168D01*
X3142700Y7067861D01*
Y7084848D01*
X3136199Y7100542D01*
X3124187Y7112554D01*
X3108493Y7119055D01*
D02*
G37*
G36*
X1440575Y6934500D02*
X1429473D01*
X1430154Y6933300D01*
X1432660Y6929485D01*
X1435464Y6925746D01*
X1436462Y6924569D01*
X1440575Y6934500D01*
D02*
G37*
G36*
X1526392Y6994204D02*
X1508608D01*
X1492177Y6987398D01*
X1479602Y6974823D01*
X1472796Y6958392D01*
Y6940608D01*
X1479602Y6924177D01*
X1492177Y6911602D01*
X1508608Y6904796D01*
X1526392D01*
X1542823Y6911602D01*
X1555398Y6924177D01*
X1562204Y6940608D01*
Y6958392D01*
X1555398Y6974823D01*
X1542823Y6987398D01*
X1526392Y6994204D01*
D02*
G37*
G36*
X1018392D02*
X1000608D01*
X984177Y6987398D01*
X971602Y6974823D01*
X964796Y6958392D01*
Y6940608D01*
X971602Y6924177D01*
X984177Y6911602D01*
X1000608Y6904796D01*
X1018392D01*
X1034823Y6911602D01*
X1047398Y6924177D01*
X1054204Y6940608D01*
Y6958392D01*
X1047398Y6974823D01*
X1034823Y6987398D01*
X1018392Y6994204D01*
D02*
G37*
G36*
X891392D02*
X873608D01*
X857177Y6987398D01*
X844602Y6974823D01*
X837796Y6958392D01*
Y6940608D01*
X844602Y6924177D01*
X857177Y6911602D01*
X873608Y6904796D01*
X891392D01*
X907823Y6911602D01*
X920398Y6924177D01*
X927204Y6940608D01*
Y6958392D01*
X920398Y6974823D01*
X907823Y6987398D01*
X891392Y6994204D01*
D02*
G37*
G36*
X897500Y6872575D02*
Y6837500D01*
X932575D01*
X926587Y6851958D01*
X911958Y6866587D01*
X897500Y6872575D01*
D02*
G37*
G36*
X1398108Y6934500D02*
X1390500D01*
X1340425D01*
X1346413Y6920042D01*
X1361042Y6905413D01*
X1368750Y6902220D01*
Y6869780D01*
X1361042Y6866587D01*
X1346413Y6851958D01*
X1340425Y6837500D01*
X1390500D01*
X1440575D01*
X1434587Y6851958D01*
X1419958Y6866587D01*
X1412249Y6869780D01*
Y6902220D01*
X1414336Y6903085D01*
X1409269Y6907220D01*
X1405489Y6909796D01*
X1401680Y6912057D01*
X1397845Y6914001D01*
X1393981Y6915630D01*
X1390090Y6916941D01*
X1386171Y6917937D01*
X1382225Y6918617D01*
X1398108Y6934500D01*
D02*
G37*
G36*
X867500Y6872575D02*
X853042Y6866587D01*
X838413Y6851958D01*
X832425Y6837500D01*
X867500D01*
Y6872575D01*
D02*
G37*
G36*
X3681517Y7279049D02*
X3664530D01*
X3648836Y7272548D01*
X3636825Y7260537D01*
X3630324Y7244843D01*
Y7227856D01*
X3636825Y7212162D01*
X3648689Y7199999D01*
X3636825Y7187837D01*
X3630324Y7172143D01*
Y7155156D01*
X3636744Y7139658D01*
X3636825Y7139462D01*
X3645511Y7120002D01*
X3636825Y7100542D01*
X3636744Y7100346D01*
X3630324Y7084848D01*
Y7067861D01*
X3636825Y7052167D01*
X3648689Y7040005D01*
X3636825Y7027842D01*
X3630324Y7012148D01*
Y6995161D01*
X3636751Y6979646D01*
X3636825Y6979467D01*
X3645509Y6959995D01*
X3636825Y6940522D01*
X3636751Y6940344D01*
X3630324Y6924828D01*
Y6907841D01*
X3636825Y6892147D01*
X3648689Y6879985D01*
X3636825Y6867822D01*
X3630324Y6852128D01*
Y6835141D01*
X3636825Y6819447D01*
X3648836Y6807436D01*
X3664530Y6800935D01*
X3681517D01*
X3697211Y6807436D01*
X3709223Y6819447D01*
X3715724Y6835141D01*
Y6852128D01*
X3709223Y6867822D01*
X3697359Y6879985D01*
X3709223Y6892148D01*
X3715724Y6907841D01*
Y6924828D01*
X3709297Y6940344D01*
X3709223Y6940522D01*
X3700539Y6959995D01*
X3709223Y6979467D01*
X3709297Y6979645D01*
X3715724Y6995161D01*
Y7012148D01*
X3709223Y7027842D01*
X3697359Y7040005D01*
X3709223Y7052168D01*
X3715724Y7067861D01*
Y7084848D01*
X3709304Y7100346D01*
X3709223Y7100542D01*
X3700536Y7120002D01*
X3709223Y7139462D01*
X3709304Y7139658D01*
X3715724Y7155156D01*
Y7172143D01*
X3709223Y7187837D01*
X3697359Y7199999D01*
X3709223Y7212162D01*
X3715724Y7227856D01*
Y7244843D01*
X3709223Y7260537D01*
X3697211Y7272548D01*
X3681517Y7279049D01*
D02*
G37*
G36*
X932575Y6807500D02*
X921473D01*
X922154Y6806300D01*
X924660Y6802485D01*
X927464Y6798746D01*
X928462Y6797569D01*
X932575Y6807500D01*
D02*
G37*
G36*
X1440575D02*
X1429473D01*
X1430154Y6806300D01*
X1432660Y6802485D01*
X1435464Y6798746D01*
X1436462Y6797569D01*
X1440575Y6807500D01*
D02*
G37*
G36*
X3058494Y6940400D02*
X3041506D01*
X3025813Y6933899D01*
X3013801Y6921887D01*
X3007300Y6906193D01*
Y6889206D01*
X3013801Y6873513D01*
X3025665Y6861350D01*
X3013801Y6849187D01*
X3007300Y6833494D01*
Y6816507D01*
X3013801Y6800813D01*
X3025813Y6788801D01*
X3041506Y6782300D01*
X3058494D01*
X3074187Y6788801D01*
X3086199Y6800813D01*
X3092700Y6816507D01*
Y6833494D01*
X3086199Y6849187D01*
X3074335Y6861350D01*
X3086199Y6873513D01*
X3092700Y6889206D01*
Y6906193D01*
X3086199Y6921887D01*
X3074187Y6933899D01*
X3058494Y6940400D01*
D02*
G37*
G36*
X1526392Y6867204D02*
X1508608D01*
X1492177Y6860398D01*
X1479602Y6847823D01*
X1472796Y6831392D01*
Y6813608D01*
X1479602Y6797177D01*
X1492177Y6784602D01*
X1508608Y6777796D01*
X1526392D01*
X1542823Y6784602D01*
X1555398Y6797177D01*
X1562204Y6813608D01*
Y6831392D01*
X1555398Y6847823D01*
X1542823Y6860398D01*
X1526392Y6867204D01*
D02*
G37*
G36*
X1018392D02*
X1000608D01*
X984177Y6860398D01*
X971602Y6847823D01*
X964796Y6831392D01*
Y6813608D01*
X971602Y6797177D01*
X984177Y6784602D01*
X1000608Y6777796D01*
X1018392D01*
X1034823Y6784602D01*
X1047398Y6797177D01*
X1054204Y6813608D01*
Y6831392D01*
X1047398Y6847823D01*
X1034823Y6860398D01*
X1018392Y6867204D01*
D02*
G37*
G36*
X1405500Y6782789D02*
Y6772425D01*
X1414336Y6776085D01*
X1409269Y6780220D01*
X1405500Y6782789D01*
D02*
G37*
G36*
X897500D02*
Y6772425D01*
X906336Y6776085D01*
X901269Y6780220D01*
X897500Y6782789D01*
D02*
G37*
G36*
X1375500Y6807500D02*
X1340425D01*
X1346413Y6793042D01*
X1361042Y6778413D01*
X1375500Y6772425D01*
Y6807500D01*
D02*
G37*
G36*
X867500D02*
X832425D01*
X838413Y6793042D01*
X853042Y6778413D01*
X867500Y6772425D01*
Y6807500D01*
D02*
G37*
G36*
X1532500Y6745575D02*
Y6734473D01*
X1533700Y6735154D01*
X1537515Y6737660D01*
X1541254Y6740465D01*
X1542431Y6741462D01*
X1532500Y6745575D01*
D02*
G37*
G36*
X1024500D02*
Y6734473D01*
X1025700Y6735154D01*
X1029515Y6737660D01*
X1033254Y6740465D01*
X1034431Y6741462D01*
X1024500Y6745575D01*
D02*
G37*
G36*
X1055915Y6719336D02*
X1051780Y6714269D01*
X1049211Y6710500D01*
X1059575D01*
X1055915Y6719336D01*
D02*
G37*
G36*
X1563915D02*
X1559780Y6714269D01*
X1557211Y6710500D01*
X1567575D01*
X1563915Y6719336D01*
D02*
G37*
G36*
X1502500Y6745575D02*
X1488042Y6739587D01*
X1473413Y6724958D01*
X1467425Y6710500D01*
X1502500D01*
Y6745575D01*
D02*
G37*
G36*
X994500D02*
X980042Y6739587D01*
X965413Y6724958D01*
X959425Y6710500D01*
X994500D01*
Y6745575D01*
D02*
G37*
G36*
X891392Y6740204D02*
X873608D01*
X857177Y6733398D01*
X844602Y6720823D01*
X837796Y6704392D01*
Y6695637D01*
X814686Y6677792D01*
X789065Y6685619D01*
X786199Y6692537D01*
X774187Y6704549D01*
X758494Y6711050D01*
X741507D01*
X725813Y6704549D01*
X713801Y6692537D01*
X707300Y6676843D01*
Y6659856D01*
X713801Y6644162D01*
Y6619837D01*
X707300Y6604144D01*
Y6587156D01*
X713801Y6571463D01*
X725813Y6559451D01*
X741507Y6552950D01*
X758494D01*
X774187Y6559451D01*
X786199Y6571463D01*
X789065Y6578382D01*
X814686Y6586208D01*
X837796Y6568364D01*
Y6559608D01*
X844602Y6543177D01*
X857177Y6530602D01*
X873608Y6523796D01*
X891392D01*
X907823Y6530602D01*
X920398Y6543177D01*
X927204Y6559608D01*
Y6577392D01*
X920398Y6593823D01*
X907823Y6606398D01*
X895170Y6611639D01*
X885364Y6632572D01*
X894572Y6652113D01*
X907823Y6657602D01*
X920398Y6670177D01*
X927204Y6686608D01*
Y6704392D01*
X920398Y6720823D01*
X907823Y6733398D01*
X891392Y6740204D01*
D02*
G37*
G36*
X1399392D02*
X1381608D01*
X1365177Y6733398D01*
X1352602Y6720823D01*
X1345796Y6704392D01*
Y6686608D01*
X1352602Y6670177D01*
X1365177Y6657602D01*
X1381608Y6650796D01*
X1399392D01*
X1415823Y6657602D01*
X1428398Y6670177D01*
X1435204Y6686608D01*
Y6704392D01*
X1428398Y6720823D01*
X1415823Y6733398D01*
X1399392Y6740204D01*
D02*
G37*
G36*
X1567575Y6680500D02*
X1517500D01*
X1467425D01*
X1473413Y6666042D01*
X1488042Y6651413D01*
X1495750Y6648220D01*
Y6615780D01*
X1493664Y6614915D01*
X1498731Y6610780D01*
X1502511Y6608203D01*
X1506319Y6605943D01*
X1510155Y6603998D01*
X1514019Y6602370D01*
X1517910Y6601058D01*
X1521829Y6600063D01*
X1525775Y6599383D01*
X1509892Y6583500D01*
X1517500D01*
X1567575D01*
X1561587Y6597958D01*
X1546958Y6612587D01*
X1539249Y6615780D01*
Y6648220D01*
X1546958Y6651413D01*
X1561587Y6666042D01*
X1567575Y6680500D01*
D02*
G37*
G36*
X1471538Y6593431D02*
X1467425Y6583500D01*
X1478527D01*
X1477845Y6584700D01*
X1475339Y6588515D01*
X1472535Y6592254D01*
X1471538Y6593431D01*
D02*
G37*
G36*
X1059575Y6680500D02*
X1009500D01*
X959425D01*
X965413Y6666042D01*
X980042Y6651413D01*
X987750Y6648220D01*
Y6615780D01*
X980042Y6612587D01*
X965413Y6597958D01*
X959425Y6583500D01*
X1009500D01*
X1059575D01*
X1053587Y6597958D01*
X1038958Y6612587D01*
X1031249Y6615780D01*
Y6648220D01*
X1038958Y6651413D01*
X1053587Y6666042D01*
X1059575Y6680500D01*
D02*
G37*
G36*
Y6553500D02*
X1048473D01*
X1049154Y6552300D01*
X1051660Y6548485D01*
X1054464Y6544746D01*
X1055462Y6543569D01*
X1059575Y6553500D01*
D02*
G37*
G36*
X1399392Y6613204D02*
X1381608D01*
X1365177Y6606398D01*
X1352602Y6593823D01*
X1345796Y6577392D01*
Y6559608D01*
X1352602Y6543177D01*
X1365177Y6530602D01*
X1381608Y6523796D01*
X1399392D01*
X1415823Y6530602D01*
X1428398Y6543177D01*
X1435204Y6559608D01*
Y6577392D01*
X1428398Y6593823D01*
X1415823Y6606398D01*
X1399392Y6613204D01*
D02*
G37*
G36*
X1567575Y6553500D02*
X1532500D01*
Y6518425D01*
X1546958Y6524413D01*
X1561587Y6539042D01*
X1567575Y6553500D01*
D02*
G37*
G36*
X1024500Y6528789D02*
Y6518425D01*
X1033336Y6522085D01*
X1028269Y6526220D01*
X1024500Y6528789D01*
D02*
G37*
G36*
X1502500Y6553500D02*
X1467425D01*
X1473413Y6539042D01*
X1488042Y6524413D01*
X1502500Y6518425D01*
Y6553500D01*
D02*
G37*
G36*
X994500D02*
X959425D01*
X965413Y6539042D01*
X980042Y6524413D01*
X994500Y6518425D01*
Y6553500D01*
D02*
G37*
G36*
X1375500Y6491575D02*
X1366664Y6487915D01*
X1371731Y6483780D01*
X1375500Y6481211D01*
Y6491575D01*
D02*
G37*
G36*
X1405500D02*
Y6456500D01*
X1440575D01*
X1434587Y6470958D01*
X1419958Y6485587D01*
X1405500Y6491575D01*
D02*
G37*
G36*
X897500D02*
Y6456500D01*
X932575D01*
X926587Y6470958D01*
X911958Y6485587D01*
X897500Y6491575D01*
D02*
G37*
G36*
X1344538Y6466431D02*
X1340425Y6456500D01*
X1351527D01*
X1350845Y6457700D01*
X1348339Y6461515D01*
X1345535Y6465254D01*
X1344538Y6466431D01*
D02*
G37*
G36*
X867500Y6491575D02*
X853042Y6485587D01*
X838413Y6470958D01*
X832425Y6456500D01*
X867500D01*
Y6491575D01*
D02*
G37*
G36*
X842789Y6426500D02*
X832425D01*
X836085Y6417664D01*
X840220Y6422731D01*
X842789Y6426500D01*
D02*
G37*
G36*
X1526392Y6486204D02*
X1508608D01*
X1492177Y6479398D01*
X1479602Y6466823D01*
X1472796Y6450392D01*
Y6432608D01*
X1479602Y6416177D01*
X1492177Y6403602D01*
X1508608Y6396796D01*
X1526392D01*
X1542823Y6403602D01*
X1555398Y6416177D01*
X1562204Y6432608D01*
Y6450392D01*
X1555398Y6466823D01*
X1542823Y6479398D01*
X1526392Y6486204D01*
D02*
G37*
G36*
X932575Y6426500D02*
X897500D01*
Y6391425D01*
X911958Y6397413D01*
X926587Y6412042D01*
X932575Y6426500D01*
D02*
G37*
G36*
X867500Y6402527D02*
X866300Y6401845D01*
X862485Y6399339D01*
X858746Y6396535D01*
X857569Y6395538D01*
X867500Y6391425D01*
Y6402527D01*
D02*
G37*
G36*
X1436915Y6338336D02*
X1432780Y6333269D01*
X1430211Y6329500D01*
X1440575D01*
X1436915Y6338336D01*
D02*
G37*
G36*
X1440575Y6426500D02*
X1390500D01*
X1340425D01*
X1346413Y6412042D01*
X1361042Y6397413D01*
X1368750Y6394220D01*
Y6361780D01*
X1361042Y6358587D01*
X1346413Y6343958D01*
X1340425Y6329500D01*
X1390500D01*
X1398108D01*
X1382225Y6345383D01*
X1386493Y6346099D01*
X1390686Y6347114D01*
X1394803Y6348426D01*
X1398844Y6350037D01*
X1402810Y6351947D01*
X1406700Y6354154D01*
X1410515Y6356660D01*
X1414254Y6359465D01*
X1415431Y6360462D01*
X1412249Y6361780D01*
Y6394220D01*
X1419958Y6397413D01*
X1434587Y6412042D01*
X1440575Y6426500D01*
D02*
G37*
G36*
X1018392Y6486204D02*
X1000608D01*
X984177Y6479398D01*
X971602Y6466823D01*
X964796Y6450392D01*
Y6432608D01*
X971602Y6416177D01*
X984177Y6403602D01*
X996830Y6398361D01*
X1006636Y6377428D01*
X997428Y6357887D01*
X984177Y6352398D01*
X971602Y6339823D01*
X964796Y6323392D01*
Y6305608D01*
X971602Y6289177D01*
X984177Y6276602D01*
X1000608Y6269796D01*
X1018392D01*
X1034823Y6276602D01*
X1047398Y6289177D01*
X1054204Y6305608D01*
Y6314363D01*
X1077313Y6332208D01*
X1102935Y6324381D01*
X1105801Y6317463D01*
X1117812Y6305451D01*
X1133506Y6298950D01*
X1150493D01*
X1166187Y6305451D01*
X1178199Y6317463D01*
X1184700Y6333156D01*
Y6350144D01*
X1178199Y6365837D01*
X1166335Y6378000D01*
X1178199Y6390163D01*
X1184700Y6405856D01*
Y6422843D01*
X1178199Y6438537D01*
X1166187Y6450549D01*
X1150493Y6457050D01*
X1133506D01*
X1117812Y6450549D01*
X1105801Y6438537D01*
X1102935Y6431618D01*
X1077313Y6423792D01*
X1054204Y6441636D01*
Y6450392D01*
X1047398Y6466823D01*
X1034823Y6479398D01*
X1018392Y6486204D01*
D02*
G37*
G36*
X891392Y6359204D02*
X873608D01*
X857177Y6352398D01*
X844602Y6339823D01*
X837796Y6323392D01*
Y6314637D01*
X814686Y6296792D01*
X789065Y6304619D01*
X786199Y6311537D01*
X774187Y6323549D01*
X758494Y6330050D01*
X741507D01*
X725813Y6323549D01*
X713801Y6311537D01*
X707300Y6295843D01*
Y6278856D01*
X713801Y6263162D01*
Y6238837D01*
X707300Y6223144D01*
Y6206156D01*
X713801Y6190463D01*
X725813Y6178451D01*
X741507Y6171950D01*
X758494D01*
X774187Y6178451D01*
X786199Y6190463D01*
X789065Y6197382D01*
X814686Y6205208D01*
X837796Y6187364D01*
Y6178608D01*
X844602Y6162177D01*
X857177Y6149602D01*
X873608Y6142796D01*
X891392D01*
X907823Y6149602D01*
X920398Y6162177D01*
X927204Y6178608D01*
Y6196392D01*
X920398Y6212823D01*
X907823Y6225398D01*
X895170Y6230639D01*
X885364Y6251572D01*
X894572Y6271113D01*
X907823Y6276602D01*
X920398Y6289177D01*
X927204Y6305608D01*
Y6323392D01*
X920398Y6339823D01*
X907823Y6352398D01*
X891392Y6359204D01*
D02*
G37*
G36*
X1526392D02*
X1508608D01*
X1492177Y6352398D01*
X1479602Y6339823D01*
X1472796Y6323392D01*
Y6305608D01*
X1479602Y6289177D01*
X1492177Y6276602D01*
X1508608Y6269796D01*
X1526392D01*
X1542823Y6276602D01*
X1555398Y6289177D01*
X1562204Y6305608D01*
Y6323392D01*
X1555398Y6339823D01*
X1542823Y6352398D01*
X1526392Y6359204D01*
D02*
G37*
G36*
X1440575Y6299500D02*
X1405500D01*
Y6264425D01*
X1419958Y6270413D01*
X1434587Y6285042D01*
X1440575Y6299500D01*
D02*
G37*
G36*
X1375500D02*
X1340425D01*
X1346413Y6285042D01*
X1361042Y6270413D01*
X1375500Y6264425D01*
Y6299500D01*
D02*
G37*
G36*
X1532500Y6237575D02*
Y6226473D01*
X1533700Y6227154D01*
X1537515Y6229660D01*
X1541254Y6232465D01*
X1542431Y6233462D01*
X1532500Y6237575D01*
D02*
G37*
G36*
X1024500D02*
Y6226473D01*
X1025700Y6227154D01*
X1029515Y6229660D01*
X1033254Y6232465D01*
X1034431Y6233462D01*
X1024500Y6237575D01*
D02*
G37*
G36*
X1055915Y6211336D02*
X1051780Y6206269D01*
X1049211Y6202500D01*
X1059575D01*
X1055915Y6211336D01*
D02*
G37*
G36*
X1563915D02*
X1559780Y6206269D01*
X1557211Y6202500D01*
X1567575D01*
X1563915Y6211336D01*
D02*
G37*
G36*
X1502500Y6237575D02*
X1488042Y6231587D01*
X1473413Y6216958D01*
X1467425Y6202500D01*
X1502500D01*
Y6237575D01*
D02*
G37*
G36*
X994500D02*
X980042Y6231587D01*
X965413Y6216958D01*
X959425Y6202500D01*
X994500D01*
Y6237575D01*
D02*
G37*
G36*
X1399392Y6232204D02*
X1381608D01*
X1365177Y6225398D01*
X1352602Y6212823D01*
X1345796Y6196392D01*
Y6187637D01*
X1322686Y6169792D01*
X1297065Y6177619D01*
X1294199Y6184537D01*
X1282187Y6196549D01*
X1266494Y6203050D01*
X1249507D01*
X1233813Y6196549D01*
X1221801Y6184537D01*
X1215300Y6168843D01*
Y6151856D01*
X1221801Y6136162D01*
X1233665Y6124000D01*
X1221801Y6111837D01*
X1215300Y6096144D01*
Y6079156D01*
X1221801Y6063463D01*
X1233813Y6051451D01*
X1249507Y6044950D01*
X1266494D01*
X1282187Y6051451D01*
X1294199Y6063463D01*
X1297065Y6070382D01*
X1322686Y6078208D01*
X1345796Y6060364D01*
Y6051608D01*
X1352602Y6035177D01*
X1365177Y6022602D01*
X1381608Y6015796D01*
X1399392D01*
X1415823Y6022602D01*
X1428398Y6035177D01*
X1435204Y6051608D01*
Y6069392D01*
X1428398Y6085823D01*
X1415823Y6098398D01*
X1403170Y6103639D01*
X1393364Y6124572D01*
X1402572Y6144113D01*
X1415823Y6149602D01*
X1428398Y6162177D01*
X1435204Y6178608D01*
Y6196392D01*
X1428398Y6212823D01*
X1415823Y6225398D01*
X1399392Y6232204D01*
D02*
G37*
G36*
X3508494Y6319056D02*
X3491507D01*
X3475813Y6312555D01*
X3463801Y6300544D01*
X3457300Y6284850D01*
Y6267863D01*
X3463801Y6252169D01*
X3475665Y6240006D01*
X3463801Y6227844D01*
X3457300Y6212150D01*
Y6195163D01*
X3463801Y6179469D01*
X3475813Y6167457D01*
X3491507Y6160956D01*
X3508494D01*
X3524188Y6167457D01*
X3536199Y6179469D01*
X3542700Y6195163D01*
Y6212150D01*
X3536199Y6227844D01*
X3524335Y6240006D01*
X3536199Y6252169D01*
X3542700Y6267863D01*
Y6284850D01*
X3536199Y6300544D01*
X3524188Y6312555D01*
X3508494Y6319056D01*
D02*
G37*
G36*
X3728277Y6313343D02*
X3711290D01*
X3695596Y6306842D01*
X3683584Y6294831D01*
X3677084Y6279137D01*
Y6262150D01*
X3683584Y6246456D01*
X3695449Y6234293D01*
X3683584Y6222131D01*
X3677084Y6206437D01*
Y6189450D01*
X3683584Y6173756D01*
X3695596Y6161744D01*
X3711290Y6155243D01*
X3728277D01*
X3743971Y6161744D01*
X3755983Y6173756D01*
X3762483Y6189450D01*
Y6206437D01*
X3755983Y6222131D01*
X3744118Y6234293D01*
X3755983Y6246456D01*
X3762483Y6262150D01*
Y6279137D01*
X3755983Y6294831D01*
X3743971Y6306842D01*
X3728277Y6313343D01*
D02*
G37*
G36*
X1059575Y6172500D02*
X1024500D01*
Y6137425D01*
X1038958Y6143413D01*
X1053587Y6158042D01*
X1059575Y6172500D01*
D02*
G37*
G36*
X994500D02*
X959425D01*
X965413Y6158042D01*
X980042Y6143413D01*
X994500Y6137425D01*
Y6172500D01*
D02*
G37*
G36*
X897500Y6110575D02*
Y6075500D01*
X932575D01*
X926587Y6089958D01*
X911958Y6104587D01*
X897500Y6110575D01*
D02*
G37*
G36*
X1567575Y6172500D02*
X1517500D01*
X1467425D01*
X1473413Y6158042D01*
X1488042Y6143413D01*
X1495750Y6140220D01*
Y6107780D01*
X1488042Y6104587D01*
X1473413Y6089958D01*
X1467425Y6075500D01*
X1517500D01*
X1567575D01*
X1561587Y6089958D01*
X1546958Y6104587D01*
X1539249Y6107780D01*
Y6140220D01*
X1546958Y6143413D01*
X1561587Y6158042D01*
X1567575Y6172500D01*
D02*
G37*
G36*
X867500Y6110575D02*
X853042Y6104587D01*
X838413Y6089958D01*
X832425Y6075500D01*
X867500D01*
Y6110575D01*
D02*
G37*
G36*
X842789Y6045500D02*
X832425D01*
X836085Y6036664D01*
X840220Y6041731D01*
X842789Y6045500D01*
D02*
G37*
G36*
X1567575D02*
X1532500D01*
Y6010425D01*
X1546958Y6016413D01*
X1561587Y6031042D01*
X1567575Y6045500D01*
D02*
G37*
G36*
X932575D02*
X897500D01*
Y6010425D01*
X911958Y6016413D01*
X926587Y6031042D01*
X932575Y6045500D01*
D02*
G37*
G36*
X1502500D02*
X1467425D01*
X1473413Y6031042D01*
X1488042Y6016413D01*
X1502500Y6010425D01*
Y6045500D01*
D02*
G37*
G36*
X867500Y6021527D02*
X866300Y6020845D01*
X862485Y6018339D01*
X858746Y6015535D01*
X857569Y6014538D01*
X867500Y6010425D01*
Y6021527D01*
D02*
G37*
G36*
X1405500Y5983575D02*
Y5948500D01*
X1440575D01*
X1434587Y5962958D01*
X1419958Y5977587D01*
X1405500Y5983575D01*
D02*
G37*
G36*
X1375500D02*
X1361042Y5977587D01*
X1346413Y5962958D01*
X1340425Y5948500D01*
X1375500D01*
Y5983575D01*
D02*
G37*
G36*
X891392Y5978204D02*
X873608D01*
X857177Y5971398D01*
X844602Y5958823D01*
X837796Y5942392D01*
Y5933637D01*
X814686Y5915792D01*
X789065Y5923619D01*
X786199Y5930537D01*
X774187Y5942549D01*
X758494Y5949050D01*
X741507D01*
X725813Y5942549D01*
X713801Y5930537D01*
X707300Y5914843D01*
Y5897856D01*
X713801Y5882162D01*
Y5857837D01*
X707300Y5842144D01*
Y5825156D01*
X713801Y5809463D01*
X725813Y5797451D01*
X741507Y5790950D01*
X758494D01*
X774187Y5797451D01*
X786199Y5809463D01*
X789065Y5816382D01*
X814686Y5824208D01*
X837796Y5806364D01*
Y5797608D01*
X844602Y5781177D01*
X857177Y5768602D01*
X873608Y5761796D01*
X891392D01*
X907823Y5768602D01*
X920398Y5781177D01*
X927204Y5797608D01*
Y5815392D01*
X920398Y5831823D01*
X907823Y5844398D01*
X895170Y5849639D01*
X885364Y5870572D01*
X894572Y5890113D01*
X907823Y5895602D01*
X920398Y5908177D01*
X927204Y5924608D01*
Y5942392D01*
X920398Y5958823D01*
X907823Y5971398D01*
X891392Y5978204D01*
D02*
G37*
G36*
X1018392Y6105204D02*
X1000608D01*
X984177Y6098398D01*
X971602Y6085823D01*
X964796Y6069392D01*
Y6051608D01*
X971602Y6035177D01*
X984177Y6022602D01*
X990948Y6019797D01*
X1000299Y5997000D01*
X990947Y5974202D01*
X984177Y5971398D01*
X971602Y5958823D01*
X964796Y5942392D01*
Y5924608D01*
X971602Y5908177D01*
X984177Y5895602D01*
X1000608Y5888796D01*
X1018392D01*
X1034823Y5895602D01*
X1047398Y5908177D01*
X1054204Y5924607D01*
X1057770Y5926562D01*
X1085082Y5936052D01*
X1093801Y5933112D01*
X1105813Y5921101D01*
X1121507Y5914600D01*
X1138494D01*
X1154187Y5921101D01*
X1166199Y5933113D01*
X1172700Y5948806D01*
Y5965794D01*
X1166199Y5981487D01*
X1154335Y5993650D01*
X1166199Y6005813D01*
X1172700Y6021506D01*
Y6038493D01*
X1166199Y6054187D01*
X1154187Y6066199D01*
X1138494Y6072700D01*
X1121507D01*
X1105813Y6066199D01*
X1093801Y6054187D01*
X1078650Y6038200D01*
X1075361Y6040142D01*
X1054204Y6058840D01*
Y6069392D01*
X1047398Y6085823D01*
X1034823Y6098398D01*
X1018392Y6105204D01*
D02*
G37*
G36*
X1350789Y5918500D02*
X1340425D01*
X1344085Y5909664D01*
X1348220Y5914731D01*
X1350789Y5918500D01*
D02*
G37*
G36*
X1440575D02*
X1405500D01*
Y5883425D01*
X1419958Y5889413D01*
X1434587Y5904042D01*
X1440575Y5918500D01*
D02*
G37*
G36*
X1375500Y5894527D02*
X1374300Y5893845D01*
X1370485Y5891339D01*
X1366746Y5888535D01*
X1365569Y5887538D01*
X1375500Y5883425D01*
Y5894527D01*
D02*
G37*
G36*
X1024500Y5856575D02*
Y5821500D01*
X1059575D01*
X1053587Y5835958D01*
X1038958Y5850587D01*
X1024500Y5856575D01*
D02*
G37*
G36*
X994500D02*
X980042Y5850587D01*
X965413Y5835958D01*
X959425Y5821500D01*
X994500D01*
Y5856575D01*
D02*
G37*
G36*
X1526392Y5978204D02*
X1508608D01*
X1492177Y5971398D01*
X1479602Y5958823D01*
X1472796Y5942392D01*
Y5924608D01*
X1479602Y5908177D01*
X1492177Y5895602D01*
X1504830Y5890361D01*
X1514636Y5869428D01*
X1505428Y5849887D01*
X1492177Y5844398D01*
X1479602Y5831823D01*
X1472796Y5815392D01*
Y5797608D01*
X1479602Y5781177D01*
X1492177Y5768602D01*
X1508608Y5761796D01*
X1526392D01*
X1542823Y5768602D01*
X1555398Y5781177D01*
X1562204Y5797608D01*
Y5806363D01*
X1585313Y5824208D01*
X1610935Y5816381D01*
X1613801Y5809463D01*
X1625812Y5797451D01*
X1641506Y5790950D01*
X1658493D01*
X1674187Y5797451D01*
X1686199Y5809463D01*
X1692700Y5825156D01*
Y5842144D01*
X1686199Y5857837D01*
X1674335Y5870000D01*
X1686199Y5882163D01*
X1692700Y5897856D01*
Y5914843D01*
X1686199Y5930537D01*
X1674187Y5942549D01*
X1658493Y5949050D01*
X1641506D01*
X1625812Y5942549D01*
X1613801Y5930537D01*
X1610935Y5923618D01*
X1585313Y5915792D01*
X1562204Y5933636D01*
Y5942392D01*
X1555398Y5958823D01*
X1542823Y5971398D01*
X1526392Y5978204D01*
D02*
G37*
G36*
X1399392Y5851204D02*
X1381608D01*
X1365177Y5844398D01*
X1352602Y5831823D01*
X1345796Y5815392D01*
Y5806637D01*
X1322686Y5788792D01*
X1297065Y5796619D01*
X1294199Y5803537D01*
X1282187Y5815549D01*
X1266494Y5822050D01*
X1249507D01*
X1233813Y5815549D01*
X1221801Y5803537D01*
X1215300Y5787843D01*
Y5770856D01*
X1221801Y5755162D01*
X1233665Y5743000D01*
X1221801Y5730837D01*
X1215300Y5715144D01*
Y5698156D01*
X1221801Y5682463D01*
X1233813Y5670451D01*
X1249507Y5663950D01*
X1266494D01*
X1282187Y5670451D01*
X1294199Y5682463D01*
X1297065Y5689382D01*
X1322686Y5697208D01*
X1345796Y5679364D01*
Y5670608D01*
X1352602Y5654177D01*
X1365177Y5641602D01*
X1381608Y5634796D01*
X1399392D01*
X1415823Y5641602D01*
X1428398Y5654177D01*
X1435204Y5670608D01*
Y5688392D01*
X1428398Y5704823D01*
X1415823Y5717398D01*
X1403170Y5722639D01*
X1393364Y5743572D01*
X1402572Y5763113D01*
X1415823Y5768602D01*
X1428398Y5781177D01*
X1435204Y5797608D01*
Y5815392D01*
X1428398Y5831823D01*
X1415823Y5844398D01*
X1399392Y5851204D01*
D02*
G37*
G36*
X969789Y5791500D02*
X959425D01*
X963085Y5782664D01*
X967220Y5787731D01*
X969789Y5791500D01*
D02*
G37*
G36*
X1059575D02*
X1024500D01*
Y5756425D01*
X1038958Y5762413D01*
X1053587Y5777042D01*
X1059575Y5791500D01*
D02*
G37*
G36*
X994500Y5767527D02*
X993300Y5766845D01*
X989485Y5764339D01*
X985746Y5761535D01*
X984569Y5760538D01*
X994500Y5756425D01*
Y5767527D01*
D02*
G37*
G36*
X3876503Y5869503D02*
X3856491D01*
X3837160Y5864323D01*
X3819830Y5854317D01*
X3805679Y5840167D01*
X3795673Y5822836D01*
X3790494Y5803506D01*
Y5783494D01*
X3795673Y5764163D01*
X3805679Y5746833D01*
X3819830Y5732682D01*
X3837160Y5722676D01*
X3856491Y5717497D01*
X3876503D01*
X3895833Y5722676D01*
X3913164Y5732682D01*
X3927314Y5746833D01*
X3937320Y5764163D01*
X3942500Y5783494D01*
Y5803506D01*
X3937320Y5822836D01*
X3927314Y5840167D01*
X3913164Y5854317D01*
X3895833Y5864323D01*
X3876503Y5869503D01*
D02*
G37*
G36*
X4150000Y5913928D02*
X4125536Y5909062D01*
X4104796Y5895204D01*
X4090938Y5874464D01*
X4086072Y5850000D01*
Y5813971D01*
X3826030Y5553928D01*
X3490000D01*
X3465536Y5549062D01*
X3444796Y5535204D01*
X2804796Y4895204D01*
X2790938Y4874464D01*
X2786072Y4850000D01*
Y3500000D01*
Y2826480D01*
X2468520Y2508928D01*
X2228418D01*
X2215992Y2538928D01*
X2269970Y2592907D01*
X2269971Y2592907D01*
X2276093Y2602070D01*
X2278243Y2612878D01*
X2278243Y2612879D01*
Y5338301D01*
X2661699Y5721757D01*
X2842856D01*
X2850813Y5713801D01*
X2866507Y5707300D01*
X2883494D01*
X2899187Y5713801D01*
X2911199Y5725813D01*
X2917700Y5741506D01*
Y5758493D01*
X2911199Y5774187D01*
X2899187Y5786199D01*
X2883494Y5792700D01*
X2866507D01*
X2850813Y5786199D01*
X2842856Y5778243D01*
X2650001D01*
X2650000Y5778243D01*
X2639192Y5776093D01*
X2630029Y5769971D01*
X2630029Y5769970D01*
X2230029Y5369971D01*
X2223907Y5360808D01*
X2221757Y5350000D01*
X2221757Y5349999D01*
Y2624577D01*
X1525423Y1928243D01*
X1317200D01*
X1228243Y2017200D01*
Y2166000D01*
X1226093Y2176808D01*
X1219971Y2185970D01*
X1219970Y2185971D01*
X1136971Y2268971D01*
X1136521Y2269271D01*
X1136220Y2269721D01*
X1127058Y2275843D01*
X1116250Y2277993D01*
X1045228D01*
X1034823Y2288398D01*
X1018392Y2295204D01*
X1000608D01*
X984177Y2288398D01*
X971602Y2275823D01*
X964796Y2259392D01*
Y2241608D01*
X971602Y2225177D01*
X984177Y2212602D01*
X1000608Y2205796D01*
X1018392D01*
X1034823Y2212602D01*
X1043728Y2221507D01*
X1104551D01*
X1171757Y2154301D01*
Y2005502D01*
X1171757Y2005501D01*
X1173907Y1994693D01*
X1180029Y1985530D01*
X1285530Y1880030D01*
X1285530Y1880029D01*
X1294693Y1873907D01*
X1305501Y1871757D01*
X1537121D01*
X1537122Y1871757D01*
X1547930Y1873907D01*
X1557093Y1880029D01*
X1767688Y2090625D01*
X1768837Y2090600D01*
X1798298Y2078808D01*
X1800938Y2065536D01*
X1814796Y2044796D01*
X1835536Y2030938D01*
X1860000Y2026072D01*
X1884464Y2030938D01*
X1905204Y2044796D01*
X2241480Y2381072D01*
X2495000D01*
X2519464Y2385938D01*
X2540204Y2399796D01*
X2895204Y2754796D01*
X2909062Y2775535D01*
X2913928Y2800000D01*
Y3500000D01*
Y4823520D01*
X3516480Y5426072D01*
X3852510D01*
X3876974Y5430938D01*
X3897714Y5444796D01*
X4195204Y5742286D01*
X4209062Y5763026D01*
X4213928Y5787491D01*
Y5850000D01*
X4209062Y5874464D01*
X4195204Y5895204D01*
X4174464Y5909062D01*
X4150000Y5913928D01*
D02*
G37*
G36*
X1532500Y5729575D02*
Y5694500D01*
X1567575D01*
X1561587Y5708958D01*
X1546958Y5723587D01*
X1532500Y5729575D01*
D02*
G37*
G36*
X897500D02*
Y5694500D01*
X932575D01*
X926587Y5708958D01*
X911958Y5723587D01*
X897500Y5729575D01*
D02*
G37*
G36*
X1502500D02*
X1488042Y5723587D01*
X1473413Y5708958D01*
X1467425Y5694500D01*
X1502500D01*
Y5729575D01*
D02*
G37*
G36*
X867500D02*
X853042Y5723587D01*
X838413Y5708958D01*
X832425Y5694500D01*
X867500D01*
Y5729575D01*
D02*
G37*
G36*
X1477789Y5664500D02*
X1467425D01*
X1471085Y5655664D01*
X1475220Y5660731D01*
X1477789Y5664500D01*
D02*
G37*
G36*
X932575D02*
X921473D01*
X922154Y5663300D01*
X924660Y5659485D01*
X927464Y5655746D01*
X928462Y5654569D01*
X932575Y5664500D01*
D02*
G37*
G36*
X897500Y5639789D02*
Y5629425D01*
X906336Y5633085D01*
X901269Y5637220D01*
X897500Y5639789D01*
D02*
G37*
G36*
X867500Y5664500D02*
X832425D01*
X838413Y5650042D01*
X853042Y5635413D01*
X867500Y5629425D01*
Y5664500D01*
D02*
G37*
G36*
X1405500Y5602575D02*
Y5592211D01*
X1409269Y5594780D01*
X1413022Y5597673D01*
X1414422Y5598880D01*
X1405500Y5602575D01*
D02*
G37*
G36*
X1375500D02*
X1361042Y5596587D01*
X1346413Y5581958D01*
X1340425Y5567500D01*
X1375500D01*
Y5602575D01*
D02*
G37*
G36*
X1018392Y5724204D02*
X1000608D01*
X984177Y5717398D01*
X971602Y5704823D01*
X964796Y5688392D01*
Y5670608D01*
X971602Y5654177D01*
X984177Y5641602D01*
X996830Y5636361D01*
X1006636Y5615428D01*
X997428Y5595887D01*
X984177Y5590398D01*
X971602Y5577823D01*
X964796Y5561392D01*
Y5543608D01*
X971602Y5527177D01*
X984177Y5514602D01*
X1000608Y5507796D01*
X1018392D01*
X1034823Y5514602D01*
X1047398Y5527177D01*
X1054204Y5543608D01*
Y5552363D01*
X1077313Y5570208D01*
X1102935Y5562381D01*
X1105801Y5555463D01*
X1117812Y5543451D01*
X1133506Y5536950D01*
X1150493D01*
X1166187Y5543451D01*
X1178199Y5555463D01*
X1184700Y5571156D01*
Y5588144D01*
X1178199Y5603837D01*
X1166335Y5616000D01*
X1178199Y5628163D01*
X1184700Y5643856D01*
Y5660843D01*
X1178199Y5676537D01*
X1166187Y5688549D01*
X1150493Y5695050D01*
X1133506D01*
X1117812Y5688549D01*
X1105801Y5676537D01*
X1102935Y5669618D01*
X1077313Y5661792D01*
X1054204Y5679636D01*
Y5688392D01*
X1047398Y5704823D01*
X1034823Y5717398D01*
X1018392Y5724204D01*
D02*
G37*
G36*
X891392Y5597204D02*
X873608D01*
X857177Y5590398D01*
X844602Y5577823D01*
X837796Y5561392D01*
Y5552637D01*
X814686Y5534792D01*
X789065Y5542619D01*
X786199Y5549537D01*
X774187Y5561549D01*
X758494Y5568050D01*
X741507D01*
X725813Y5561549D01*
X713801Y5549537D01*
X707300Y5533843D01*
Y5516856D01*
X713801Y5501162D01*
Y5476837D01*
X707300Y5461144D01*
Y5444156D01*
X713801Y5428463D01*
X725813Y5416451D01*
X741507Y5409950D01*
X758494D01*
X774187Y5416451D01*
X786199Y5428463D01*
X789065Y5435382D01*
X814686Y5443208D01*
X837796Y5425364D01*
Y5416608D01*
X844602Y5400177D01*
X857177Y5387602D01*
X873608Y5380796D01*
X891392D01*
X907823Y5387602D01*
X920398Y5400177D01*
X927204Y5416608D01*
Y5434392D01*
X920398Y5450823D01*
X907823Y5463398D01*
X895170Y5468639D01*
X885364Y5489572D01*
X894572Y5509113D01*
X907823Y5514602D01*
X920398Y5527177D01*
X927204Y5543608D01*
Y5561392D01*
X920398Y5577823D01*
X907823Y5590398D01*
X891392Y5597204D01*
D02*
G37*
G36*
X1375500Y5537500D02*
X1340425D01*
X1346413Y5523042D01*
X1361042Y5508413D01*
X1375500Y5502425D01*
Y5537500D01*
D02*
G37*
G36*
X1024500Y5475575D02*
Y5440500D01*
X1059575D01*
X1053587Y5454958D01*
X1038958Y5469587D01*
X1024500Y5475575D01*
D02*
G37*
G36*
X994500D02*
X980042Y5469587D01*
X965413Y5454958D01*
X959425Y5440500D01*
X994500D01*
Y5475575D01*
D02*
G37*
G36*
X1399392Y5470204D02*
X1381608D01*
X1365177Y5463398D01*
X1352602Y5450823D01*
X1345796Y5434392D01*
Y5425637D01*
X1322686Y5407792D01*
X1297065Y5415619D01*
X1294199Y5422537D01*
X1282187Y5434549D01*
X1266494Y5441050D01*
X1249507D01*
X1233813Y5434549D01*
X1221801Y5422537D01*
X1215300Y5406843D01*
Y5389856D01*
X1221801Y5374162D01*
X1233665Y5362000D01*
X1221801Y5349837D01*
X1215300Y5334144D01*
Y5317156D01*
X1221801Y5301463D01*
X1233813Y5289451D01*
X1249507Y5282950D01*
X1266494D01*
X1282187Y5289451D01*
X1294199Y5301463D01*
X1297065Y5308382D01*
X1322686Y5316208D01*
X1345796Y5298364D01*
Y5289608D01*
X1352602Y5273177D01*
X1365177Y5260602D01*
X1381608Y5253796D01*
X1399392D01*
X1415823Y5260602D01*
X1428398Y5273177D01*
X1435204Y5289608D01*
Y5307392D01*
X1428398Y5323823D01*
X1415823Y5336398D01*
X1403170Y5341639D01*
X1393364Y5362572D01*
X1402572Y5382113D01*
X1415823Y5387602D01*
X1428398Y5400177D01*
X1435204Y5416608D01*
Y5434392D01*
X1428398Y5450823D01*
X1415823Y5463398D01*
X1399392Y5470204D01*
D02*
G37*
G36*
X970166Y5410500D02*
X959425D01*
X963329Y5401073D01*
X964431Y5402362D01*
X967280Y5406108D01*
X969821Y5409905D01*
X970166Y5410500D01*
D02*
G37*
G36*
X1808493Y5467700D02*
X1791506D01*
X1775813Y5461199D01*
X1763801Y5449187D01*
X1757300Y5433494D01*
Y5416507D01*
X1763801Y5400813D01*
X1775813Y5388801D01*
X1791506Y5382300D01*
X1808493D01*
X1824187Y5388801D01*
X1836199Y5400813D01*
X1842700Y5416507D01*
Y5433494D01*
X1836199Y5449187D01*
X1824187Y5461199D01*
X1808493Y5467700D01*
D02*
G37*
G36*
X1059575Y5410500D02*
X1024500D01*
Y5375425D01*
X1038958Y5381413D01*
X1053587Y5396042D01*
X1059575Y5410500D01*
D02*
G37*
G36*
X994500Y5386166D02*
X993905Y5385821D01*
X990108Y5383280D01*
X986362Y5380431D01*
X985072Y5379330D01*
X994500Y5375425D01*
Y5386166D01*
D02*
G37*
G36*
X867500Y5348575D02*
X858664Y5344915D01*
X863731Y5340780D01*
X867500Y5338211D01*
Y5348575D01*
D02*
G37*
G36*
X897500D02*
Y5337834D01*
X898094Y5338179D01*
X901892Y5340720D01*
X905638Y5343569D01*
X906927Y5344670D01*
X897500Y5348575D01*
D02*
G37*
G36*
X928670Y5322927D02*
X927569Y5321638D01*
X924720Y5317892D01*
X922179Y5314095D01*
X921834Y5313500D01*
X932575D01*
X928670Y5322927D01*
D02*
G37*
G36*
X836538Y5323431D02*
X832425Y5313500D01*
X843527D01*
X842845Y5314700D01*
X840339Y5318515D01*
X837535Y5322254D01*
X836538Y5323431D01*
D02*
G37*
G36*
X1018392Y5343204D02*
X1000608D01*
X984177Y5336398D01*
X971602Y5323823D01*
X964796Y5307392D01*
Y5289608D01*
X971602Y5273177D01*
X984177Y5260602D01*
X1000608Y5253796D01*
X1018392D01*
X1034823Y5260602D01*
X1043728Y5269507D01*
X1084106D01*
X1092812Y5260801D01*
X1108506Y5254300D01*
X1125493D01*
X1141187Y5260801D01*
X1153199Y5272812D01*
X1159700Y5288506D01*
Y5305493D01*
X1153199Y5321187D01*
X1141187Y5333199D01*
X1125493Y5339700D01*
X1108506D01*
X1092812Y5333199D01*
X1085606Y5325993D01*
X1045228D01*
X1034823Y5336398D01*
X1018392Y5343204D01*
D02*
G37*
G36*
X932575Y5283500D02*
X897500D01*
Y5248425D01*
X911958Y5254413D01*
X926587Y5269042D01*
X932575Y5283500D01*
D02*
G37*
G36*
X867500D02*
X832425D01*
X838413Y5269042D01*
X853042Y5254413D01*
X867500Y5248425D01*
Y5283500D01*
D02*
G37*
G36*
X1738494Y5332700D02*
X1721507D01*
X1705813Y5326199D01*
X1693801Y5314187D01*
X1687300Y5298494D01*
Y5281507D01*
X1693801Y5265813D01*
X1705813Y5253801D01*
X1721507Y5247300D01*
X1738494D01*
X1754188Y5253801D01*
X1766199Y5265813D01*
X1772700Y5281507D01*
Y5298494D01*
X1766199Y5314187D01*
X1754188Y5326199D01*
X1738494Y5332700D01*
D02*
G37*
G36*
X1375500Y5221575D02*
X1366072Y5217670D01*
X1367362Y5216569D01*
X1371108Y5213720D01*
X1374905Y5211179D01*
X1375500Y5210834D01*
Y5221575D01*
D02*
G37*
G36*
X891392Y5216204D02*
X873608D01*
X857177Y5209398D01*
X844602Y5196823D01*
X844010Y5195395D01*
X811942D01*
X811199Y5197187D01*
X799187Y5209199D01*
X783493Y5215700D01*
X766506D01*
X750813Y5209199D01*
X738801Y5197187D01*
X732300Y5181494D01*
Y5164507D01*
X738801Y5148813D01*
X750813Y5136801D01*
X766506Y5130300D01*
X783493D01*
X799187Y5136801D01*
X811199Y5148813D01*
X811320Y5149105D01*
X843389D01*
X844602Y5146177D01*
X857177Y5133602D01*
X873608Y5126796D01*
X891392D01*
X907823Y5133602D01*
X920398Y5146177D01*
X927204Y5162608D01*
Y5180392D01*
X920398Y5196823D01*
X907823Y5209398D01*
X891392Y5216204D01*
D02*
G37*
G36*
X1024500Y5094575D02*
Y5059500D01*
X1059575D01*
X1053587Y5073958D01*
X1038958Y5088587D01*
X1024500Y5094575D01*
D02*
G37*
G36*
X994500D02*
X980042Y5088587D01*
X965413Y5073958D01*
X959425Y5059500D01*
X994500D01*
Y5094575D01*
D02*
G37*
G36*
X970527Y5029500D02*
X959425D01*
X963538Y5019569D01*
X964535Y5020746D01*
X967339Y5024485D01*
X969845Y5028300D01*
X970527Y5029500D01*
D02*
G37*
G36*
X1059575D02*
X1024500D01*
Y4994425D01*
X1038958Y5000413D01*
X1053587Y5015042D01*
X1059575Y5029500D01*
D02*
G37*
G36*
X994500Y5004789D02*
X990731Y5002220D01*
X986978Y4999327D01*
X985577Y4998120D01*
X994500Y4994425D01*
Y5004789D01*
D02*
G37*
G36*
X928915Y4941336D02*
X924780Y4936269D01*
X922211Y4932500D01*
X932575D01*
X928915Y4941336D01*
D02*
G37*
G36*
X3618220Y5284995D02*
X3581779D01*
X3546039Y5277886D01*
X3512372Y5263940D01*
X3482073Y5243695D01*
X3456305Y5217927D01*
X3436060Y5187628D01*
X3422115Y5153961D01*
X3415005Y5118221D01*
Y5081780D01*
X3422115Y5046039D01*
X3436060Y5012373D01*
X3456305Y4982073D01*
X3482073Y4956306D01*
X3512372Y4936060D01*
X3546039Y4922115D01*
X3581779Y4915006D01*
X3618220D01*
X3653961Y4922115D01*
X3687628Y4936060D01*
X3717927Y4956306D01*
X3743695Y4982073D01*
X3763940Y5012373D01*
X3777885Y5046039D01*
X3784994Y5081780D01*
Y5118221D01*
X3777885Y5153961D01*
X3763940Y5187628D01*
X3743695Y5217927D01*
X3717927Y5243695D01*
X3687628Y5263940D01*
X3653961Y5277886D01*
X3618220Y5284995D01*
D02*
G37*
G36*
X932575Y4902500D02*
X897500D01*
Y4867425D01*
X911958Y4873413D01*
X926587Y4888042D01*
X932575Y4902500D01*
D02*
G37*
G36*
X891392Y5089204D02*
X873608D01*
X857177Y5082398D01*
X844602Y5069823D01*
X837796Y5053392D01*
Y5035608D01*
X838698Y5033430D01*
X764374Y4959106D01*
X759357Y4951597D01*
X758205Y4945807D01*
X756998Y4943091D01*
X756948Y4941123D01*
X756839Y4939826D01*
X756737Y4939163D01*
X756272Y4938461D01*
X750813Y4936199D01*
X738801Y4924188D01*
X732300Y4908494D01*
Y4891507D01*
X738801Y4875813D01*
X750813Y4863801D01*
X754591Y4862236D01*
Y4829764D01*
X750813Y4828199D01*
X738801Y4816187D01*
X732300Y4800494D01*
Y4783507D01*
X738801Y4767813D01*
X750813Y4755801D01*
X766506Y4749300D01*
X783493D01*
X799187Y4755801D01*
X811199Y4767813D01*
X811320Y4768105D01*
X843389D01*
X844602Y4765177D01*
X857177Y4752602D01*
X873608Y4745796D01*
X891392D01*
X907823Y4752602D01*
X920398Y4765177D01*
X927204Y4781608D01*
Y4799392D01*
X920398Y4815823D01*
X907823Y4828398D01*
X891392Y4835204D01*
X873608D01*
X857177Y4828398D01*
X844602Y4815823D01*
X844010Y4814395D01*
X811942D01*
X811199Y4816187D01*
X799187Y4828199D01*
X795409Y4829764D01*
Y4862236D01*
X799187Y4863801D01*
X811199Y4875813D01*
X811271Y4875987D01*
X818033Y4878990D01*
X845416Y4881039D01*
X853042Y4873413D01*
X867500Y4867425D01*
Y4917500D01*
X882500D01*
Y4932500D01*
X890108D01*
X874225Y4948383D01*
X878493Y4949099D01*
X882686Y4950114D01*
X886803Y4951426D01*
X890844Y4953037D01*
X894810Y4954947D01*
X898700Y4957154D01*
X902515Y4959660D01*
X906254Y4962465D01*
X907551Y4963563D01*
X908663Y4964870D01*
X908924Y4965229D01*
X896428Y4996599D01*
X896607Y4997946D01*
X899717Y5003244D01*
X907823Y5006602D01*
X920398Y5019177D01*
X927204Y5035608D01*
Y5053392D01*
X920398Y5069823D01*
X907823Y5082398D01*
X891392Y5089204D01*
D02*
G37*
G36*
X1018392Y4835204D02*
X1000608D01*
X984177Y4828398D01*
X971602Y4815823D01*
X964796Y4799392D01*
Y4781608D01*
X971602Y4765177D01*
X984177Y4752602D01*
X1000608Y4745796D01*
X1018392D01*
X1034823Y4752602D01*
X1047398Y4765177D01*
X1048300Y4767355D01*
X1079308D01*
X1080051Y4765562D01*
X1092062Y4753551D01*
X1107756Y4747050D01*
X1124743D01*
X1140437Y4753551D01*
X1152449Y4765562D01*
X1158950Y4781256D01*
Y4798243D01*
X1152449Y4813937D01*
X1140437Y4825949D01*
X1124743Y4832450D01*
X1107756D01*
X1092062Y4825949D01*
X1080051Y4813937D01*
X1079930Y4813645D01*
X1048300D01*
X1047398Y4815823D01*
X1034823Y4828398D01*
X1018392Y4835204D01*
D02*
G37*
G36*
X1440575Y4775500D02*
X1405500D01*
Y4740425D01*
X1419958Y4746413D01*
X1434587Y4761042D01*
X1440575Y4775500D01*
D02*
G37*
G36*
X891392Y4708204D02*
X873608D01*
X857177Y4701398D01*
X844602Y4688823D01*
X844010Y4687395D01*
X811942D01*
X811199Y4689187D01*
X799187Y4701199D01*
X783493Y4707700D01*
X766506D01*
X750813Y4701199D01*
X738801Y4689187D01*
X732300Y4673494D01*
Y4656507D01*
X738801Y4640813D01*
X750813Y4628801D01*
X766506Y4622300D01*
X783493D01*
X799187Y4628801D01*
X811199Y4640813D01*
X811320Y4641105D01*
X843389D01*
X844602Y4638177D01*
X857177Y4625602D01*
X873608Y4618796D01*
X891392D01*
X907823Y4625602D01*
X920398Y4638177D01*
X927204Y4654608D01*
Y4672392D01*
X920398Y4688823D01*
X907823Y4701398D01*
X891392Y4708204D01*
D02*
G37*
G36*
X1532500Y4713575D02*
Y4678500D01*
X1533729D01*
X1533486Y4691189D01*
X1536100Y4689396D01*
X1539021Y4687791D01*
X1542250Y4686375D01*
X1545785Y4685148D01*
X1549628Y4684110D01*
X1553778Y4683260D01*
X1556175Y4682905D01*
X1558241Y4683451D01*
X1560331Y4684200D01*
X1562194Y4685085D01*
X1563832Y4686105D01*
X1564274Y4686469D01*
X1561587Y4692958D01*
X1546958Y4707587D01*
X1532500Y4713575D01*
D02*
G37*
G36*
X1024500D02*
Y4678500D01*
X1025486D01*
Y4691189D01*
X1028884Y4688778D01*
X1032462Y4686621D01*
X1036221Y4684718D01*
X1040161Y4683068D01*
X1044282Y4681672D01*
X1048584Y4680530D01*
X1053066Y4679642D01*
X1057729Y4679007D01*
X1059420Y4678875D01*
X1053587Y4692958D01*
X1038958Y4707587D01*
X1024500Y4713575D01*
D02*
G37*
G36*
X1502500D02*
X1488042Y4707587D01*
X1473413Y4692958D01*
X1467425Y4678500D01*
X1502500D01*
Y4713575D01*
D02*
G37*
G36*
X994500D02*
X980042Y4707587D01*
X965413Y4692958D01*
X959425Y4678500D01*
X994500D01*
Y4713575D01*
D02*
G37*
G36*
X1025486Y4648500D02*
X1024500D01*
Y4613425D01*
X1038958Y4619413D01*
X1053587Y4634042D01*
X1059420Y4648125D01*
X1057729Y4647992D01*
X1053066Y4647358D01*
X1048584Y4646470D01*
X1044282Y4645328D01*
X1040161Y4643932D01*
X1036221Y4642282D01*
X1032462Y4640379D01*
X1028884Y4638222D01*
X1025486Y4635811D01*
Y4648500D01*
D02*
G37*
G36*
X994500D02*
X959425D01*
X965413Y4634042D01*
X980042Y4619413D01*
X994500Y4613425D01*
Y4648500D01*
D02*
G37*
G36*
X1399392Y4581204D02*
X1381608D01*
X1365177Y4574398D01*
X1352602Y4561823D01*
X1352010Y4560395D01*
X1319942D01*
X1319199Y4562187D01*
X1307187Y4574199D01*
X1291493Y4580700D01*
X1274506D01*
X1258813Y4574199D01*
X1246801Y4562187D01*
X1240300Y4546494D01*
Y4529507D01*
X1246801Y4513813D01*
X1258813Y4501801D01*
X1274506Y4495300D01*
X1291493D01*
X1307187Y4501801D01*
X1319199Y4513813D01*
X1319320Y4514105D01*
X1351389D01*
X1352602Y4511177D01*
X1365177Y4498602D01*
X1381608Y4491796D01*
X1399392D01*
X1415823Y4498602D01*
X1428398Y4511177D01*
X1435204Y4527608D01*
Y4545392D01*
X1428398Y4561823D01*
X1415823Y4574398D01*
X1399392Y4581204D01*
D02*
G37*
G36*
X897500Y4586575D02*
Y4551500D01*
X932575D01*
X926587Y4565958D01*
X911958Y4580587D01*
X897500Y4586575D01*
D02*
G37*
G36*
X867500D02*
X853042Y4580587D01*
X838413Y4565958D01*
X833444Y4553962D01*
X834641Y4553403D01*
X836724Y4552718D01*
X837769Y4552483D01*
X838934Y4552642D01*
X843416Y4553530D01*
X847718Y4554672D01*
X851838Y4556068D01*
X855778Y4557718D01*
X859538Y4559621D01*
X863116Y4561778D01*
X866514Y4564189D01*
Y4551500D01*
X867500D01*
Y4586575D01*
D02*
G37*
G36*
Y4521500D02*
X866514D01*
Y4508811D01*
X863116Y4511222D01*
X859538Y4513379D01*
X855778Y4515282D01*
X851838Y4516932D01*
X847718Y4518328D01*
X843416Y4519470D01*
X838934Y4520358D01*
X834271Y4520992D01*
X832580Y4521125D01*
X838413Y4507042D01*
X853042Y4492413D01*
X867500Y4486425D01*
Y4521500D01*
D02*
G37*
G36*
X1018392Y4581204D02*
X1000608D01*
X984177Y4574398D01*
X971602Y4561823D01*
X964796Y4545392D01*
Y4527608D01*
X971602Y4511177D01*
X984177Y4498602D01*
X1000608Y4491796D01*
X1018392D01*
X1034823Y4498602D01*
X1047398Y4511177D01*
X1047990Y4512605D01*
X1080058D01*
X1080801Y4510812D01*
X1092812Y4498801D01*
X1108506Y4492300D01*
X1125493D01*
X1141187Y4498801D01*
X1153199Y4510812D01*
X1159700Y4526506D01*
Y4543493D01*
X1153199Y4559187D01*
X1141187Y4571199D01*
X1125493Y4577700D01*
X1108506D01*
X1092812Y4571199D01*
X1080801Y4559187D01*
X1080680Y4558895D01*
X1048611D01*
X1047398Y4561823D01*
X1034823Y4574398D01*
X1018392Y4581204D01*
D02*
G37*
G36*
X932575Y4521500D02*
X897500D01*
Y4486425D01*
X911958Y4492413D01*
X926587Y4507042D01*
X932575Y4521500D01*
D02*
G37*
G36*
X891392Y4454204D02*
X873608D01*
X857177Y4447398D01*
X844602Y4434823D01*
X844010Y4433395D01*
X811942D01*
X811199Y4435187D01*
X799187Y4447199D01*
X783493Y4453700D01*
X766506D01*
X750813Y4447199D01*
X738801Y4435187D01*
X732300Y4419494D01*
Y4402507D01*
X738801Y4386813D01*
X750813Y4374801D01*
X766506Y4368300D01*
X783493D01*
X799187Y4374801D01*
X811199Y4386813D01*
X811320Y4387105D01*
X843389D01*
X844602Y4384177D01*
X857177Y4371602D01*
X873608Y4364796D01*
X891392D01*
X907823Y4371602D01*
X920398Y4384177D01*
X927204Y4400608D01*
Y4418392D01*
X920398Y4434823D01*
X907823Y4447398D01*
X891392Y4454204D01*
D02*
G37*
G36*
X1375500Y4459575D02*
X1361042Y4453587D01*
X1346413Y4438958D01*
X1340580Y4424875D01*
X1342271Y4425007D01*
X1346934Y4425642D01*
X1351416Y4426530D01*
X1355718Y4427672D01*
X1359838Y4429068D01*
X1363778Y4430718D01*
X1367538Y4432621D01*
X1371116Y4434778D01*
X1374514Y4437189D01*
Y4424500D01*
X1375500D01*
Y4459575D01*
D02*
G37*
G36*
X891392Y4327204D02*
X873608D01*
X857177Y4320398D01*
X844602Y4307823D01*
X844010Y4306395D01*
X811942D01*
X811199Y4308187D01*
X799187Y4320199D01*
X783493Y4326700D01*
X766506D01*
X750813Y4320199D01*
X738801Y4308187D01*
X732300Y4292494D01*
Y4275507D01*
X738801Y4259813D01*
X750813Y4247801D01*
X766506Y4241300D01*
X783493D01*
X799187Y4247801D01*
X811199Y4259813D01*
X811320Y4260105D01*
X843389D01*
X844602Y4257177D01*
X857177Y4244602D01*
X873608Y4237796D01*
X891392D01*
X907823Y4244602D01*
X920398Y4257177D01*
X927204Y4273608D01*
Y4291392D01*
X920398Y4307823D01*
X907823Y4320398D01*
X891392Y4327204D01*
D02*
G37*
G36*
X1024500Y4332575D02*
Y4297500D01*
X1059575D01*
X1053587Y4311958D01*
X1038958Y4326587D01*
X1024500Y4332575D01*
D02*
G37*
G36*
X994500D02*
X980042Y4326587D01*
X965413Y4311958D01*
X959425Y4297500D01*
X994500D01*
Y4332575D01*
D02*
G37*
G36*
X1059575Y4267500D02*
X1048473D01*
X1049154Y4266300D01*
X1051660Y4262485D01*
X1054464Y4258746D01*
X1055462Y4257569D01*
X1059575Y4267500D01*
D02*
G37*
G36*
X1024500Y4242789D02*
Y4232425D01*
X1033336Y4236085D01*
X1028269Y4240220D01*
X1024500Y4242789D01*
D02*
G37*
G36*
X994500Y4267500D02*
X959425D01*
X965413Y4253042D01*
X980042Y4238413D01*
X994500Y4232425D01*
Y4267500D01*
D02*
G37*
G36*
X867500Y4205575D02*
X858664Y4201915D01*
X863731Y4197780D01*
X867500Y4195211D01*
Y4205575D01*
D02*
G37*
G36*
X897500D02*
Y4170500D01*
X932575D01*
X926587Y4184958D01*
X911958Y4199587D01*
X897500Y4205575D01*
D02*
G37*
G36*
X836538Y4180431D02*
X832425Y4170500D01*
X843527D01*
X842845Y4171700D01*
X840339Y4175515D01*
X837535Y4179254D01*
X836538Y4180431D01*
D02*
G37*
G36*
X932575Y4140500D02*
X897500D01*
Y4105425D01*
X911958Y4111413D01*
X926587Y4126042D01*
X932575Y4140500D01*
D02*
G37*
G36*
X867500D02*
X832425D01*
X838413Y4126042D01*
X853042Y4111413D01*
X867500Y4105425D01*
Y4140500D01*
D02*
G37*
G36*
X891392Y4073204D02*
X873608D01*
X857177Y4066398D01*
X844602Y4053823D01*
X844010Y4052395D01*
X811942D01*
X811199Y4054187D01*
X799187Y4066199D01*
X783493Y4072700D01*
X766506D01*
X750813Y4066199D01*
X738801Y4054187D01*
X732300Y4038494D01*
Y4021507D01*
X738801Y4005813D01*
X750813Y3993801D01*
X766506Y3987300D01*
X783493D01*
X799187Y3993801D01*
X811199Y4005813D01*
X811320Y4006105D01*
X843389D01*
X844602Y4003177D01*
X857177Y3990602D01*
X873608Y3983796D01*
X891392D01*
X907823Y3990602D01*
X920398Y4003177D01*
X927204Y4019608D01*
Y4037392D01*
X920398Y4053823D01*
X907823Y4066398D01*
X891392Y4073204D01*
D02*
G37*
G36*
X1351166Y4013500D02*
X1340425D01*
X1344329Y4004073D01*
X1345431Y4005362D01*
X1348280Y4009108D01*
X1350821Y4012905D01*
X1351166Y4013500D01*
D02*
G37*
G36*
X1544743D02*
X1532500D01*
Y3978425D01*
X1546958Y3984413D01*
X1561587Y3999042D01*
X1564449Y4005952D01*
X1559690Y4010963D01*
X1558282Y4012380D01*
X1544706Y4012385D01*
X1544743Y4013500D01*
D02*
G37*
G36*
X1375500Y3989166D02*
X1374905Y3988821D01*
X1371108Y3986280D01*
X1367362Y3983431D01*
X1366072Y3982330D01*
X1375500Y3978425D01*
Y3989166D01*
D02*
G37*
G36*
X891392Y3946204D02*
X873608D01*
X857177Y3939398D01*
X844602Y3926823D01*
X844010Y3925395D01*
X811942D01*
X811199Y3927187D01*
X799187Y3939199D01*
X783493Y3945700D01*
X766506D01*
X750813Y3939199D01*
X738801Y3927187D01*
X732300Y3911494D01*
Y3894507D01*
X738801Y3878813D01*
X750813Y3866801D01*
X766506Y3860300D01*
X783493D01*
X799187Y3866801D01*
X811199Y3878813D01*
X811320Y3879105D01*
X843389D01*
X844602Y3876177D01*
X857177Y3863602D01*
X873608Y3856796D01*
X891392D01*
X907823Y3863602D01*
X920398Y3876177D01*
X927204Y3892608D01*
Y3910392D01*
X920398Y3926823D01*
X907823Y3939398D01*
X891392Y3946204D01*
D02*
G37*
G36*
X1024500Y3951575D02*
Y3916500D01*
X1059575D01*
X1053587Y3930958D01*
X1038958Y3945587D01*
X1024500Y3951575D01*
D02*
G37*
G36*
X994500D02*
X980042Y3945587D01*
X965413Y3930958D01*
X959425Y3916500D01*
X994500D01*
Y3951575D01*
D02*
G37*
G36*
X1399392Y3946204D02*
X1381608D01*
X1365177Y3939398D01*
X1352602Y3926823D01*
X1345796Y3910392D01*
Y3901637D01*
X1322686Y3883792D01*
X1297065Y3891619D01*
X1294199Y3898537D01*
X1282187Y3910549D01*
X1266494Y3917050D01*
X1249507D01*
X1233813Y3910549D01*
X1221801Y3898537D01*
X1215300Y3882843D01*
Y3865856D01*
X1221801Y3850162D01*
X1233665Y3838000D01*
X1221801Y3825837D01*
X1215300Y3810144D01*
Y3793156D01*
X1221801Y3777463D01*
X1233813Y3765451D01*
X1249507Y3758950D01*
X1266494D01*
X1282187Y3765451D01*
X1294199Y3777463D01*
X1297065Y3784382D01*
X1322686Y3792208D01*
X1345796Y3774364D01*
Y3765608D01*
X1352602Y3749177D01*
X1365177Y3736602D01*
X1381608Y3729796D01*
X1399392D01*
X1415823Y3736602D01*
X1428398Y3749177D01*
X1435204Y3765608D01*
Y3783392D01*
X1428398Y3799823D01*
X1415823Y3812398D01*
X1403170Y3817639D01*
X1393364Y3838572D01*
X1402572Y3858113D01*
X1415823Y3863602D01*
X1428398Y3876177D01*
X1435204Y3892608D01*
Y3910392D01*
X1428398Y3926823D01*
X1415823Y3939398D01*
X1399392Y3946204D01*
D02*
G37*
G36*
X970527Y3886500D02*
X959425D01*
X963538Y3876569D01*
X964535Y3877746D01*
X967339Y3881485D01*
X969845Y3885300D01*
X970527Y3886500D01*
D02*
G37*
G36*
X1059575D02*
X1024500D01*
Y3851425D01*
X1038958Y3857413D01*
X1053587Y3872042D01*
X1059575Y3886500D01*
D02*
G37*
G36*
X994500Y3861789D02*
X990731Y3859220D01*
X986978Y3856327D01*
X985577Y3855120D01*
X994500Y3851425D01*
Y3861789D01*
D02*
G37*
G36*
X897500Y3824575D02*
Y3813473D01*
X898700Y3814154D01*
X902515Y3816660D01*
X906254Y3819465D01*
X907431Y3820462D01*
X897500Y3824575D01*
D02*
G37*
G36*
X928915Y3798336D02*
X924780Y3793269D01*
X922211Y3789500D01*
X932575D01*
X928915Y3798336D01*
D02*
G37*
G36*
X867500Y3824575D02*
X853042Y3818587D01*
X838413Y3803958D01*
X832425Y3789500D01*
X867500D01*
Y3824575D01*
D02*
G37*
G36*
X1526392Y3946204D02*
X1508608D01*
X1492177Y3939398D01*
X1479602Y3926823D01*
X1472796Y3910392D01*
Y3892608D01*
X1479602Y3876177D01*
X1492177Y3863602D01*
X1504830Y3858361D01*
X1514636Y3837428D01*
X1505428Y3817887D01*
X1492177Y3812398D01*
X1479602Y3799823D01*
X1472796Y3783392D01*
Y3765608D01*
X1479602Y3749177D01*
X1492177Y3736602D01*
X1508608Y3729796D01*
X1526392D01*
X1542823Y3736602D01*
X1555398Y3749177D01*
X1562204Y3765608D01*
Y3774363D01*
X1585313Y3792208D01*
X1610935Y3784381D01*
X1613801Y3777463D01*
X1625812Y3765451D01*
X1641506Y3758950D01*
X1658493D01*
X1674187Y3765451D01*
X1686199Y3777463D01*
X1692700Y3793156D01*
Y3810144D01*
X1686199Y3825837D01*
X1674335Y3838000D01*
X1686199Y3850163D01*
X1692700Y3865856D01*
Y3882843D01*
X1686199Y3898537D01*
X1674187Y3910549D01*
X1658493Y3917050D01*
X1641506D01*
X1625812Y3910549D01*
X1613801Y3898537D01*
X1610935Y3891618D01*
X1585313Y3883792D01*
X1562204Y3901636D01*
Y3910392D01*
X1555398Y3926823D01*
X1542823Y3939398D01*
X1526392Y3946204D01*
D02*
G37*
G36*
X932575Y3759500D02*
X897500D01*
Y3724425D01*
X911958Y3730413D01*
X926587Y3745042D01*
X932575Y3759500D01*
D02*
G37*
G36*
X867500D02*
X832425D01*
X838413Y3745042D01*
X853042Y3730413D01*
X867500Y3724425D01*
Y3759500D01*
D02*
G37*
G36*
X3618221Y4084994D02*
X3581780D01*
X3546039Y4077885D01*
X3512372Y4063940D01*
X3482073Y4043694D01*
X3456306Y4017927D01*
X3436060Y3987628D01*
X3422115Y3953961D01*
X3415006Y3918220D01*
Y3881779D01*
X3422115Y3846039D01*
X3436060Y3812372D01*
X3456306Y3782073D01*
X3482073Y3756305D01*
X3512372Y3736060D01*
X3546039Y3722114D01*
X3581780Y3715005D01*
X3618221D01*
X3653961Y3722114D01*
X3687628Y3736060D01*
X3717927Y3756305D01*
X3743695Y3782073D01*
X3763940Y3812372D01*
X3777886Y3846039D01*
X3784995Y3881779D01*
Y3918220D01*
X3777886Y3953961D01*
X3763940Y3987628D01*
X3743695Y4017927D01*
X3717927Y4043694D01*
X3687628Y4063940D01*
X3653961Y4077885D01*
X3618221Y4084994D01*
D02*
G37*
G36*
X1532500Y3697575D02*
Y3662500D01*
X1567575D01*
X1561587Y3676958D01*
X1546958Y3691587D01*
X1532500Y3697575D01*
D02*
G37*
G36*
X1375500D02*
X1361042Y3691587D01*
X1346413Y3676958D01*
X1340425Y3662500D01*
X1375500D01*
Y3697575D01*
D02*
G37*
G36*
X1018392Y3819204D02*
X1000608D01*
X984177Y3812398D01*
X971602Y3799823D01*
X964796Y3783392D01*
Y3765608D01*
X971602Y3749177D01*
X984177Y3736602D01*
X996830Y3731361D01*
X1006636Y3710428D01*
X997428Y3690887D01*
X984177Y3685398D01*
X971602Y3672823D01*
X964796Y3656392D01*
Y3638608D01*
X971602Y3622177D01*
X984177Y3609602D01*
X1000608Y3602796D01*
X1018392D01*
X1034823Y3609602D01*
X1047398Y3622177D01*
X1054204Y3638608D01*
Y3647363D01*
X1077313Y3665208D01*
X1102935Y3657381D01*
X1105801Y3650463D01*
X1117812Y3638451D01*
X1133506Y3631950D01*
X1150493D01*
X1166187Y3638451D01*
X1178199Y3650463D01*
X1184700Y3666156D01*
Y3683144D01*
X1178199Y3698837D01*
X1166335Y3711000D01*
X1178199Y3723163D01*
X1184700Y3738856D01*
Y3755843D01*
X1178199Y3771537D01*
X1166187Y3783549D01*
X1150493Y3790050D01*
X1133506D01*
X1117812Y3783549D01*
X1105801Y3771537D01*
X1102935Y3764618D01*
X1077313Y3756792D01*
X1054204Y3774636D01*
Y3783392D01*
X1047398Y3799823D01*
X1034823Y3812398D01*
X1018392Y3819204D01*
D02*
G37*
G36*
X891392Y3692204D02*
X873608D01*
X857177Y3685398D01*
X844602Y3672823D01*
X837796Y3656392D01*
Y3647637D01*
X814686Y3629792D01*
X789065Y3637619D01*
X786199Y3644537D01*
X774187Y3656549D01*
X758494Y3663050D01*
X741507D01*
X725813Y3656549D01*
X713801Y3644537D01*
X707300Y3628843D01*
Y3611856D01*
X713801Y3596162D01*
Y3571837D01*
X707300Y3556144D01*
Y3539156D01*
X713801Y3523463D01*
X725813Y3511451D01*
X741507Y3504950D01*
X758494D01*
X774187Y3511451D01*
X786199Y3523463D01*
X789065Y3530382D01*
X814686Y3538208D01*
X837796Y3520364D01*
Y3511608D01*
X844602Y3495177D01*
X857177Y3482602D01*
X873608Y3475796D01*
X891392D01*
X907823Y3482602D01*
X920398Y3495177D01*
X927204Y3511608D01*
Y3529392D01*
X920398Y3545823D01*
X907823Y3558398D01*
X895170Y3563639D01*
X885364Y3584572D01*
X894572Y3604113D01*
X907823Y3609602D01*
X920398Y3622177D01*
X927204Y3638608D01*
Y3656392D01*
X920398Y3672823D01*
X907823Y3685398D01*
X891392Y3692204D01*
D02*
G37*
G36*
X1567575Y3632500D02*
X1555177D01*
X1558956Y3627927D01*
X1563622Y3622956D01*
X1567575Y3632500D01*
D02*
G37*
G36*
X1375500D02*
X1340425D01*
X1346413Y3618042D01*
X1361042Y3603413D01*
X1375500Y3597425D01*
Y3632500D01*
D02*
G37*
G36*
X1405500Y3697575D02*
Y3647500D01*
Y3597425D01*
X1419958Y3603413D01*
X1434587Y3618042D01*
X1437779Y3625750D01*
X1470220D01*
X1473413Y3618042D01*
X1488042Y3603413D01*
X1495750Y3600220D01*
Y3567780D01*
X1488042Y3564587D01*
X1473413Y3549958D01*
X1467425Y3535500D01*
X1517500D01*
X1540402D01*
Y3542224D01*
X1540712Y3540946D01*
X1541641Y3539803D01*
X1543190Y3538795D01*
X1545359Y3537921D01*
X1548147Y3537181D01*
X1551555Y3536576D01*
X1555582Y3536105D01*
X1565496Y3535567D01*
X1567557Y3535544D01*
X1561587Y3549958D01*
X1546958Y3564587D01*
X1539249Y3567780D01*
Y3600220D01*
X1542170Y3601430D01*
X1532252Y3610028D01*
X1527850Y3613257D01*
X1523867Y3615732D01*
X1520305Y3617453D01*
X1517161Y3618418D01*
X1514438Y3618630D01*
X1512134Y3618087D01*
X1510249Y3616789D01*
X1525960Y3632500D01*
X1517500D01*
Y3647500D01*
X1502500D01*
Y3697575D01*
X1488042Y3691587D01*
X1473413Y3676958D01*
X1470220Y3669249D01*
X1437779D01*
X1434587Y3676958D01*
X1419958Y3691587D01*
X1405500Y3697575D01*
D02*
G37*
G36*
X1024500Y3570575D02*
Y3535500D01*
X1059575D01*
X1053587Y3549958D01*
X1038958Y3564587D01*
X1024500Y3570575D01*
D02*
G37*
G36*
X994500D02*
X980042Y3564587D01*
X965413Y3549958D01*
X959425Y3535500D01*
X994500D01*
Y3570575D01*
D02*
G37*
G36*
X1059575Y3505500D02*
X1048473D01*
X1049154Y3504300D01*
X1051660Y3500485D01*
X1054464Y3496746D01*
X1055462Y3495569D01*
X1059575Y3505500D01*
D02*
G37*
G36*
X1399392Y3565204D02*
X1381608D01*
X1365177Y3558398D01*
X1352602Y3545823D01*
X1345796Y3529392D01*
Y3511608D01*
X1352602Y3495177D01*
X1365177Y3482602D01*
X1381608Y3475796D01*
X1399392D01*
X1415823Y3482602D01*
X1428398Y3495177D01*
X1435204Y3511608D01*
Y3529392D01*
X1428398Y3545823D01*
X1415823Y3558398D01*
X1399392Y3565204D01*
D02*
G37*
G36*
X1540402Y3505500D02*
X1532500D01*
Y3470425D01*
X1546958Y3476413D01*
X1561587Y3491042D01*
X1567557Y3505456D01*
X1565496Y3505433D01*
X1551555Y3504424D01*
X1548147Y3503819D01*
X1545359Y3503079D01*
X1543190Y3502205D01*
X1541641Y3501196D01*
X1540712Y3500053D01*
X1540402Y3498776D01*
Y3505500D01*
D02*
G37*
G36*
X1024500Y3480789D02*
Y3470425D01*
X1033336Y3474085D01*
X1028269Y3478220D01*
X1024500Y3480789D01*
D02*
G37*
G36*
X1502500Y3505500D02*
X1467425D01*
X1473413Y3491042D01*
X1488042Y3476413D01*
X1502500Y3470425D01*
Y3505500D01*
D02*
G37*
G36*
X994500D02*
X959425D01*
X965413Y3491042D01*
X980042Y3476413D01*
X994500Y3470425D01*
Y3505500D01*
D02*
G37*
G36*
X897500Y3443575D02*
Y3408500D01*
X932575D01*
X926587Y3422958D01*
X911958Y3437587D01*
X897500Y3443575D01*
D02*
G37*
G36*
X867500D02*
X853042Y3437587D01*
X838413Y3422958D01*
X832425Y3408500D01*
X867500D01*
Y3443575D01*
D02*
G37*
G36*
X932575Y3378500D02*
X921473D01*
X922154Y3377300D01*
X924660Y3373485D01*
X927464Y3369746D01*
X928462Y3368569D01*
X932575Y3378500D01*
D02*
G37*
G36*
X1526392Y3438204D02*
X1508608D01*
X1492177Y3431398D01*
X1479602Y3418823D01*
X1472796Y3402392D01*
Y3384608D01*
X1479602Y3368177D01*
X1492177Y3355602D01*
X1508608Y3348796D01*
X1526392D01*
X1542823Y3355602D01*
X1555398Y3368177D01*
X1555990Y3369605D01*
X1588058D01*
X1588801Y3367812D01*
X1600812Y3355801D01*
X1616506Y3349300D01*
X1633493D01*
X1649187Y3355801D01*
X1661199Y3367812D01*
X1667700Y3383506D01*
Y3400493D01*
X1661199Y3416187D01*
X1649187Y3428199D01*
X1633493Y3434700D01*
X1616506D01*
X1600812Y3428199D01*
X1588801Y3416187D01*
X1588680Y3415895D01*
X1556611D01*
X1555398Y3418823D01*
X1542823Y3431398D01*
X1526392Y3438204D01*
D02*
G37*
G36*
X1399392D02*
X1381608D01*
X1365177Y3431398D01*
X1352602Y3418823D01*
X1345796Y3402392D01*
Y3384608D01*
X1352602Y3368177D01*
X1365177Y3355602D01*
X1381608Y3348796D01*
X1399392D01*
X1415823Y3355602D01*
X1428398Y3368177D01*
X1435204Y3384608D01*
Y3402392D01*
X1428398Y3418823D01*
X1415823Y3431398D01*
X1399392Y3438204D01*
D02*
G37*
G36*
X897500Y3353789D02*
Y3343425D01*
X906336Y3347085D01*
X901269Y3351220D01*
X897500Y3353789D01*
D02*
G37*
G36*
X867500Y3378500D02*
X832425D01*
X838413Y3364042D01*
X853042Y3349413D01*
X867500Y3343425D01*
Y3378500D01*
D02*
G37*
G36*
X1018392Y3438204D02*
X1000608D01*
X984177Y3431398D01*
X971602Y3418823D01*
X964796Y3402392D01*
Y3384608D01*
X971602Y3368177D01*
X984177Y3355602D01*
X996830Y3350361D01*
X1006636Y3329428D01*
X997428Y3309887D01*
X984177Y3304398D01*
X971602Y3291823D01*
X964796Y3275392D01*
Y3257608D01*
X971602Y3241177D01*
X984177Y3228602D01*
X1000608Y3221796D01*
X1018392D01*
X1034823Y3228602D01*
X1047398Y3241177D01*
X1054204Y3257608D01*
Y3266363D01*
X1077313Y3284208D01*
X1102935Y3276381D01*
X1105801Y3269463D01*
X1117812Y3257451D01*
X1133506Y3250950D01*
X1150493D01*
X1166187Y3257451D01*
X1178199Y3269463D01*
X1184700Y3285156D01*
Y3302144D01*
X1178199Y3317837D01*
X1166335Y3330000D01*
X1178199Y3342163D01*
X1184700Y3357856D01*
Y3374843D01*
X1178199Y3390537D01*
X1166187Y3402549D01*
X1150493Y3409050D01*
X1133506D01*
X1117812Y3402549D01*
X1105801Y3390537D01*
X1102935Y3383618D01*
X1077313Y3375792D01*
X1054204Y3393636D01*
Y3402392D01*
X1047398Y3418823D01*
X1034823Y3431398D01*
X1018392Y3438204D01*
D02*
G37*
G36*
X891392Y3311204D02*
X873608D01*
X857177Y3304398D01*
X844602Y3291823D01*
X837796Y3275392D01*
Y3266637D01*
X814686Y3248792D01*
X789065Y3256619D01*
X786199Y3263537D01*
X774187Y3275549D01*
X758494Y3282050D01*
X741507D01*
X725813Y3275549D01*
X713801Y3263537D01*
X707300Y3247843D01*
Y3230856D01*
X713801Y3215162D01*
Y3190837D01*
X707300Y3175144D01*
Y3158156D01*
X713801Y3142463D01*
X725813Y3130451D01*
X741507Y3123950D01*
X758494D01*
X774187Y3130451D01*
X786199Y3142463D01*
X789065Y3149382D01*
X814686Y3157208D01*
X837796Y3139364D01*
Y3130608D01*
X844602Y3114177D01*
X857177Y3101602D01*
X873608Y3094796D01*
X891392D01*
X907823Y3101602D01*
X920398Y3114177D01*
X927204Y3130608D01*
Y3148392D01*
X920398Y3164823D01*
X907823Y3177398D01*
X895170Y3182639D01*
X885364Y3203572D01*
X894572Y3223113D01*
X907823Y3228602D01*
X920398Y3241177D01*
X927204Y3257608D01*
Y3275392D01*
X920398Y3291823D01*
X907823Y3304398D01*
X891392Y3311204D01*
D02*
G37*
G36*
X1526392D02*
X1508608D01*
X1492177Y3304398D01*
X1479602Y3291823D01*
X1472796Y3275392D01*
Y3257608D01*
X1479602Y3241177D01*
X1492177Y3228602D01*
X1508608Y3221796D01*
X1526392D01*
X1542823Y3228602D01*
X1555398Y3241177D01*
X1555990Y3242605D01*
X1588058D01*
X1588801Y3240812D01*
X1600812Y3228801D01*
X1616506Y3222300D01*
X1633493D01*
X1649187Y3228801D01*
X1661199Y3240812D01*
X1667700Y3256506D01*
Y3273493D01*
X1661199Y3289187D01*
X1649187Y3301199D01*
X1633493Y3307700D01*
X1616506D01*
X1600812Y3301199D01*
X1588801Y3289187D01*
X1588680Y3288895D01*
X1556611D01*
X1555398Y3291823D01*
X1542823Y3304398D01*
X1526392Y3311204D01*
D02*
G37*
G36*
X1399392D02*
X1381608D01*
X1365177Y3304398D01*
X1352602Y3291823D01*
X1345796Y3275392D01*
Y3257608D01*
X1352602Y3241177D01*
X1365177Y3228602D01*
X1381608Y3221796D01*
X1399392D01*
X1415823Y3228602D01*
X1428398Y3241177D01*
X1435204Y3257608D01*
Y3275392D01*
X1428398Y3291823D01*
X1415823Y3304398D01*
X1399392Y3311204D01*
D02*
G37*
G36*
X1532500Y3189575D02*
Y3154500D01*
X1567575D01*
X1561587Y3168958D01*
X1546958Y3183587D01*
X1532500Y3189575D01*
D02*
G37*
G36*
X1024500D02*
Y3154500D01*
X1059575D01*
X1053587Y3168958D01*
X1038958Y3183587D01*
X1024500Y3189575D01*
D02*
G37*
G36*
X1502500D02*
X1488042Y3183587D01*
X1473413Y3168958D01*
X1467425Y3154500D01*
X1502500D01*
Y3189575D01*
D02*
G37*
G36*
X994500D02*
X980042Y3183587D01*
X965413Y3168958D01*
X959425Y3154500D01*
X994500D01*
Y3189575D01*
D02*
G37*
G36*
X3876503Y3282503D02*
X3856491D01*
X3837161Y3277324D01*
X3819830Y3267318D01*
X3805679Y3253167D01*
X3795673Y3235837D01*
X3790494Y3216506D01*
Y3196494D01*
X3795673Y3177164D01*
X3805679Y3159833D01*
X3819830Y3145683D01*
X3837161Y3135677D01*
X3856491Y3130497D01*
X3876503D01*
X3895833Y3135677D01*
X3913164Y3145683D01*
X3927315Y3159833D01*
X3937321Y3177164D01*
X3942500Y3196494D01*
Y3216506D01*
X3937321Y3235837D01*
X3927315Y3253167D01*
X3913164Y3267318D01*
X3895833Y3277324D01*
X3876503Y3282503D01*
D02*
G37*
G36*
X969789Y3124500D02*
X959425D01*
X963085Y3115664D01*
X967220Y3120731D01*
X969789Y3124500D01*
D02*
G37*
G36*
X1399392Y3184204D02*
X1381608D01*
X1365177Y3177398D01*
X1352602Y3164823D01*
X1345796Y3148392D01*
Y3130608D01*
X1352602Y3114177D01*
X1365177Y3101602D01*
X1381608Y3094796D01*
X1399392D01*
X1415823Y3101602D01*
X1428398Y3114177D01*
X1435204Y3130608D01*
Y3148392D01*
X1428398Y3164823D01*
X1415823Y3177398D01*
X1399392Y3184204D01*
D02*
G37*
G36*
X1059575Y3124500D02*
X1024500D01*
Y3089425D01*
X1038958Y3095413D01*
X1053587Y3110042D01*
X1059575Y3124500D01*
D02*
G37*
G36*
X994500Y3100527D02*
X993300Y3099845D01*
X989485Y3097340D01*
X985746Y3094535D01*
X984569Y3093538D01*
X994500Y3089425D01*
Y3100527D01*
D02*
G37*
G36*
X897500Y3062575D02*
Y3027500D01*
X932575D01*
X926587Y3041958D01*
X911958Y3056587D01*
X897500Y3062575D01*
D02*
G37*
G36*
X1567575Y3124500D02*
X1517500D01*
X1467425D01*
X1473413Y3110042D01*
X1488042Y3095413D01*
X1495750Y3092220D01*
Y3059780D01*
X1488042Y3056587D01*
X1473413Y3041958D01*
X1467425Y3027500D01*
X1517500D01*
X1567575D01*
X1561587Y3041958D01*
X1546958Y3056587D01*
X1539249Y3059780D01*
Y3092220D01*
X1546958Y3095413D01*
X1561587Y3110042D01*
X1567575Y3124500D01*
D02*
G37*
G36*
X867500Y3062575D02*
X853042Y3056587D01*
X838413Y3041958D01*
X832425Y3027500D01*
X867500D01*
Y3062575D01*
D02*
G37*
G36*
X1478166Y2997500D02*
X1467425D01*
X1471329Y2988073D01*
X1472431Y2989362D01*
X1475280Y2993108D01*
X1477821Y2996905D01*
X1478166Y2997500D01*
D02*
G37*
G36*
X932575D02*
X921473D01*
X922154Y2996300D01*
X924660Y2992485D01*
X927464Y2988746D01*
X928462Y2987569D01*
X932575Y2997500D01*
D02*
G37*
G36*
X4850000Y3113928D02*
X4350000D01*
X4325536Y3109062D01*
X4304796Y3095204D01*
X4290938Y3074464D01*
X4286072Y3050000D01*
X4290938Y3025536D01*
X4304796Y3004796D01*
X4325536Y2990938D01*
X4350000Y2986072D01*
X4850000D01*
X4874464Y2990938D01*
X4895204Y3004796D01*
X4909062Y3025536D01*
X4913928Y3050000D01*
X4909062Y3074464D01*
X4895204Y3095204D01*
X4874464Y3109062D01*
X4850000Y3113928D01*
D02*
G37*
G36*
X1399392Y3057204D02*
X1381608D01*
X1365177Y3050398D01*
X1352602Y3037823D01*
X1345796Y3021392D01*
Y3003608D01*
X1352602Y2987177D01*
X1365177Y2974602D01*
X1381608Y2967796D01*
X1399392D01*
X1415823Y2974602D01*
X1428398Y2987177D01*
X1435204Y3003608D01*
Y3021392D01*
X1428398Y3037823D01*
X1415823Y3050398D01*
X1399392Y3057204D01*
D02*
G37*
G36*
X1567575Y2997500D02*
X1532500D01*
Y2962425D01*
X1546958Y2968413D01*
X1561587Y2983042D01*
X1567575Y2997500D01*
D02*
G37*
G36*
X897500Y2972789D02*
Y2962425D01*
X906336Y2966085D01*
X901269Y2970220D01*
X897500Y2972789D01*
D02*
G37*
G36*
X1502500Y2973166D02*
X1501905Y2972821D01*
X1498108Y2970280D01*
X1494362Y2967431D01*
X1493072Y2966330D01*
X1502500Y2962425D01*
Y2973166D01*
D02*
G37*
G36*
X867500Y2997500D02*
X832425D01*
X838413Y2983042D01*
X853042Y2968413D01*
X867500Y2962425D01*
Y2997500D01*
D02*
G37*
G36*
X1018392Y3057204D02*
X1000608D01*
X984177Y3050398D01*
X971602Y3037823D01*
X964796Y3021392D01*
Y3003608D01*
X971602Y2987177D01*
X984177Y2974602D01*
X996830Y2969361D01*
X1006636Y2948428D01*
X997428Y2928887D01*
X984177Y2923398D01*
X971602Y2910823D01*
X964796Y2894392D01*
Y2876608D01*
X971602Y2860177D01*
X984177Y2847602D01*
X1000608Y2840796D01*
X1018392D01*
X1034823Y2847602D01*
X1047398Y2860177D01*
X1054204Y2876608D01*
Y2885363D01*
X1077313Y2903208D01*
X1102935Y2895381D01*
X1105801Y2888463D01*
X1117812Y2876451D01*
X1133506Y2869950D01*
X1150493D01*
X1166187Y2876451D01*
X1178199Y2888463D01*
X1184700Y2904156D01*
Y2921144D01*
X1178199Y2936837D01*
X1166335Y2949000D01*
X1178199Y2961163D01*
X1184700Y2976856D01*
Y2993843D01*
X1178199Y3009537D01*
X1166187Y3021549D01*
X1150493Y3028050D01*
X1133506D01*
X1117812Y3021549D01*
X1105801Y3009537D01*
X1102935Y3002618D01*
X1077313Y2994792D01*
X1054204Y3012636D01*
Y3021392D01*
X1047398Y3037823D01*
X1034823Y3050398D01*
X1018392Y3057204D01*
D02*
G37*
G36*
X891392Y2930204D02*
X873608D01*
X857177Y2923398D01*
X844602Y2910823D01*
X837796Y2894392D01*
Y2885637D01*
X814686Y2867792D01*
X789065Y2875619D01*
X786199Y2882537D01*
X774187Y2894549D01*
X758494Y2901050D01*
X741507D01*
X725813Y2894549D01*
X713801Y2882537D01*
X707300Y2866843D01*
Y2849856D01*
X713801Y2834162D01*
Y2809837D01*
X707300Y2794144D01*
Y2777156D01*
X713801Y2761463D01*
X725813Y2749451D01*
X741507Y2742950D01*
X758494D01*
X774187Y2749451D01*
X786199Y2761463D01*
X789065Y2768382D01*
X814686Y2776208D01*
X837796Y2758364D01*
Y2749608D01*
X844602Y2733177D01*
X857177Y2720602D01*
X873608Y2713796D01*
X891392D01*
X907823Y2720602D01*
X920398Y2733177D01*
X927204Y2749608D01*
Y2767392D01*
X920398Y2783823D01*
X907823Y2796398D01*
X895170Y2801639D01*
X885364Y2822572D01*
X894572Y2842113D01*
X907823Y2847602D01*
X920398Y2860177D01*
X927204Y2876608D01*
Y2894392D01*
X920398Y2910823D01*
X907823Y2923398D01*
X891392Y2930204D01*
D02*
G37*
G36*
X1399392D02*
X1381608D01*
X1365177Y2923398D01*
X1352602Y2910823D01*
X1345796Y2894392D01*
Y2876608D01*
X1352602Y2860177D01*
X1365177Y2847602D01*
X1381608Y2840796D01*
X1399392D01*
X1415823Y2847602D01*
X1428398Y2860177D01*
X1435204Y2876608D01*
Y2894392D01*
X1428398Y2910823D01*
X1415823Y2923398D01*
X1399392Y2930204D01*
D02*
G37*
G36*
X4083493Y2917700D02*
X4066506D01*
X4050813Y2911199D01*
X4038801Y2899187D01*
X4032300Y2883494D01*
Y2866507D01*
X4038801Y2850813D01*
X4050813Y2838801D01*
X4066506Y2832300D01*
X4083493D01*
X4099187Y2838801D01*
X4111199Y2850813D01*
X4117700Y2866507D01*
Y2883494D01*
X4111199Y2899187D01*
X4099187Y2911199D01*
X4083493Y2917700D01*
D02*
G37*
G36*
X1024500Y2808575D02*
Y2773500D01*
X1059575D01*
X1053587Y2787958D01*
X1038958Y2802587D01*
X1024500Y2808575D01*
D02*
G37*
G36*
X994500D02*
X980042Y2802587D01*
X965413Y2787958D01*
X959425Y2773500D01*
X994500D01*
Y2808575D01*
D02*
G37*
G36*
X969789Y2743500D02*
X959425D01*
X963085Y2734664D01*
X967220Y2739731D01*
X969789Y2743500D01*
D02*
G37*
G36*
X1399392Y2803204D02*
X1381608D01*
X1365177Y2796398D01*
X1352602Y2783823D01*
X1345796Y2767392D01*
Y2749608D01*
X1352602Y2733177D01*
X1365177Y2720602D01*
X1381608Y2713796D01*
X1399392D01*
X1415823Y2720602D01*
X1428398Y2733177D01*
X1435204Y2749608D01*
Y2767392D01*
X1428398Y2783823D01*
X1415823Y2796398D01*
X1399392Y2803204D01*
D02*
G37*
G36*
X1059575Y2743500D02*
X1024500D01*
Y2708425D01*
X1038958Y2714413D01*
X1053587Y2729042D01*
X1059575Y2743500D01*
D02*
G37*
G36*
X994500Y2719527D02*
X993300Y2718845D01*
X989485Y2716340D01*
X985746Y2713535D01*
X984569Y2712538D01*
X994500Y2708425D01*
Y2719527D01*
D02*
G37*
G36*
X1502500Y2681575D02*
X1493072Y2677670D01*
X1494362Y2676569D01*
X1498108Y2673720D01*
X1501905Y2671179D01*
X1502500Y2670834D01*
Y2681575D01*
D02*
G37*
G36*
X1532500D02*
Y2670834D01*
X1533094Y2671179D01*
X1536892Y2673720D01*
X1540638Y2676569D01*
X1541927Y2677670D01*
X1532500Y2681575D01*
D02*
G37*
G36*
X1563670Y2655927D02*
X1562569Y2654638D01*
X1559720Y2650892D01*
X1557179Y2647095D01*
X1556834Y2646500D01*
X1567575D01*
X1563670Y2655927D01*
D02*
G37*
G36*
X897500Y2681575D02*
Y2646500D01*
X932575D01*
X926587Y2660958D01*
X911958Y2675587D01*
X897500Y2681575D01*
D02*
G37*
G36*
X1471329Y2655927D02*
X1467425Y2646500D01*
X1478166D01*
X1477821Y2647095D01*
X1475280Y2650892D01*
X1472431Y2654638D01*
X1471329Y2655927D01*
D02*
G37*
G36*
X867500Y2681575D02*
X853042Y2675587D01*
X838413Y2660958D01*
X832425Y2646500D01*
X867500D01*
Y2681575D01*
D02*
G37*
G36*
X1567575Y2616500D02*
X1556834D01*
X1557179Y2615905D01*
X1559720Y2612108D01*
X1562569Y2608362D01*
X1563670Y2607073D01*
X1567575Y2616500D01*
D02*
G37*
G36*
X932575D02*
X921473D01*
X922154Y2615300D01*
X924660Y2611485D01*
X927464Y2607746D01*
X928462Y2606569D01*
X932575Y2616500D01*
D02*
G37*
G36*
X1399392Y2676204D02*
X1381608D01*
X1365177Y2669398D01*
X1352602Y2656823D01*
X1345796Y2640392D01*
Y2622608D01*
X1352602Y2606177D01*
X1365177Y2593602D01*
X1381608Y2586796D01*
X1399392D01*
X1415823Y2593602D01*
X1428398Y2606177D01*
X1435204Y2622608D01*
Y2640392D01*
X1428398Y2656823D01*
X1415823Y2669398D01*
X1399392Y2676204D01*
D02*
G37*
G36*
X1018392D02*
X1000608D01*
X984177Y2669398D01*
X971602Y2656823D01*
X964796Y2640392D01*
Y2622608D01*
X971602Y2606177D01*
X984177Y2593602D01*
X1000608Y2586796D01*
X1018392D01*
X1034823Y2593602D01*
X1047398Y2606177D01*
X1054204Y2622608D01*
Y2640392D01*
X1047398Y2656823D01*
X1034823Y2669398D01*
X1018392Y2676204D01*
D02*
G37*
G36*
X1532500Y2592166D02*
Y2581425D01*
X1541927Y2585330D01*
X1540638Y2586431D01*
X1536892Y2589280D01*
X1533094Y2591821D01*
X1532500Y2592166D01*
D02*
G37*
G36*
X897500Y2591789D02*
Y2581425D01*
X906336Y2585085D01*
X901269Y2589220D01*
X897500Y2591789D01*
D02*
G37*
G36*
X1502500Y2616500D02*
X1467425D01*
X1473413Y2602042D01*
X1488042Y2587413D01*
X1502500Y2581425D01*
Y2616500D01*
D02*
G37*
G36*
X867500D02*
X832425D01*
X838413Y2602042D01*
X853042Y2587413D01*
X867500Y2581425D01*
Y2616500D01*
D02*
G37*
G36*
X1405500Y2554575D02*
Y2543473D01*
X1406700Y2544154D01*
X1410515Y2546660D01*
X1414254Y2549465D01*
X1415431Y2550462D01*
X1405500Y2554575D01*
D02*
G37*
G36*
X3108494Y2679049D02*
X3091507D01*
X3075813Y2672548D01*
X3063801Y2660536D01*
X3057300Y2644843D01*
Y2627856D01*
X3063801Y2612162D01*
X3075665Y2599999D01*
X3063801Y2587836D01*
X3057300Y2572143D01*
Y2555156D01*
X3063801Y2539462D01*
X3075813Y2527450D01*
X3091507Y2520949D01*
X3108494D01*
X3124188Y2527450D01*
X3136199Y2539462D01*
X3142700Y2555156D01*
Y2572143D01*
X3136199Y2587837D01*
X3124335Y2599999D01*
X3136199Y2612162D01*
X3142700Y2627856D01*
Y2644843D01*
X3136199Y2660536D01*
X3124188Y2672548D01*
X3108494Y2679049D01*
D02*
G37*
G36*
X1436915Y2528336D02*
X1432780Y2523269D01*
X1430211Y2519500D01*
X1440575D01*
X1436915Y2528336D01*
D02*
G37*
G36*
X1375500Y2554575D02*
X1361042Y2548587D01*
X1346413Y2533958D01*
X1340425Y2519500D01*
X1375500D01*
Y2554575D01*
D02*
G37*
G36*
X1526392Y2549204D02*
X1508608D01*
X1492177Y2542398D01*
X1479602Y2529823D01*
X1472796Y2513392D01*
Y2495608D01*
X1479602Y2479177D01*
X1492177Y2466602D01*
X1508608Y2459796D01*
X1526392D01*
X1542823Y2466602D01*
X1555398Y2479177D01*
X1562204Y2495608D01*
Y2513392D01*
X1555398Y2529823D01*
X1542823Y2542398D01*
X1526392Y2549204D01*
D02*
G37*
G36*
X1018392D02*
X1000608D01*
X984177Y2542398D01*
X971602Y2529823D01*
X964796Y2513392D01*
Y2495608D01*
X971602Y2479177D01*
X984177Y2466602D01*
X1000608Y2459796D01*
X1018392D01*
X1034823Y2466602D01*
X1047398Y2479177D01*
X1054204Y2495608D01*
Y2513392D01*
X1047398Y2529823D01*
X1034823Y2542398D01*
X1018392Y2549204D01*
D02*
G37*
G36*
X891392D02*
X873608D01*
X857177Y2542398D01*
X844602Y2529823D01*
X837796Y2513392D01*
Y2495608D01*
X844602Y2479177D01*
X857177Y2466602D01*
X873608Y2459796D01*
X891392D01*
X907823Y2466602D01*
X920398Y2479177D01*
X927204Y2495608D01*
Y2513392D01*
X920398Y2529823D01*
X907823Y2542398D01*
X891392Y2549204D01*
D02*
G37*
G36*
X1440575Y2489500D02*
X1405500D01*
Y2454425D01*
X1419958Y2460413D01*
X1434587Y2475042D01*
X1440575Y2489500D01*
D02*
G37*
G36*
X1375500D02*
X1340425D01*
X1346413Y2475042D01*
X1361042Y2460413D01*
X1375500Y2454425D01*
Y2489500D01*
D02*
G37*
G36*
X1532500Y2427575D02*
Y2392500D01*
X1533486D01*
Y2405189D01*
X1536884Y2402778D01*
X1540462Y2400621D01*
X1544221Y2398718D01*
X1548161Y2397068D01*
X1552282Y2395672D01*
X1556584Y2394530D01*
X1561066Y2393642D01*
X1565729Y2393007D01*
X1567420Y2392875D01*
X1561587Y2406958D01*
X1546958Y2421587D01*
X1532500Y2427575D01*
D02*
G37*
G36*
X1024500D02*
Y2392500D01*
X1059575D01*
X1053587Y2406958D01*
X1038958Y2421587D01*
X1024500Y2427575D01*
D02*
G37*
G36*
X1502500D02*
X1488042Y2421587D01*
X1473413Y2406958D01*
X1467425Y2392500D01*
X1502500D01*
Y2427575D01*
D02*
G37*
G36*
X994500D02*
X980042Y2421587D01*
X965413Y2406958D01*
X959425Y2392500D01*
X994500D01*
Y2427575D01*
D02*
G37*
G36*
X1059575Y2362500D02*
X1048473D01*
X1049154Y2361300D01*
X1051660Y2357485D01*
X1054464Y2353746D01*
X1055462Y2352569D01*
X1059575Y2362500D01*
D02*
G37*
G36*
X1399392Y2422204D02*
X1381608D01*
X1365177Y2415398D01*
X1352602Y2402823D01*
X1345796Y2386392D01*
Y2368608D01*
X1352602Y2352177D01*
X1365177Y2339602D01*
X1381608Y2332796D01*
X1399392D01*
X1415823Y2339602D01*
X1428398Y2352177D01*
X1435204Y2368608D01*
Y2386392D01*
X1428398Y2402823D01*
X1415823Y2415398D01*
X1399392Y2422204D01*
D02*
G37*
G36*
X891392D02*
X873608D01*
X857177Y2415398D01*
X844602Y2402823D01*
X837796Y2386392D01*
Y2368608D01*
X844602Y2352177D01*
X857177Y2339602D01*
X873608Y2332796D01*
X891392D01*
X907823Y2339602D01*
X920398Y2352177D01*
X927204Y2368608D01*
Y2386392D01*
X920398Y2402823D01*
X907823Y2415398D01*
X891392Y2422204D01*
D02*
G37*
G36*
X1533486Y2362500D02*
X1532500D01*
Y2327425D01*
X1546958Y2333413D01*
X1561587Y2348042D01*
X1567420Y2362125D01*
X1565729Y2361992D01*
X1561066Y2361358D01*
X1556584Y2360470D01*
X1552282Y2359328D01*
X1548161Y2357932D01*
X1544221Y2356282D01*
X1540462Y2354379D01*
X1536884Y2352222D01*
X1533486Y2349811D01*
Y2362500D01*
D02*
G37*
G36*
X1024500Y2337789D02*
Y2327425D01*
X1033336Y2331085D01*
X1028269Y2335220D01*
X1024500Y2337789D01*
D02*
G37*
G36*
X1502500Y2362500D02*
X1467425D01*
X1473413Y2348042D01*
X1488042Y2333413D01*
X1502500Y2327425D01*
Y2362500D01*
D02*
G37*
G36*
X994500D02*
X959425D01*
X965413Y2348042D01*
X980042Y2333413D01*
X994500Y2327425D01*
Y2362500D01*
D02*
G37*
G36*
X2754242Y2475325D02*
X2737255D01*
X2721561Y2468824D01*
X2709550Y2456812D01*
X2703049Y2441119D01*
Y2424132D01*
X2709550Y2408438D01*
X2721414Y2396275D01*
X2709550Y2384112D01*
X2703049Y2368419D01*
Y2351432D01*
X2709550Y2335738D01*
X2721561Y2323726D01*
X2737255Y2317225D01*
X2754242D01*
X2769936Y2323726D01*
X2781948Y2335738D01*
X2788449Y2351432D01*
Y2368419D01*
X2781948Y2384113D01*
X2770084Y2396275D01*
X2781948Y2408438D01*
X2788449Y2424132D01*
Y2441119D01*
X2781948Y2456812D01*
X2769936Y2468824D01*
X2754242Y2475325D01*
D02*
G37*
G36*
X1658494Y2342700D02*
X1641506D01*
X1625813Y2336199D01*
X1613801Y2324187D01*
X1607300Y2308493D01*
Y2291507D01*
X1585354Y2273645D01*
X1556300D01*
X1555398Y2275823D01*
X1542823Y2288398D01*
X1526392Y2295204D01*
X1508608D01*
X1492177Y2288398D01*
X1479602Y2275823D01*
X1472796Y2259392D01*
Y2241608D01*
X1479602Y2225177D01*
X1492177Y2212602D01*
X1508608Y2205796D01*
X1526392D01*
X1542823Y2212602D01*
X1555398Y2225177D01*
X1556300Y2227355D01*
X1600500D01*
X1609357Y2229117D01*
X1616866Y2234134D01*
X1640464Y2257732D01*
X1641506Y2257300D01*
X1658494D01*
X1674187Y2263801D01*
X1686199Y2275813D01*
X1692700Y2291506D01*
Y2308493D01*
X1686199Y2324187D01*
X1674187Y2336199D01*
X1658494Y2342700D01*
D02*
G37*
G36*
X1405500Y2300575D02*
Y2265500D01*
X1440575D01*
X1434587Y2279958D01*
X1419958Y2294587D01*
X1405500Y2300575D01*
D02*
G37*
G36*
X897500D02*
Y2265500D01*
X932575D01*
X926587Y2279958D01*
X911958Y2294587D01*
X897500Y2300575D01*
D02*
G37*
G36*
X1375500D02*
X1361042Y2294587D01*
X1346413Y2279958D01*
X1340425Y2265500D01*
X1375500D01*
Y2300575D01*
D02*
G37*
G36*
X867500D02*
X853042Y2294587D01*
X838413Y2279958D01*
X832425Y2265500D01*
X867500D01*
Y2300575D01*
D02*
G37*
G36*
X1351166Y2235500D02*
X1340425D01*
X1344329Y2226073D01*
X1345431Y2227362D01*
X1348280Y2231108D01*
X1350821Y2234905D01*
X1351166Y2235500D01*
D02*
G37*
G36*
X932575D02*
X921473D01*
X922154Y2234300D01*
X924660Y2230485D01*
X927464Y2226746D01*
X928462Y2225569D01*
X932575Y2235500D01*
D02*
G37*
G36*
X3008494Y2365400D02*
X2991507D01*
X2975813Y2358899D01*
X2963801Y2346887D01*
X2957300Y2331193D01*
Y2314206D01*
X2963801Y2298513D01*
X2975665Y2286350D01*
X2963801Y2274187D01*
X2957300Y2258494D01*
Y2241507D01*
X2963801Y2225813D01*
X2975813Y2213801D01*
X2991507Y2207300D01*
X3008494D01*
X3024188Y2213801D01*
X3036199Y2225813D01*
X3042700Y2241507D01*
Y2258494D01*
X3036199Y2274187D01*
X3024335Y2286350D01*
X3036199Y2298513D01*
X3042700Y2314206D01*
Y2331193D01*
X3036199Y2346887D01*
X3024188Y2358899D01*
X3008494Y2365400D01*
D02*
G37*
G36*
X3681518Y2839044D02*
X3664531D01*
X3648837Y2832543D01*
X3636825Y2820531D01*
X3630324Y2804837D01*
Y2787850D01*
X3636825Y2772156D01*
X3648689Y2759994D01*
X3636825Y2747831D01*
X3630324Y2732137D01*
Y2715150D01*
X3636744Y2699652D01*
X3636825Y2699456D01*
X3645512Y2679996D01*
X3636825Y2660536D01*
X3636744Y2660340D01*
X3630324Y2644843D01*
Y2627856D01*
X3636825Y2612162D01*
X3648689Y2599999D01*
X3636825Y2587836D01*
X3630324Y2572143D01*
Y2555156D01*
X3636825Y2539462D01*
X3648837Y2527450D01*
X3664530Y2520949D01*
X3665539Y2519881D01*
X3679828Y2490949D01*
X3677300Y2484848D01*
Y2467861D01*
X3683801Y2452167D01*
X3695665Y2440005D01*
X3683801Y2427842D01*
X3677300Y2412148D01*
Y2395161D01*
X3679838Y2389035D01*
X3665593Y2360160D01*
X3664530Y2359034D01*
X3648837Y2352534D01*
X3636825Y2340522D01*
X3630324Y2324828D01*
Y2307841D01*
X3636825Y2292147D01*
X3648689Y2279985D01*
X3636825Y2267822D01*
X3630324Y2252128D01*
Y2235141D01*
X3636825Y2219447D01*
X3648837Y2207436D01*
X3664531Y2200935D01*
X3681518D01*
X3697212Y2207436D01*
X3709223Y2219447D01*
X3715724Y2235141D01*
Y2252128D01*
X3709223Y2267822D01*
X3697359Y2279985D01*
X3709223Y2292147D01*
X3715724Y2307841D01*
Y2324828D01*
X3713186Y2330954D01*
X3727432Y2359829D01*
X3728494Y2360955D01*
X3744188Y2367456D01*
X3756199Y2379467D01*
X3762700Y2395161D01*
Y2412148D01*
X3756199Y2427842D01*
X3744335Y2440005D01*
X3756199Y2452167D01*
X3762700Y2467861D01*
Y2484848D01*
X3756199Y2500542D01*
X3744188Y2512554D01*
X3728494Y2519054D01*
X3727485Y2520122D01*
X3713197Y2549055D01*
X3715724Y2555156D01*
Y2572143D01*
X3709223Y2587837D01*
X3697359Y2599999D01*
X3709223Y2612162D01*
X3715724Y2627856D01*
Y2644843D01*
X3709304Y2660340D01*
X3709223Y2660536D01*
X3700537Y2679996D01*
X3709223Y2699456D01*
X3709304Y2699652D01*
X3715724Y2715150D01*
Y2732137D01*
X3709223Y2747831D01*
X3697359Y2759994D01*
X3709223Y2772157D01*
X3715724Y2787850D01*
Y2804837D01*
X3709223Y2820531D01*
X3697212Y2832543D01*
X3681518Y2839044D01*
D02*
G37*
G36*
X1440575Y2235500D02*
X1405500D01*
Y2200425D01*
X1419958Y2206413D01*
X1434587Y2221042D01*
X1440575Y2235500D01*
D02*
G37*
G36*
X897500Y2210789D02*
Y2200425D01*
X906336Y2204085D01*
X901269Y2208220D01*
X897500Y2210789D01*
D02*
G37*
G36*
X1375500Y2211166D02*
X1374905Y2210821D01*
X1371108Y2208280D01*
X1367362Y2205431D01*
X1366072Y2204330D01*
X1375500Y2200425D01*
Y2211166D01*
D02*
G37*
G36*
X867500Y2235500D02*
X832425D01*
X838413Y2221042D01*
X853042Y2206413D01*
X867500Y2200425D01*
Y2235500D01*
D02*
G37*
G36*
X994500Y2173575D02*
X980042Y2167587D01*
X965413Y2152958D01*
X929779Y2143246D01*
X920697Y2148101D01*
X920398Y2148823D01*
X907823Y2161398D01*
X891392Y2168204D01*
X873608D01*
X857177Y2161398D01*
X844602Y2148823D01*
X837796Y2132392D01*
Y2114608D01*
X844602Y2098177D01*
X857177Y2085602D01*
X873608Y2078796D01*
X887262D01*
X1186029Y1780030D01*
X1186029Y1780029D01*
X1195192Y1773907D01*
X1206000Y1771757D01*
X1206001Y1771757D01*
X1988301D01*
X2157300Y1602759D01*
Y1591507D01*
X2163801Y1575813D01*
X2175813Y1563801D01*
X2191506Y1557300D01*
X2208493D01*
X2224187Y1563801D01*
X2236199Y1575813D01*
X2242700Y1591507D01*
Y1608494D01*
X2236199Y1624188D01*
X2224187Y1636199D01*
X2208493Y1642700D01*
X2197241D01*
X2019971Y1819971D01*
X2010808Y1826093D01*
X2000000Y1828243D01*
X1999999Y1828243D01*
X1217698D01*
X1004445Y2041496D01*
X1016872Y2071496D01*
X1019844D01*
X1033336Y2077085D01*
X1028269Y2081220D01*
X1024489Y2083796D01*
X1020680Y2086057D01*
X1016845Y2088001D01*
X1012981Y2089630D01*
X1009090Y2090941D01*
X1005171Y2091937D01*
X1001225Y2092617D01*
X1017108Y2108500D01*
X1009500D01*
Y2123500D01*
X994500D01*
Y2173575D01*
D02*
G37*
G36*
X1532500D02*
Y2138500D01*
X1567575D01*
X1561587Y2152958D01*
X1546958Y2167587D01*
X1532500Y2173575D01*
D02*
G37*
G36*
X1024500D02*
Y2138500D01*
X1059575D01*
X1053587Y2152958D01*
X1038958Y2167587D01*
X1024500Y2173575D01*
D02*
G37*
G36*
X1502500D02*
X1488042Y2167587D01*
X1473413Y2152958D01*
X1467425Y2138500D01*
X1502500D01*
Y2173575D01*
D02*
G37*
G36*
X1567575Y2108500D02*
X1564504D01*
Y2102379D01*
X1540364Y2101727D01*
X1541906Y2108500D01*
X1532500D01*
Y2073425D01*
X1546958Y2079413D01*
X1561587Y2094042D01*
X1567575Y2108500D01*
D02*
G37*
G36*
X1059575D02*
X1048473D01*
X1049154Y2107300D01*
X1051660Y2103485D01*
X1054464Y2099746D01*
X1055462Y2098569D01*
X1059575Y2108500D01*
D02*
G37*
G36*
X1502500D02*
X1467425D01*
X1473413Y2094042D01*
X1488042Y2079413D01*
X1502500Y2073425D01*
Y2108500D01*
D02*
G37*
G36*
X1399392Y2168204D02*
X1381608D01*
X1365177Y2161398D01*
X1352602Y2148823D01*
X1345796Y2132392D01*
Y2114608D01*
X1352602Y2098177D01*
X1361507Y2089272D01*
Y2048894D01*
X1352801Y2040187D01*
X1346300Y2024494D01*
Y2007507D01*
X1352801Y1991813D01*
X1364812Y1979801D01*
X1380506Y1973300D01*
X1397493D01*
X1413187Y1979801D01*
X1425199Y1991813D01*
X1431700Y2007507D01*
Y2024494D01*
X1425199Y2040187D01*
X1417993Y2047394D01*
Y2087772D01*
X1428398Y2098177D01*
X1435204Y2114608D01*
Y2132392D01*
X1428398Y2148823D01*
X1415823Y2161398D01*
X1399392Y2168204D01*
D02*
G37*
G36*
X906851Y1969430D02*
X883549D01*
X861040Y1963399D01*
X840860Y1951748D01*
X824382Y1935270D01*
X812731Y1915090D01*
X806700Y1892581D01*
Y1869279D01*
X812731Y1846770D01*
X824382Y1826590D01*
X840860Y1810112D01*
X861040Y1798461D01*
X883549Y1792430D01*
X906851D01*
X929360Y1798461D01*
X949540Y1810112D01*
X966018Y1826590D01*
X977669Y1846770D01*
X983700Y1869279D01*
Y1892581D01*
X977669Y1915090D01*
X966018Y1935270D01*
X949540Y1951748D01*
X929360Y1963399D01*
X906851Y1969430D01*
D02*
G37*
G36*
X3681518Y1719056D02*
X3664531D01*
X3648837Y1712555D01*
X3636825Y1700543D01*
X3630324Y1684850D01*
Y1667863D01*
X3636825Y1652169D01*
X3648689Y1640006D01*
X3636825Y1627843D01*
X3630324Y1612150D01*
Y1595163D01*
X3636825Y1579469D01*
X3648837Y1567457D01*
X3664531Y1560956D01*
X3681518D01*
X3697212Y1567457D01*
X3709223Y1579469D01*
X3715724Y1595163D01*
Y1612150D01*
X3709223Y1627844D01*
X3697359Y1640006D01*
X3709223Y1652169D01*
X3715724Y1667863D01*
Y1684850D01*
X3709223Y1700543D01*
X3697212Y1712555D01*
X3681518Y1719056D01*
D02*
G37*
G36*
X3108494D02*
X3091507D01*
X3075813Y1712555D01*
X3063801Y1700543D01*
X3057300Y1684850D01*
Y1667863D01*
X3063801Y1652169D01*
X3075665Y1640006D01*
X3063801Y1627843D01*
X3057300Y1612150D01*
Y1595163D01*
X3063801Y1579469D01*
X3075813Y1567457D01*
X3091507Y1560956D01*
X3108494D01*
X3124188Y1567457D01*
X3136199Y1579469D01*
X3142700Y1595163D01*
Y1612150D01*
X3136199Y1627844D01*
X3124335Y1640006D01*
X3136199Y1652169D01*
X3142700Y1667863D01*
Y1684850D01*
X3136199Y1700543D01*
X3124188Y1712555D01*
X3108494Y1719056D01*
D02*
G37*
G36*
X1009698Y1562000D02*
X970302D01*
X931662Y1554314D01*
X895265Y1539238D01*
X862508Y1517350D01*
X834650Y1489493D01*
X812762Y1456735D01*
X797686Y1420338D01*
X790000Y1381698D01*
Y1342302D01*
X797686Y1303662D01*
X812762Y1267265D01*
X834650Y1234508D01*
X862508Y1206650D01*
X895265Y1184762D01*
X931662Y1169686D01*
X970302Y1162000D01*
X1009698D01*
X1048338Y1169686D01*
X1084735Y1184762D01*
X1117493Y1206650D01*
X1145350Y1234508D01*
X1167238Y1267265D01*
X1182314Y1303662D01*
X1190000Y1342302D01*
Y1381698D01*
X1182314Y1420338D01*
X1167238Y1456735D01*
X1145350Y1489493D01*
X1117493Y1517350D01*
X1084735Y1539238D01*
X1048338Y1554314D01*
X1009698Y1562000D01*
D02*
G37*
G36*
X3876503Y1269503D02*
X3856491D01*
X3837161Y1264323D01*
X3819830Y1254317D01*
X3805679Y1240166D01*
X3795673Y1222836D01*
X3790494Y1203506D01*
Y1183493D01*
X3795673Y1164163D01*
X3805679Y1146833D01*
X3819830Y1132682D01*
X3837161Y1122676D01*
X3856491Y1117496D01*
X3876503D01*
X3895833Y1122676D01*
X3913164Y1132682D01*
X3927315Y1146833D01*
X3937321Y1164163D01*
X3942500Y1183493D01*
Y1203506D01*
X3937321Y1222836D01*
X3927315Y1240166D01*
X3913164Y1254317D01*
X3895833Y1264323D01*
X3876503Y1269503D01*
D02*
G37*
G36*
X3618221Y684995D02*
X3581780D01*
X3546039Y677885D01*
X3512372Y663940D01*
X3482073Y643695D01*
X3456306Y617927D01*
X3436060Y587628D01*
X3422115Y553961D01*
X3415006Y518220D01*
Y481780D01*
X3422115Y446039D01*
X3436060Y412372D01*
X3456306Y382073D01*
X3482073Y356305D01*
X3512372Y336060D01*
X3546039Y322115D01*
X3581780Y315005D01*
X3618221D01*
X3653961Y322115D01*
X3687628Y336060D01*
X3717927Y356305D01*
X3743695Y382073D01*
X3763940Y412372D01*
X3777886Y446039D01*
X3784995Y481780D01*
Y518220D01*
X3777886Y553961D01*
X3763940Y587628D01*
X3743695Y617927D01*
X3717927Y643695D01*
X3687628Y663940D01*
X3653961Y677885D01*
X3618221Y684995D01*
D02*
G37*
G36*
X4700000Y651210D02*
X4650991Y646383D01*
X4603866Y632087D01*
X4560435Y608873D01*
X4522368Y577632D01*
X4491127Y539565D01*
X4467913Y496134D01*
X4453617Y449008D01*
X4448790Y400000D01*
X4453617Y350991D01*
X4467913Y303866D01*
X4491127Y260435D01*
X4522368Y222368D01*
X4560435Y191127D01*
X4603866Y167913D01*
X4650991Y153617D01*
X4700000Y148790D01*
X4749009Y153617D01*
X4796134Y167913D01*
X4839565Y191127D01*
X4877632Y222368D01*
X4908873Y260435D01*
X4932087Y303866D01*
X4946383Y350991D01*
X4951210Y400000D01*
X4946383Y449008D01*
X4932087Y496134D01*
X4908873Y539565D01*
X4877632Y577632D01*
X4839565Y608873D01*
X4796134Y632087D01*
X4749009Y646383D01*
X4700000Y651210D01*
D02*
G37*
G36*
X400000D02*
X350991Y646383D01*
X303866Y632087D01*
X260435Y608873D01*
X222368Y577632D01*
X191127Y539565D01*
X167913Y496134D01*
X153617Y449008D01*
X148790Y400000D01*
X153617Y350991D01*
X167913Y303866D01*
X191127Y260435D01*
X222368Y222368D01*
X260435Y191127D01*
X303866Y167913D01*
X350991Y153617D01*
X400000Y148790D01*
X449008Y153617D01*
X496134Y167913D01*
X539565Y191127D01*
X577632Y222368D01*
X608873Y260435D01*
X632087Y303866D01*
X646383Y350991D01*
X651210Y400000D01*
X646383Y449008D01*
X632087Y496134D01*
X608873Y539565D01*
X577632Y577632D01*
X539565Y608873D01*
X496134Y632087D01*
X449008Y646383D01*
X400000Y651210D01*
D02*
G37*
%LPD*%
G36*
X3197715Y7635708D02*
X3199216Y7634688D01*
X3200932Y7633788D01*
X3202863Y7633008D01*
X3205011Y7632347D01*
X3207375Y7631808D01*
X3209954Y7631388D01*
X3212749Y7631088D01*
X3218988Y7630848D01*
Y7600848D01*
X3215761Y7600788D01*
X3209954Y7600308D01*
X3207375Y7599888D01*
X3205011Y7599348D01*
X3202863Y7598688D01*
X3200932Y7597908D01*
X3199216Y7597008D01*
X3197715Y7595988D01*
X3196431Y7594848D01*
Y7636848D01*
X3197715Y7635708D01*
D02*
G37*
G36*
X1501514Y5143811D02*
X1498116Y5146222D01*
X1494538Y5148379D01*
X1490778Y5150282D01*
X1486838Y5151932D01*
X1482718Y5153328D01*
X1478416Y5154470D01*
X1473934Y5155358D01*
X1469271Y5155992D01*
X1464427Y5156373D01*
X1459402Y5156500D01*
Y5186500D01*
X1464427Y5186627D01*
X1469271Y5187007D01*
X1473934Y5187642D01*
X1478416Y5188530D01*
X1482718Y5189672D01*
X1486838Y5191068D01*
X1490778Y5192718D01*
X1494538Y5194621D01*
X1498116Y5196778D01*
X1501514Y5199189D01*
Y5143811D01*
D02*
G37*
G36*
X1409884Y5196778D02*
X1413462Y5194621D01*
X1417221Y5192718D01*
X1421161Y5191068D01*
X1425282Y5189672D01*
X1429584Y5188530D01*
X1434066Y5187642D01*
X1438729Y5187007D01*
X1443573Y5186627D01*
X1448598Y5186500D01*
Y5156500D01*
X1443573Y5156373D01*
X1438729Y5155992D01*
X1434066Y5155358D01*
X1429584Y5154470D01*
X1425282Y5153328D01*
X1421161Y5151932D01*
X1417221Y5150282D01*
X1413462Y5148379D01*
X1409884Y5146222D01*
X1406486Y5143811D01*
Y5199189D01*
X1409884Y5196778D01*
D02*
G37*
G36*
X1659700Y5055473D02*
X1657986Y5055371D01*
X1656204Y5055031D01*
X1654354Y5054454D01*
X1652437Y5053640D01*
X1650451Y5052588D01*
X1648398Y5051299D01*
X1646277Y5049771D01*
X1644088Y5048007D01*
X1639508Y5043766D01*
X1618294Y5064979D01*
X1620534Y5067303D01*
X1624300Y5071748D01*
X1625827Y5073869D01*
X1627117Y5075923D01*
X1628169Y5077908D01*
X1628983Y5079825D01*
X1629560Y5081675D01*
X1629900Y5083457D01*
X1630002Y5085171D01*
X1659700Y5055473D01*
D02*
G37*
G36*
X1365557Y5025436D02*
X1365353Y5027300D01*
X1364626Y5028969D01*
X1363378Y5030441D01*
X1361608Y5031717D01*
X1359315Y5032796D01*
X1356500Y5033680D01*
X1353164Y5034367D01*
X1349305Y5034857D01*
X1344924Y5035152D01*
X1340020Y5035250D01*
X1340642Y5055250D01*
X1345543Y5055348D01*
X1353816Y5056133D01*
X1357187Y5056820D01*
X1360049Y5057704D01*
X1362400Y5058783D01*
X1364242Y5060059D01*
X1365574Y5061531D01*
X1366396Y5063200D01*
X1366708Y5065064D01*
X1365557Y5025436D01*
D02*
G37*
G36*
X1307070Y5064328D02*
X1309270Y5062423D01*
X1311545Y5060742D01*
X1313893Y5059285D01*
X1316316Y5058052D01*
X1318813Y5057043D01*
X1321383Y5056259D01*
X1324028Y5055698D01*
X1326746Y5055362D01*
X1329538Y5055250D01*
X1329008Y5035250D01*
X1326235Y5035142D01*
X1323521Y5034819D01*
X1320864Y5034280D01*
X1318266Y5033525D01*
X1315725Y5032555D01*
X1313242Y5031370D01*
X1310818Y5029968D01*
X1308452Y5028351D01*
X1306143Y5026519D01*
X1303892Y5024471D01*
X1304943Y5066458D01*
X1307070Y5064328D01*
D02*
G37*
G36*
X1535555Y5070823D02*
X1538014Y5069601D01*
X1540863Y5068523D01*
X1544102Y5067588D01*
X1547730Y5066797D01*
X1551749Y5066150D01*
X1560957Y5065288D01*
X1571726Y5065000D01*
X1577876Y5035000D01*
X1569993Y5034853D01*
X1556788Y5033672D01*
X1551466Y5032639D01*
X1546998Y5031310D01*
X1543382Y5029687D01*
X1540621Y5027769D01*
X1538713Y5025555D01*
X1537658Y5023046D01*
X1537457Y5020242D01*
X1533486Y5072189D01*
X1535555Y5070823D01*
D02*
G37*
G36*
X1607092Y4958555D02*
X1604903Y4960645D01*
X1602647Y4962515D01*
X1600326Y4964165D01*
X1597939Y4965595D01*
X1595486Y4966805D01*
X1592967Y4967795D01*
X1590382Y4968565D01*
X1587731Y4969115D01*
X1585015Y4969445D01*
X1582232Y4969555D01*
Y4989555D01*
X1585015Y4989665D01*
X1587731Y4989995D01*
X1590382Y4990545D01*
X1592967Y4991315D01*
X1595486Y4992305D01*
X1597939Y4993515D01*
X1600326Y4994945D01*
X1602647Y4996595D01*
X1604903Y4998465D01*
X1607092Y5000555D01*
Y4958555D01*
D02*
G37*
G36*
X1902275Y4729298D02*
X1900555Y4726853D01*
X1899037Y4724371D01*
X1897722Y4721852D01*
X1896609Y4719296D01*
X1895698Y4716702D01*
X1894990Y4714070D01*
X1894484Y4711402D01*
X1894180Y4708695D01*
X1894079Y4705952D01*
X1874079Y4703982D01*
X1873962Y4706799D01*
X1873611Y4709520D01*
X1873026Y4712144D01*
X1872207Y4714673D01*
X1871154Y4717105D01*
X1869866Y4719442D01*
X1868345Y4721682D01*
X1866590Y4723826D01*
X1864601Y4725874D01*
X1862377Y4727826D01*
X1904198Y4731705D01*
X1902275Y4729298D01*
D02*
G37*
G36*
X1532627Y4589573D02*
X1533007Y4584729D01*
X1533642Y4580066D01*
X1534530Y4575584D01*
X1535672Y4571282D01*
X1537068Y4567161D01*
X1538718Y4563222D01*
X1540621Y4559462D01*
X1542778Y4555884D01*
X1545189Y4552486D01*
X1489811D01*
X1492222Y4555884D01*
X1494379Y4559462D01*
X1496282Y4563222D01*
X1497932Y4567161D01*
X1499327Y4571282D01*
X1500470Y4575584D01*
X1501358Y4580066D01*
X1501992Y4584729D01*
X1502373Y4589573D01*
X1502500Y4594598D01*
X1532500D01*
X1532627Y4589573D01*
D02*
G37*
G36*
X1743910Y4566386D02*
X1742040Y4564131D01*
X1740390Y4561809D01*
X1738960Y4559422D01*
X1737750Y4556969D01*
X1736760Y4554450D01*
X1735990Y4551865D01*
X1735440Y4549215D01*
X1735110Y4546498D01*
X1735000Y4543715D01*
X1715000D01*
X1714890Y4546498D01*
X1714560Y4549215D01*
X1714010Y4551865D01*
X1713240Y4554450D01*
X1712250Y4556969D01*
X1711040Y4559422D01*
X1709610Y4561809D01*
X1707961Y4564131D01*
X1706090Y4566386D01*
X1704000Y4568575D01*
X1746000D01*
X1743910Y4566386D01*
D02*
G37*
G36*
X1602530Y4470107D02*
X1599468Y4469758D01*
X1596523Y4469241D01*
X1593695Y4468555D01*
X1590984Y4467700D01*
X1588389Y4466676D01*
X1585911Y4465484D01*
X1583550Y4464122D01*
X1581306Y4462592D01*
X1579178Y4460893D01*
X1577168Y4459025D01*
X1561603Y4471745D01*
X1563512Y4473820D01*
X1565188Y4475992D01*
X1566629Y4478262D01*
X1567836Y4480629D01*
X1568809Y4483093D01*
X1569548Y4485654D01*
X1570053Y4488313D01*
X1570324Y4491069D01*
X1570361Y4493922D01*
X1570163Y4496873D01*
X1602530Y4470107D01*
D02*
G37*
G36*
X1815093Y4473501D02*
X1815423Y4470785D01*
X1815973Y4468134D01*
X1816743Y4465549D01*
X1817733Y4463030D01*
X1818943Y4460577D01*
X1820373Y4458190D01*
X1822023Y4455869D01*
X1823893Y4453613D01*
X1825983Y4451424D01*
X1783983D01*
X1786073Y4453613D01*
X1787943Y4455869D01*
X1789593Y4458190D01*
X1791023Y4460577D01*
X1792233Y4463030D01*
X1793223Y4465549D01*
X1793993Y4468134D01*
X1794543Y4470785D01*
X1794873Y4473501D01*
X1794983Y4476284D01*
X1814983D01*
X1815093Y4473501D01*
D02*
G37*
G36*
X1558654Y4440511D02*
X1555294Y4437013D01*
X1550122Y4430731D01*
X1548310Y4427947D01*
X1547015Y4425402D01*
X1546235Y4423096D01*
X1545971Y4421027D01*
X1546223Y4419198D01*
X1546992Y4417607D01*
X1548276Y4416254D01*
X1517182Y4441123D01*
X1518821Y4440140D01*
X1520671Y4439645D01*
X1522733Y4439636D01*
X1525005Y4440115D01*
X1527489Y4441081D01*
X1530184Y4442533D01*
X1533090Y4444474D01*
X1536207Y4446901D01*
X1539536Y4449816D01*
X1543075Y4453217D01*
X1558654Y4440511D01*
D02*
G37*
G36*
X1944119Y4392098D02*
X1944449Y4389381D01*
X1944999Y4386730D01*
X1945769Y4384146D01*
X1946759Y4381627D01*
X1947969Y4379174D01*
X1949399Y4376787D01*
X1951049Y4374465D01*
X1952919Y4372210D01*
X1955009Y4370020D01*
X1913009D01*
X1915099Y4372210D01*
X1916969Y4374465D01*
X1918619Y4376787D01*
X1920049Y4379174D01*
X1921259Y4381627D01*
X1922249Y4384146D01*
X1923019Y4386730D01*
X1923569Y4389381D01*
X1923899Y4392098D01*
X1924009Y4394880D01*
X1944009D01*
X1944119Y4392098D01*
D02*
G37*
G36*
X1387280Y4251258D02*
X1385779Y4252395D01*
X1384052Y4253027D01*
X1382099Y4253156D01*
X1379920Y4252781D01*
X1377514Y4251902D01*
X1374883Y4250520D01*
X1372025Y4248634D01*
X1368942Y4246244D01*
X1365632Y4243351D01*
X1362096Y4239954D01*
X1347954Y4254096D01*
X1351351Y4257632D01*
X1356634Y4264025D01*
X1358520Y4266883D01*
X1359902Y4269514D01*
X1360781Y4271920D01*
X1361156Y4274099D01*
X1361027Y4276052D01*
X1360395Y4277779D01*
X1359258Y4279280D01*
X1387280Y4251258D01*
D02*
G37*
G36*
X1771724Y4402872D02*
X1780796Y4393801D01*
X1796490Y4387300D01*
X1813477D01*
X1829171Y4393801D01*
X1830935Y4395565D01*
X1834603Y4394045D01*
X1859926Y4379282D01*
X1858164Y4370425D01*
Y4340896D01*
X1630413Y4113145D01*
X1587886D01*
X1570452Y4140364D01*
X1565729Y4139992D01*
X1561066Y4139358D01*
X1556584Y4138470D01*
X1552282Y4137328D01*
X1548161Y4135932D01*
X1544221Y4134282D01*
X1540462Y4132379D01*
X1536884Y4130222D01*
X1533486Y4127811D01*
Y4140500D01*
X1517500D01*
Y4155500D01*
X1502500D01*
Y4205575D01*
X1488042Y4199587D01*
X1473413Y4184958D01*
X1465496Y4165844D01*
X1457173Y4157762D01*
X1446949Y4154076D01*
X1435204Y4162315D01*
Y4164392D01*
X1428398Y4180823D01*
X1415823Y4193398D01*
X1403170Y4198639D01*
X1393364Y4219572D01*
X1402572Y4239113D01*
X1415823Y4244602D01*
X1428398Y4257177D01*
X1435204Y4273608D01*
Y4277448D01*
X1454000Y4289019D01*
X1472796Y4277448D01*
Y4273608D01*
X1479602Y4257177D01*
X1492177Y4244602D01*
X1508608Y4237796D01*
X1526392D01*
X1542823Y4244602D01*
X1555398Y4257177D01*
X1556300Y4259355D01*
X1581100D01*
X1589957Y4261117D01*
X1597465Y4266134D01*
X1736556Y4405224D01*
X1759946Y4405651D01*
X1771724Y4402872D01*
D02*
G37*
G36*
X1365632Y4194649D02*
X1372025Y4189366D01*
X1374883Y4187480D01*
X1377514Y4186098D01*
X1379920Y4185219D01*
X1382099Y4184844D01*
X1384052Y4184973D01*
X1385779Y4185605D01*
X1387280Y4186741D01*
X1359258Y4158720D01*
X1360395Y4160221D01*
X1361027Y4161948D01*
X1361156Y4163901D01*
X1360781Y4166080D01*
X1359902Y4168485D01*
X1358520Y4171117D01*
X1356634Y4173975D01*
X1354244Y4177058D01*
X1351351Y4180368D01*
X1347954Y4183904D01*
X1362096Y4198046D01*
X1365632Y4194649D01*
D02*
G37*
%LPC*%
G36*
X1532500Y4205575D02*
Y4170500D01*
X1533486D01*
Y4183189D01*
X1536884Y4180778D01*
X1540462Y4178621D01*
X1544221Y4176718D01*
X1548161Y4175068D01*
X1552282Y4173672D01*
X1556584Y4172530D01*
X1561066Y4171642D01*
X1565729Y4171007D01*
X1567420Y4170875D01*
X1561587Y4184958D01*
X1546958Y4199587D01*
X1532500Y4205575D01*
D02*
G37*
%LPD*%
G36*
X879280Y6664258D02*
X877779Y6665395D01*
X876052Y6666027D01*
X874099Y6666156D01*
X871920Y6665781D01*
X869514Y6664902D01*
X866883Y6663520D01*
X864025Y6661634D01*
X860942Y6659244D01*
X857632Y6656351D01*
X854096Y6652954D01*
X839954Y6667096D01*
X843351Y6670632D01*
X848634Y6677025D01*
X850520Y6679883D01*
X851902Y6682514D01*
X852781Y6684920D01*
X853156Y6687099D01*
X853027Y6689052D01*
X852395Y6690779D01*
X851258Y6692280D01*
X879280Y6664258D01*
D02*
G37*
G36*
X857632Y6607649D02*
X864025Y6602366D01*
X866883Y6600480D01*
X869514Y6599098D01*
X871920Y6598219D01*
X874099Y6597844D01*
X876052Y6597973D01*
X877779Y6598605D01*
X879280Y6599741D01*
X851258Y6571720D01*
X852395Y6573221D01*
X853027Y6574948D01*
X853156Y6576901D01*
X852781Y6579080D01*
X851902Y6581485D01*
X850520Y6584117D01*
X848634Y6586975D01*
X846244Y6590058D01*
X843351Y6593368D01*
X839954Y6596904D01*
X854096Y6611046D01*
X857632Y6607649D01*
D02*
G37*
G36*
X1039605Y6436779D02*
X1038973Y6435052D01*
X1038844Y6433099D01*
X1039219Y6430920D01*
X1040097Y6428514D01*
X1041480Y6425883D01*
X1043366Y6423025D01*
X1045755Y6419942D01*
X1048649Y6416632D01*
X1052046Y6413096D01*
X1037904Y6398954D01*
X1034368Y6402351D01*
X1027975Y6407634D01*
X1025117Y6409520D01*
X1022485Y6410902D01*
X1020080Y6411781D01*
X1017901Y6412156D01*
X1015948Y6412027D01*
X1014220Y6411395D01*
X1012720Y6410258D01*
X1040741Y6438280D01*
X1039605Y6436779D01*
D02*
G37*
G36*
X1052046Y6342904D02*
X1048649Y6339368D01*
X1043366Y6332975D01*
X1041480Y6330117D01*
X1040097Y6327485D01*
X1039219Y6325080D01*
X1038844Y6322901D01*
X1038973Y6320948D01*
X1039605Y6319221D01*
X1040741Y6317720D01*
X1012720Y6345741D01*
X1014220Y6344605D01*
X1015948Y6343973D01*
X1017901Y6343844D01*
X1020080Y6344219D01*
X1022485Y6345098D01*
X1025117Y6346480D01*
X1027975Y6348366D01*
X1031058Y6350755D01*
X1034368Y6353649D01*
X1037904Y6357046D01*
X1052046Y6342904D01*
D02*
G37*
G36*
X879280Y6283258D02*
X877779Y6284395D01*
X876052Y6285027D01*
X874099Y6285156D01*
X871920Y6284781D01*
X869514Y6283902D01*
X866883Y6282520D01*
X864025Y6280634D01*
X860942Y6278244D01*
X857632Y6275351D01*
X854096Y6271954D01*
X839954Y6286096D01*
X843351Y6289632D01*
X848634Y6296025D01*
X850520Y6298883D01*
X851902Y6301514D01*
X852781Y6303920D01*
X853156Y6306099D01*
X853027Y6308052D01*
X852395Y6309779D01*
X851258Y6311280D01*
X879280Y6283258D01*
D02*
G37*
G36*
X857632Y6226649D02*
X864025Y6221366D01*
X866883Y6219480D01*
X869514Y6218098D01*
X871920Y6217219D01*
X874099Y6216844D01*
X876052Y6216973D01*
X877779Y6217605D01*
X879280Y6218741D01*
X851258Y6190720D01*
X852395Y6192221D01*
X853027Y6193948D01*
X853156Y6195901D01*
X852781Y6198080D01*
X851902Y6200485D01*
X850520Y6203117D01*
X848634Y6205975D01*
X846244Y6209058D01*
X843351Y6212368D01*
X839954Y6215904D01*
X854096Y6230046D01*
X857632Y6226649D01*
D02*
G37*
G36*
X1387280Y6156258D02*
X1385779Y6157395D01*
X1384052Y6158027D01*
X1382099Y6158156D01*
X1379920Y6157781D01*
X1377514Y6156902D01*
X1374883Y6155520D01*
X1372025Y6153634D01*
X1368942Y6151244D01*
X1365632Y6148351D01*
X1362096Y6144954D01*
X1347954Y6159096D01*
X1351351Y6162632D01*
X1356634Y6169025D01*
X1358520Y6171883D01*
X1359902Y6174514D01*
X1360781Y6176920D01*
X1361156Y6179099D01*
X1361027Y6181052D01*
X1360395Y6182779D01*
X1359258Y6184280D01*
X1387280Y6156258D01*
D02*
G37*
G36*
X1365632Y6099649D02*
X1372025Y6094366D01*
X1374883Y6092480D01*
X1377514Y6091098D01*
X1379920Y6090219D01*
X1382099Y6089844D01*
X1384052Y6089973D01*
X1385779Y6090605D01*
X1387280Y6091741D01*
X1359258Y6063720D01*
X1360395Y6065221D01*
X1361027Y6066948D01*
X1361156Y6068901D01*
X1360781Y6071080D01*
X1359902Y6073485D01*
X1358520Y6076117D01*
X1356634Y6078975D01*
X1354244Y6082058D01*
X1351351Y6085368D01*
X1347954Y6088904D01*
X1362096Y6103046D01*
X1365632Y6099649D01*
D02*
G37*
G36*
X1542778Y6168116D02*
X1540621Y6164538D01*
X1538718Y6160778D01*
X1537068Y6156839D01*
X1535672Y6152718D01*
X1534530Y6148416D01*
X1533642Y6143934D01*
X1533007Y6139271D01*
X1532627Y6134427D01*
X1532500Y6129402D01*
X1502500D01*
X1502373Y6134427D01*
X1501992Y6139271D01*
X1501358Y6143934D01*
X1500470Y6148416D01*
X1499327Y6152718D01*
X1497932Y6156839D01*
X1496282Y6160778D01*
X1494379Y6164538D01*
X1492222Y6168116D01*
X1489811Y6171513D01*
X1545189D01*
X1542778Y6168116D01*
D02*
G37*
G36*
X1532627Y6113573D02*
X1533007Y6108729D01*
X1533642Y6104066D01*
X1534530Y6099584D01*
X1535672Y6095282D01*
X1537068Y6091161D01*
X1538718Y6087222D01*
X1540621Y6083462D01*
X1542778Y6079884D01*
X1545189Y6076486D01*
X1489811D01*
X1492222Y6079884D01*
X1494379Y6083462D01*
X1496282Y6087222D01*
X1497932Y6091161D01*
X1499327Y6095282D01*
X1500470Y6099584D01*
X1501358Y6104066D01*
X1501992Y6108729D01*
X1502373Y6113573D01*
X1502500Y6118598D01*
X1532500D01*
X1532627Y6113573D01*
D02*
G37*
G36*
X879280Y5902258D02*
X877779Y5903395D01*
X876052Y5904027D01*
X874099Y5904156D01*
X871920Y5903781D01*
X869514Y5902902D01*
X866883Y5901520D01*
X864025Y5899634D01*
X860942Y5897244D01*
X857632Y5894351D01*
X854096Y5890954D01*
X839954Y5905096D01*
X843351Y5908632D01*
X848634Y5915025D01*
X850520Y5917883D01*
X851902Y5920514D01*
X852781Y5922920D01*
X853156Y5925099D01*
X853027Y5927052D01*
X852395Y5928779D01*
X851258Y5930280D01*
X879280Y5902258D01*
D02*
G37*
G36*
X857632Y5845649D02*
X864025Y5840366D01*
X866883Y5838480D01*
X869514Y5837098D01*
X871920Y5836219D01*
X874099Y5835844D01*
X876052Y5835973D01*
X877779Y5836605D01*
X879280Y5837741D01*
X851258Y5809720D01*
X852395Y5811221D01*
X853027Y5812948D01*
X853156Y5814901D01*
X852781Y5817080D01*
X851902Y5819485D01*
X850520Y5822117D01*
X848634Y5824975D01*
X846244Y5828058D01*
X843351Y5831368D01*
X839954Y5834904D01*
X854096Y5849046D01*
X857632Y5845649D01*
D02*
G37*
G36*
X1547605Y5928779D02*
X1546973Y5927052D01*
X1546844Y5925099D01*
X1547219Y5922920D01*
X1548097Y5920514D01*
X1549480Y5917883D01*
X1551366Y5915025D01*
X1553755Y5911942D01*
X1556649Y5908632D01*
X1560046Y5905096D01*
X1545904Y5890954D01*
X1542368Y5894351D01*
X1535975Y5899634D01*
X1533117Y5901520D01*
X1530485Y5902902D01*
X1528080Y5903781D01*
X1525901Y5904156D01*
X1523948Y5904027D01*
X1522220Y5903395D01*
X1520720Y5902258D01*
X1548741Y5930280D01*
X1547605Y5928779D01*
D02*
G37*
G36*
X1560046Y5834904D02*
X1556649Y5831368D01*
X1551366Y5824975D01*
X1549480Y5822117D01*
X1548097Y5819485D01*
X1547219Y5817080D01*
X1546844Y5814901D01*
X1546973Y5812948D01*
X1547605Y5811221D01*
X1548741Y5809720D01*
X1520720Y5837741D01*
X1522220Y5836605D01*
X1523948Y5835973D01*
X1525901Y5835844D01*
X1528080Y5836219D01*
X1530485Y5837098D01*
X1533117Y5838480D01*
X1535975Y5840366D01*
X1539058Y5842755D01*
X1542368Y5845649D01*
X1545904Y5849046D01*
X1560046Y5834904D01*
D02*
G37*
G36*
X1387280Y5775258D02*
X1385779Y5776395D01*
X1384052Y5777027D01*
X1382099Y5777156D01*
X1379920Y5776781D01*
X1377514Y5775902D01*
X1374883Y5774520D01*
X1372025Y5772634D01*
X1368942Y5770244D01*
X1365632Y5767351D01*
X1362096Y5763954D01*
X1347954Y5778096D01*
X1351351Y5781632D01*
X1356634Y5788025D01*
X1358520Y5790883D01*
X1359902Y5793514D01*
X1360781Y5795920D01*
X1361156Y5798099D01*
X1361027Y5800052D01*
X1360395Y5801779D01*
X1359258Y5803280D01*
X1387280Y5775258D01*
D02*
G37*
G36*
X1365632Y5718649D02*
X1372025Y5713366D01*
X1374883Y5711480D01*
X1377514Y5710098D01*
X1379920Y5709219D01*
X1382099Y5708844D01*
X1384052Y5708973D01*
X1385779Y5709605D01*
X1387280Y5710741D01*
X1359258Y5682720D01*
X1360395Y5684221D01*
X1361027Y5685948D01*
X1361156Y5687901D01*
X1360781Y5690080D01*
X1359902Y5692485D01*
X1358520Y5695117D01*
X1356634Y5697975D01*
X1354244Y5701058D01*
X1351351Y5704368D01*
X1347954Y5707904D01*
X1362096Y5722046D01*
X1365632Y5718649D01*
D02*
G37*
G36*
X1039605Y5674779D02*
X1038973Y5673052D01*
X1038844Y5671099D01*
X1039219Y5668920D01*
X1040097Y5666514D01*
X1041480Y5663883D01*
X1043366Y5661025D01*
X1045755Y5657942D01*
X1048649Y5654632D01*
X1052046Y5651096D01*
X1037904Y5636954D01*
X1034368Y5640351D01*
X1027975Y5645634D01*
X1025117Y5647520D01*
X1022485Y5648902D01*
X1020080Y5649781D01*
X1017901Y5650156D01*
X1015948Y5650027D01*
X1014220Y5649395D01*
X1012720Y5648258D01*
X1040741Y5676280D01*
X1039605Y5674779D01*
D02*
G37*
G36*
X1052046Y5580904D02*
X1048649Y5577368D01*
X1043366Y5570975D01*
X1041480Y5568117D01*
X1040097Y5565485D01*
X1039219Y5563080D01*
X1038844Y5560901D01*
X1038973Y5558948D01*
X1039605Y5557221D01*
X1040741Y5555720D01*
X1012720Y5583741D01*
X1014220Y5582605D01*
X1015948Y5581973D01*
X1017901Y5581844D01*
X1020080Y5582219D01*
X1022485Y5583098D01*
X1025117Y5584480D01*
X1027975Y5586366D01*
X1031058Y5588755D01*
X1034368Y5591649D01*
X1037904Y5595046D01*
X1052046Y5580904D01*
D02*
G37*
G36*
X879280Y5521258D02*
X877779Y5522395D01*
X876052Y5523027D01*
X874099Y5523156D01*
X871920Y5522781D01*
X869514Y5521902D01*
X866883Y5520520D01*
X864025Y5518634D01*
X860942Y5516244D01*
X857632Y5513351D01*
X854096Y5509954D01*
X839954Y5524096D01*
X843351Y5527632D01*
X848634Y5534025D01*
X850520Y5536883D01*
X851902Y5539514D01*
X852781Y5541920D01*
X853156Y5544099D01*
X853027Y5546052D01*
X852395Y5547779D01*
X851258Y5549280D01*
X879280Y5521258D01*
D02*
G37*
G36*
X857632Y5464649D02*
X864025Y5459366D01*
X866883Y5457480D01*
X869514Y5456098D01*
X871920Y5455219D01*
X874099Y5454844D01*
X876052Y5454973D01*
X877779Y5455605D01*
X879280Y5456741D01*
X851258Y5428720D01*
X852395Y5430221D01*
X853027Y5431948D01*
X853156Y5433901D01*
X852781Y5436080D01*
X851902Y5438485D01*
X850520Y5441117D01*
X848634Y5443975D01*
X846244Y5447058D01*
X843351Y5450368D01*
X839954Y5453904D01*
X854096Y5468046D01*
X857632Y5464649D01*
D02*
G37*
G36*
X1387280Y5394258D02*
X1385779Y5395395D01*
X1384052Y5396027D01*
X1382099Y5396156D01*
X1379920Y5395781D01*
X1377514Y5394902D01*
X1374883Y5393520D01*
X1372025Y5391634D01*
X1368942Y5389244D01*
X1365632Y5386351D01*
X1362096Y5382954D01*
X1347954Y5397096D01*
X1351351Y5400632D01*
X1356634Y5407025D01*
X1358520Y5409883D01*
X1359902Y5412514D01*
X1360781Y5414920D01*
X1361156Y5417099D01*
X1361027Y5419052D01*
X1360395Y5420779D01*
X1359258Y5422280D01*
X1387280Y5394258D01*
D02*
G37*
G36*
X1365632Y5337649D02*
X1372025Y5332366D01*
X1374883Y5330480D01*
X1377514Y5329098D01*
X1379920Y5328219D01*
X1382099Y5327844D01*
X1384052Y5327973D01*
X1385779Y5328605D01*
X1387280Y5329741D01*
X1359258Y5301720D01*
X1360395Y5303221D01*
X1361027Y5304948D01*
X1361156Y5306901D01*
X1360781Y5309080D01*
X1359902Y5311485D01*
X1358520Y5314117D01*
X1356634Y5316975D01*
X1354244Y5320058D01*
X1351351Y5323368D01*
X1347954Y5326904D01*
X1362096Y5341046D01*
X1365632Y5337649D01*
D02*
G37*
G36*
X790784Y4939561D02*
X791444Y4931530D01*
X791839Y4929354D01*
X792323Y4927429D01*
X792895Y4925755D01*
X793554Y4924332D01*
X794302Y4923159D01*
X795137Y4922237D01*
X764690Y4928173D01*
X765839Y4928717D01*
X766868Y4929464D01*
X767775Y4930414D01*
X768562Y4931566D01*
X769228Y4932922D01*
X769772Y4934480D01*
X770196Y4936241D01*
X770498Y4938204D01*
X770680Y4940371D01*
X770740Y4942740D01*
X790740D01*
X790784Y4939561D01*
D02*
G37*
G36*
X1387280Y3870258D02*
X1385779Y3871395D01*
X1384052Y3872027D01*
X1382099Y3872156D01*
X1379920Y3871781D01*
X1377514Y3870902D01*
X1374883Y3869520D01*
X1372025Y3867634D01*
X1368942Y3865244D01*
X1365632Y3862351D01*
X1362096Y3858954D01*
X1347954Y3873096D01*
X1351351Y3876632D01*
X1356634Y3883025D01*
X1358520Y3885883D01*
X1359902Y3888514D01*
X1360781Y3890920D01*
X1361156Y3893099D01*
X1361027Y3895052D01*
X1360395Y3896779D01*
X1359258Y3898280D01*
X1387280Y3870258D01*
D02*
G37*
G36*
X1365632Y3813649D02*
X1372025Y3808366D01*
X1374883Y3806480D01*
X1377514Y3805098D01*
X1379920Y3804219D01*
X1382099Y3803844D01*
X1384052Y3803973D01*
X1385779Y3804605D01*
X1387280Y3805741D01*
X1359258Y3777720D01*
X1360395Y3779221D01*
X1361027Y3780948D01*
X1361156Y3782901D01*
X1360781Y3785080D01*
X1359902Y3787485D01*
X1358520Y3790117D01*
X1356634Y3792975D01*
X1354244Y3796058D01*
X1351351Y3799368D01*
X1347954Y3802904D01*
X1362096Y3817046D01*
X1365632Y3813649D01*
D02*
G37*
G36*
X1547605Y3896779D02*
X1546973Y3895052D01*
X1546844Y3893099D01*
X1547219Y3890920D01*
X1548097Y3888514D01*
X1549480Y3885883D01*
X1551366Y3883025D01*
X1553755Y3879942D01*
X1556649Y3876632D01*
X1560046Y3873096D01*
X1545904Y3858954D01*
X1542368Y3862351D01*
X1535975Y3867634D01*
X1533117Y3869520D01*
X1530485Y3870902D01*
X1528080Y3871781D01*
X1525901Y3872156D01*
X1523948Y3872027D01*
X1522220Y3871395D01*
X1520720Y3870258D01*
X1548741Y3898280D01*
X1547605Y3896779D01*
D02*
G37*
G36*
X1560046Y3802904D02*
X1556649Y3799368D01*
X1551366Y3792975D01*
X1549480Y3790117D01*
X1548097Y3787485D01*
X1547219Y3785080D01*
X1546844Y3782901D01*
X1546973Y3780948D01*
X1547605Y3779221D01*
X1548741Y3777720D01*
X1520720Y3805741D01*
X1522220Y3804605D01*
X1523948Y3803973D01*
X1525901Y3803844D01*
X1528080Y3804219D01*
X1530485Y3805098D01*
X1533117Y3806480D01*
X1535975Y3808366D01*
X1539058Y3810755D01*
X1542368Y3813649D01*
X1545904Y3817046D01*
X1560046Y3802904D01*
D02*
G37*
G36*
X1039605Y3769779D02*
X1038973Y3768052D01*
X1038844Y3766099D01*
X1039219Y3763920D01*
X1040097Y3761514D01*
X1041480Y3758883D01*
X1043366Y3756025D01*
X1045755Y3752942D01*
X1048649Y3749632D01*
X1052046Y3746096D01*
X1037904Y3731954D01*
X1034368Y3735351D01*
X1027975Y3740634D01*
X1025117Y3742520D01*
X1022485Y3743902D01*
X1020080Y3744781D01*
X1017901Y3745156D01*
X1015948Y3745027D01*
X1014220Y3744395D01*
X1012720Y3743258D01*
X1040741Y3771280D01*
X1039605Y3769779D01*
D02*
G37*
G36*
X1052046Y3675904D02*
X1048649Y3672368D01*
X1043366Y3665975D01*
X1041480Y3663117D01*
X1040097Y3660485D01*
X1039219Y3658080D01*
X1038844Y3655901D01*
X1038973Y3653948D01*
X1039605Y3652221D01*
X1040741Y3650720D01*
X1012720Y3678741D01*
X1014220Y3677605D01*
X1015948Y3676973D01*
X1017901Y3676844D01*
X1020080Y3677219D01*
X1022485Y3678098D01*
X1025117Y3679480D01*
X1027975Y3681366D01*
X1031058Y3683755D01*
X1034368Y3686649D01*
X1037904Y3690046D01*
X1052046Y3675904D01*
D02*
G37*
G36*
X879280Y3616258D02*
X877779Y3617395D01*
X876052Y3618027D01*
X874099Y3618156D01*
X871920Y3617781D01*
X869514Y3616902D01*
X866883Y3615520D01*
X864025Y3613634D01*
X860942Y3611244D01*
X857632Y3608351D01*
X854096Y3604954D01*
X839954Y3619096D01*
X843351Y3622632D01*
X848634Y3629025D01*
X850520Y3631883D01*
X851902Y3634514D01*
X852781Y3636920D01*
X853156Y3639099D01*
X853027Y3641052D01*
X852395Y3642779D01*
X851258Y3644280D01*
X879280Y3616258D01*
D02*
G37*
G36*
X857632Y3559649D02*
X864025Y3554366D01*
X866883Y3552480D01*
X869514Y3551098D01*
X871920Y3550219D01*
X874099Y3549844D01*
X876052Y3549973D01*
X877779Y3550605D01*
X879280Y3551741D01*
X851258Y3523720D01*
X852395Y3525221D01*
X853027Y3526948D01*
X853156Y3528901D01*
X852781Y3531080D01*
X851902Y3533485D01*
X850520Y3536117D01*
X848634Y3538975D01*
X846244Y3542058D01*
X843351Y3545368D01*
X839954Y3548904D01*
X854096Y3563046D01*
X857632Y3559649D01*
D02*
G37*
G36*
X1501514Y3619811D02*
X1498116Y3622222D01*
X1494538Y3624379D01*
X1490778Y3626282D01*
X1486838Y3627932D01*
X1482718Y3629328D01*
X1478416Y3630470D01*
X1473934Y3631358D01*
X1469271Y3631992D01*
X1464427Y3632373D01*
X1459402Y3632500D01*
Y3662500D01*
X1464427Y3662627D01*
X1469271Y3663007D01*
X1473934Y3663642D01*
X1478416Y3664530D01*
X1482718Y3665672D01*
X1486838Y3667068D01*
X1490778Y3668718D01*
X1494538Y3670621D01*
X1498116Y3672778D01*
X1501514Y3675189D01*
Y3619811D01*
D02*
G37*
G36*
X1409884Y3672778D02*
X1413462Y3670621D01*
X1417221Y3668718D01*
X1421161Y3667068D01*
X1425282Y3665672D01*
X1429584Y3664530D01*
X1434066Y3663642D01*
X1438729Y3663007D01*
X1443573Y3662627D01*
X1448598Y3662500D01*
Y3632500D01*
X1443573Y3632373D01*
X1438729Y3631992D01*
X1434066Y3631358D01*
X1429584Y3630470D01*
X1425282Y3629328D01*
X1421161Y3627932D01*
X1417221Y3626282D01*
X1413462Y3624379D01*
X1409884Y3622222D01*
X1406486Y3619811D01*
Y3675189D01*
X1409884Y3672778D01*
D02*
G37*
G36*
X1039605Y3388779D02*
X1038973Y3387052D01*
X1038844Y3385099D01*
X1039219Y3382920D01*
X1040097Y3380514D01*
X1041480Y3377883D01*
X1043366Y3375025D01*
X1045755Y3371942D01*
X1048649Y3368632D01*
X1052046Y3365096D01*
X1037904Y3350954D01*
X1034368Y3354351D01*
X1027975Y3359634D01*
X1025117Y3361520D01*
X1022485Y3362902D01*
X1020080Y3363781D01*
X1017901Y3364156D01*
X1015948Y3364027D01*
X1014220Y3363395D01*
X1012720Y3362258D01*
X1040741Y3390280D01*
X1039605Y3388779D01*
D02*
G37*
G36*
X1052046Y3294904D02*
X1048649Y3291368D01*
X1043366Y3284975D01*
X1041480Y3282117D01*
X1040097Y3279485D01*
X1039219Y3277080D01*
X1038844Y3274901D01*
X1038973Y3272948D01*
X1039605Y3271221D01*
X1040741Y3269720D01*
X1012720Y3297741D01*
X1014220Y3296605D01*
X1015948Y3295973D01*
X1017901Y3295844D01*
X1020080Y3296219D01*
X1022485Y3297098D01*
X1025117Y3298480D01*
X1027975Y3300366D01*
X1031058Y3302755D01*
X1034368Y3305649D01*
X1037904Y3309046D01*
X1052046Y3294904D01*
D02*
G37*
G36*
X879280Y3235258D02*
X877779Y3236395D01*
X876052Y3237027D01*
X874099Y3237156D01*
X871920Y3236781D01*
X869514Y3235902D01*
X866883Y3234520D01*
X864025Y3232634D01*
X860942Y3230244D01*
X857632Y3227351D01*
X854096Y3223954D01*
X839954Y3238096D01*
X843351Y3241632D01*
X848634Y3248025D01*
X850520Y3250883D01*
X851902Y3253514D01*
X852781Y3255920D01*
X853156Y3258099D01*
X853027Y3260052D01*
X852395Y3261779D01*
X851258Y3263280D01*
X879280Y3235258D01*
D02*
G37*
G36*
X857632Y3178649D02*
X864025Y3173366D01*
X866883Y3171480D01*
X869514Y3170098D01*
X871920Y3169219D01*
X874099Y3168844D01*
X876052Y3168973D01*
X877779Y3169605D01*
X879280Y3170741D01*
X851258Y3142720D01*
X852395Y3144221D01*
X853027Y3145948D01*
X853156Y3147901D01*
X852781Y3150080D01*
X851902Y3152485D01*
X850520Y3155117D01*
X848634Y3157975D01*
X846244Y3161058D01*
X843351Y3164368D01*
X839954Y3167904D01*
X854096Y3182046D01*
X857632Y3178649D01*
D02*
G37*
G36*
X1542778Y3120116D02*
X1540621Y3116538D01*
X1538718Y3112778D01*
X1537068Y3108839D01*
X1535672Y3104718D01*
X1534530Y3100416D01*
X1533642Y3095934D01*
X1533007Y3091271D01*
X1532627Y3086427D01*
X1532500Y3081402D01*
X1502500D01*
X1502373Y3086427D01*
X1501992Y3091271D01*
X1501358Y3095934D01*
X1500470Y3100416D01*
X1499327Y3104718D01*
X1497932Y3108839D01*
X1496282Y3112778D01*
X1494379Y3116538D01*
X1492222Y3120116D01*
X1489811Y3123513D01*
X1545189D01*
X1542778Y3120116D01*
D02*
G37*
G36*
X1532627Y3065573D02*
X1533007Y3060729D01*
X1533642Y3056066D01*
X1534530Y3051584D01*
X1535672Y3047282D01*
X1537068Y3043161D01*
X1538718Y3039222D01*
X1540621Y3035462D01*
X1542778Y3031884D01*
X1545189Y3028486D01*
X1489811D01*
X1492222Y3031884D01*
X1494379Y3035462D01*
X1496282Y3039222D01*
X1497932Y3043161D01*
X1499327Y3047282D01*
X1500470Y3051584D01*
X1501358Y3056066D01*
X1501992Y3060729D01*
X1502373Y3065573D01*
X1502500Y3070598D01*
X1532500D01*
X1532627Y3065573D01*
D02*
G37*
G36*
X1039605Y3007779D02*
X1038973Y3006052D01*
X1038844Y3004099D01*
X1039219Y3001920D01*
X1040097Y2999514D01*
X1041480Y2996883D01*
X1043366Y2994025D01*
X1045755Y2990942D01*
X1048649Y2987632D01*
X1052046Y2984096D01*
X1037904Y2969954D01*
X1034368Y2973351D01*
X1027975Y2978634D01*
X1025117Y2980520D01*
X1022485Y2981902D01*
X1020080Y2982781D01*
X1017901Y2983156D01*
X1015948Y2983027D01*
X1014220Y2982395D01*
X1012720Y2981258D01*
X1040741Y3009280D01*
X1039605Y3007779D01*
D02*
G37*
G36*
X1052046Y2913904D02*
X1048649Y2910368D01*
X1043366Y2903975D01*
X1041480Y2901117D01*
X1040097Y2898485D01*
X1039219Y2896080D01*
X1038844Y2893901D01*
X1038973Y2891948D01*
X1039605Y2890221D01*
X1040741Y2888720D01*
X1012720Y2916741D01*
X1014220Y2915605D01*
X1015948Y2914973D01*
X1017901Y2914844D01*
X1020080Y2915219D01*
X1022485Y2916098D01*
X1025117Y2917480D01*
X1027975Y2919366D01*
X1031058Y2921755D01*
X1034368Y2924649D01*
X1037904Y2928046D01*
X1052046Y2913904D01*
D02*
G37*
G36*
X879280Y2854258D02*
X877779Y2855395D01*
X876052Y2856027D01*
X874099Y2856156D01*
X871920Y2855781D01*
X869514Y2854902D01*
X866883Y2853520D01*
X864025Y2851634D01*
X860942Y2849244D01*
X857632Y2846351D01*
X854096Y2842954D01*
X839954Y2857096D01*
X843351Y2860632D01*
X848634Y2867025D01*
X850520Y2869883D01*
X851902Y2872514D01*
X852781Y2874920D01*
X853156Y2877099D01*
X853027Y2879052D01*
X852395Y2880779D01*
X851258Y2882280D01*
X879280Y2854258D01*
D02*
G37*
G36*
X857632Y2797649D02*
X864025Y2792366D01*
X866883Y2790480D01*
X869514Y2789098D01*
X871920Y2788219D01*
X874099Y2787844D01*
X876052Y2787973D01*
X877779Y2788605D01*
X879280Y2789741D01*
X851258Y2761720D01*
X852395Y2763221D01*
X853027Y2764948D01*
X853156Y2766901D01*
X852781Y2769080D01*
X851902Y2771485D01*
X850520Y2774117D01*
X848634Y2776975D01*
X846244Y2780058D01*
X843351Y2783368D01*
X839954Y2786904D01*
X854096Y2801046D01*
X857632Y2797649D01*
D02*
G37*
D20*
X2000000Y1800000D02*
X2200000Y1600000D01*
X1206000Y1800000D02*
X2000000D01*
X2650000Y5750000D02*
X2875000D01*
X2250000Y5350000D02*
X2650000Y5750000D01*
X1506890Y2642110D02*
X1517500D01*
X1524007Y2638007D02*
X1586000Y2700000D01*
X1517500Y2631500D02*
X1524007Y2638007D01*
X1560401D01*
X1521602D02*
X1524007D01*
X1560401D02*
X1564504Y2642110D01*
X1517500D02*
X1521602Y2638007D01*
X1517500Y3012500D02*
Y3139500D01*
X1457796Y2691204D02*
X1506890Y2642110D01*
X1457796Y2691204D02*
Y2952796D01*
X1517500Y3012500D01*
X1317740Y3955740D02*
X1390500Y4028500D01*
X1295740Y3955740D02*
X1317740D01*
X1290000Y3950000D02*
X1295740Y3955740D01*
X1800000Y5685168D02*
Y7113698D01*
X1886302Y7200000D02*
X3053492D01*
X1800000Y7113698D02*
X1886302Y7200000D01*
X3550000Y2250000D02*
Y2258118D01*
X820500Y6381000D02*
X821250D01*
X881750Y6441500D02*
X882500D01*
X821250Y6381000D02*
X881750Y6441500D01*
X3175007Y7615848D02*
X3231915D01*
X3247763Y7600000D01*
X3050000D02*
X3130000Y7680000D01*
X3050000Y7600000D02*
X3050000D01*
X3130000Y7680000D02*
X4142011D01*
X3600000Y7500000D02*
X3630400Y7530400D01*
X3353492Y7500000D02*
X3600000D01*
X3630400Y7530400D02*
X4000159D01*
X3053492Y7200000D02*
X3353492Y7500000D01*
X4000159Y7530400D02*
X4050550Y7480009D01*
X4430000Y5366863D02*
Y7392011D01*
X3813137Y4750000D02*
X4430000Y5366863D01*
X3650000Y4750000D02*
X3813137D01*
X3280000Y4380000D02*
X3650000Y4750000D01*
X3280000Y3140147D02*
Y4380000D01*
X3110726Y2970873D02*
X3280000Y3140147D01*
X4350000Y5400000D02*
Y7358874D01*
X3780000Y4830000D02*
X4350000Y5400000D01*
X3616863Y4830000D02*
X3780000D01*
X3200000Y4413137D02*
X3616863Y4830000D01*
X3200000Y3325000D02*
Y4413137D01*
X3125000Y3250000D02*
X3200000Y3325000D01*
X4142011Y7680000D02*
X4430000Y7392011D01*
X3247763Y7600000D02*
X4108874D01*
X4350000Y7358874D01*
X1696688Y5507786D02*
Y5581855D01*
X1518250Y5424750D02*
X1613652D01*
X1696688Y5507786D01*
Y5581855D02*
X1800000Y5685168D01*
X2250000Y2612878D02*
Y5350000D01*
X1537122Y1900000D02*
X2250000Y2612878D01*
X1117000Y2249000D02*
X1200000Y2166000D01*
Y2005501D02*
Y2166000D01*
X1305501Y1900000D02*
X1537122D01*
X1200000Y2005501D02*
X1305501Y1900000D01*
X1300000Y2100000D02*
Y2160000D01*
X1390500Y2250500D01*
X1586000Y2700000D02*
X1650000D01*
X1591882Y3500000D02*
X1600000D01*
X1517500Y3520500D02*
X1571382D01*
X1591882Y3500000D01*
X1594260Y3605740D02*
X1600000Y3600000D01*
X1517500Y3647500D02*
X1559260Y3605740D01*
X1594260D01*
X1390500Y3647500D02*
X1517500D01*
X1521306Y4030428D02*
X1524356Y4027378D01*
X1564504D02*
X1591882Y4000000D01*
X1524356Y4027378D02*
X1564504D01*
X1591882Y4000000D02*
X1600000D01*
X1517500Y4155500D02*
X1605500D01*
X1653705Y4203705D01*
X1250000Y4450000D02*
X1290500Y4409500D01*
X1390500D01*
X1517500Y4536500D02*
Y4663500D01*
X1624529Y5050000D02*
X1660000Y5085471D01*
X1523000Y5050000D02*
X1624529D01*
X1517500Y5044500D02*
X1523000Y5050000D01*
X1390500Y5171500D02*
X1517500D01*
X1200000Y5250000D02*
X1312000D01*
X1390500Y5171500D01*
X1455500Y5618250D02*
Y5619000D01*
Y5616750D02*
Y5618250D01*
X1517500Y5552500D02*
Y5554750D01*
X1455500Y5616750D02*
X1517500Y5554750D01*
X1390500Y5552500D02*
Y5553250D01*
X1455500Y5618250D01*
X1456250Y5619000D02*
X1516750Y5679500D01*
X1517500D01*
X1455500Y5619000D02*
X1456250D01*
X1329250Y5873000D02*
X1389750Y5933500D01*
X1390500D01*
X1328500Y5873000D02*
X1329250D01*
X1517500Y6060500D02*
Y6187500D01*
X1518250D02*
X1578750Y6248000D01*
X1517500Y6187500D02*
X1518250D01*
X1578750Y6248000D02*
X1579500D01*
X1391250Y6314500D02*
X1451750Y6375000D01*
X1390500Y6314500D02*
X1391250D01*
X1451750Y6375000D02*
X1452500D01*
X1330000Y6502750D02*
X1390500Y6442250D01*
Y6441500D02*
Y6442250D01*
X1330000Y6502750D02*
Y6503500D01*
X1457000Y6629750D02*
X1517500Y6569250D01*
Y6568500D02*
Y6569250D01*
X1457000Y6629750D02*
Y6630500D01*
X1518250Y6695500D02*
X1578750Y6756000D01*
X1517500Y6695500D02*
X1518250D01*
X1578750Y6756000D02*
X1579500D01*
X1390500Y6821750D02*
X1451000Y6761250D01*
X1390500Y6821750D02*
Y6822500D01*
X1451000Y6760500D02*
Y6761250D01*
X1390500Y6948750D02*
X1451000Y6888250D01*
X1390500Y6948750D02*
Y6949500D01*
X1451000Y6887500D02*
Y6888250D01*
X1517500Y7075750D02*
X1578000Y7015250D01*
X1517500Y7075750D02*
Y7076500D01*
X1578000Y7014500D02*
Y7015250D01*
X1010250Y7076500D02*
X1070750Y7137000D01*
X1009500Y7076500D02*
X1010250D01*
X1070750Y7137000D02*
X1071500D01*
X882500Y6821750D02*
X943000Y6761250D01*
X882500Y6821750D02*
Y6822500D01*
X943000Y6760500D02*
Y6761250D01*
X1010250Y6695500D02*
X1070750Y6756000D01*
X1009500Y6695500D02*
X1010250D01*
X1070750Y6756000D02*
X1071500D01*
X1009500Y6567750D02*
X1070000Y6507250D01*
X1009500Y6567750D02*
Y6568500D01*
X1070000Y6506500D02*
Y6507250D01*
X1010250Y6187500D02*
X1070750Y6248000D01*
X1009500Y6187500D02*
X1010250D01*
X1070750Y6248000D02*
X1071500D01*
X821250Y6000000D02*
X881750Y6060500D01*
X882500D01*
X820500Y6000000D02*
X821250D01*
X948250Y5746000D02*
X1008750Y5806500D01*
X1009500D01*
X947500Y5746000D02*
X948250D01*
X882500Y5678750D02*
X943000Y5618250D01*
X882500Y5678750D02*
Y5679500D01*
X943000Y5617500D02*
Y5618250D01*
X882500Y5298500D02*
X1009500Y5425500D01*
Y5424750D02*
Y5425500D01*
X822000Y5359750D02*
X882500Y5299250D01*
Y5298500D02*
Y5299250D01*
X822000Y5359750D02*
Y5360500D01*
X944500Y4978750D02*
X1009500Y5043750D01*
Y5044500D01*
X944500Y4978000D02*
Y4978750D01*
X883250Y4917500D02*
X943750Y4978000D01*
X882500Y4917500D02*
X883250D01*
X943750Y4978000D02*
X944500D01*
X1009500Y4663500D02*
X1083641D01*
X1094441Y4652700D02*
X1173237D01*
X1083641Y4663500D02*
X1094441Y4652700D01*
X800000Y4550000D02*
X808118D01*
X821618Y4536500D02*
X882500D01*
X808118Y4550000D02*
X821618Y4536500D01*
X1009500Y4281750D02*
X1070000Y4221250D01*
X1009500Y4281750D02*
Y4282500D01*
X1070000Y4220500D02*
Y4221250D01*
X822000Y4216750D02*
X882500Y4156250D01*
Y4155500D02*
Y4156250D01*
X822000Y4216750D02*
Y4217500D01*
X944500Y3835750D02*
X1009500Y3900750D01*
X883250Y3774500D02*
X943750Y3835000D01*
X882500Y3774500D02*
X883250D01*
X943750Y3835000D02*
X944500D01*
X1009500Y3519750D02*
X1070000Y3459250D01*
X1009500Y3519750D02*
Y3520500D01*
X1070000Y3458500D02*
Y3459250D01*
X882500Y3392750D02*
X943000Y3332250D01*
X882500Y3392750D02*
Y3393500D01*
X943000Y3331500D02*
Y3332250D01*
X948250Y3079000D02*
X1008750Y3139500D01*
X1009500D01*
X947500Y3079000D02*
X948250D01*
X882500Y3011750D02*
X943000Y2951250D01*
X882500Y3011750D02*
Y3012500D01*
X943000Y2950500D02*
Y2951250D01*
X948250Y2698000D02*
X1008750Y2758500D01*
X1009500D01*
X947500Y2698000D02*
X948250D01*
X882500Y2630750D02*
X943000Y2570250D01*
X882500Y2630750D02*
Y2631500D01*
X943000Y2569500D02*
Y2570250D01*
X1009500Y2122750D02*
X1070000Y2062250D01*
X1009500Y2122750D02*
Y2123500D01*
X1070000Y2061500D02*
Y2062250D01*
X1009500Y2376750D02*
X1070000Y2316250D01*
X1009500Y2376750D02*
Y2377500D01*
X1070000Y2315500D02*
Y2316250D01*
X882500Y2249750D02*
X943000Y2189250D01*
X882500Y2249750D02*
Y2250500D01*
X943000Y2188500D02*
Y2189250D01*
X1517500Y2631500D02*
X1600000Y2549000D01*
Y2500000D02*
Y2549000D01*
X1451750Y2565000D02*
X1452500D01*
X1390500Y2504500D02*
X1391250D01*
X1451750Y2565000D01*
X1517500Y2377500D02*
X1623500D01*
X1516750Y2378250D02*
X1517500Y2377500D01*
X1623500D02*
X1624250Y2376750D01*
X1564504Y2117379D02*
X1581882Y2100000D01*
X1590000D01*
X1517500Y2123500D02*
X1523621Y2117379D01*
X1564504D01*
X1517500Y5298500D02*
X1519500D01*
X1588000Y5230000D01*
X1590000D01*
X1517500Y5425500D02*
X1518250Y5424750D01*
X1520750Y4666750D02*
X1586750D01*
X1010250Y5297750D02*
X1116250D01*
X1009500Y5298500D02*
X1010250Y5297750D01*
X1116250D02*
X1117000Y5297000D01*
X1389750Y2016750D02*
Y2122750D01*
X1389000Y2016000D02*
X1389750Y2016750D01*
Y2122750D02*
X1390500Y2123500D01*
X882500D02*
X1206000Y1800000D01*
X1010250Y2249750D02*
X1116250D01*
D21*
X1575000Y2800000D02*
X2050000Y3275000D01*
Y5294155D01*
X2495000Y2445000D02*
X2850000Y2800000D01*
X2215000Y2445000D02*
X2495000D01*
X2850000Y2800000D02*
Y3500000D01*
X1860000Y2090000D02*
X2215000Y2445000D01*
X2850000Y3500000D02*
Y4850000D01*
X1974999Y6864999D02*
X2190000Y7080000D01*
X1959003Y6609003D02*
X1974999Y6624999D01*
Y6864999D01*
X1959003Y5385152D02*
Y6609003D01*
X2850000Y4850000D02*
X3490000Y5490000D01*
X4150000Y5787491D02*
Y5850000D01*
X3852510Y5490000D02*
X4150000Y5787491D01*
X3490000Y5490000D02*
X3852510D01*
X1959003Y5385152D02*
X2050000Y5294155D01*
X4350000Y3050000D02*
X4850000D01*
D22*
X1052981Y5980500D02*
X1056331Y5977150D01*
X1036413Y5980500D02*
X1052981D01*
X1099326Y5977150D02*
X1119176Y5957300D01*
X1056331Y5977150D02*
X1099326D01*
X1024697Y5968784D02*
X1036413Y5980500D01*
X1024697Y5960606D02*
Y5968784D01*
X1009500Y5945408D02*
X1024697Y5960606D01*
X1119176Y5957300D02*
X1130000D01*
X1009500Y5933500D02*
Y5945408D01*
X1119176Y6030000D02*
X1130000D01*
X1099326Y6010150D02*
X1119176Y6030000D01*
X1009500Y6048591D02*
Y6060500D01*
X1024697Y6025216D02*
Y6033394D01*
X1009500Y6048591D02*
X1024697Y6033394D01*
X1070000Y6010150D02*
X1099326D01*
X1066650Y6013500D02*
X1070000Y6010150D01*
X1036413Y6013500D02*
X1066650D01*
X1024697Y6025216D02*
X1036413Y6013500D01*
X1131176Y3366350D02*
X1142000D01*
X1111326Y3346500D02*
X1131176Y3366350D01*
X1009500Y3393500D02*
X1056500Y3346500D01*
X1111326D01*
X1056500Y3313500D02*
X1111326D01*
X1131176Y3293650D01*
X1142000D01*
X1009500Y3266500D02*
X1056500Y3313500D01*
X1343500Y4202500D02*
X1390500Y4155500D01*
X1288674Y4202500D02*
X1343500D01*
X1268824Y4182650D02*
X1288674Y4202500D01*
X1258000Y4182650D02*
X1268824D01*
X1343500Y4235500D02*
X1390500Y4282500D01*
X1288674Y4235500D02*
X1343500D01*
X1268824Y4255350D02*
X1288674Y4235500D01*
X1258000Y4255350D02*
X1268824D01*
X1131176Y2985350D02*
X1142000D01*
X1111326Y2965500D02*
X1131176Y2985350D01*
X1009500Y3012500D02*
X1056500Y2965500D01*
X1111326D01*
X1111326Y2932500D02*
X1131176Y2912650D01*
X1056500Y2932500D02*
X1111326D01*
X1131176Y2912650D02*
X1142000D01*
X1009500Y2885500D02*
X1056500Y2932500D01*
X750000Y6668350D02*
X760824D01*
X835500Y6648500D02*
X882500Y6695500D01*
X780674Y6648500D02*
X835500D01*
X760824Y6668350D02*
X780674Y6648500D01*
X780674Y6615500D02*
X835500D01*
X760824Y6595650D02*
X780674Y6615500D01*
X835500D02*
X882500Y6568500D01*
X750000Y6595650D02*
X760824D01*
X1344504Y5107402D02*
X1541931D01*
X1280406Y5171500D02*
X1344504Y5107402D01*
X1009500Y5171500D02*
X1280406D01*
X1541931Y5107402D02*
X1593144Y5158615D01*
X1661385D01*
X1517500Y3266500D02*
X1518250Y3265750D01*
X1624250D02*
X1625000Y3265000D01*
X1518250Y3265750D02*
X1624250D01*
Y3392750D02*
X1625000Y3392000D01*
X1517500Y3393500D02*
X1518250Y3392750D01*
X1624250D01*
X1881309Y4370425D02*
X1884079Y4373195D01*
X1180000Y4090000D02*
X1640000D01*
X1884079Y4373195D02*
Y4748328D01*
X1640000Y4090000D02*
X1881309Y4331309D01*
Y4370425D01*
X1262796Y4337204D02*
X1557204D01*
X1009500Y4409500D02*
X1190500D01*
X1262796Y4337204D01*
X1661385Y5158615D02*
X1934009Y4885991D01*
X1255000Y4980000D02*
X1520000D01*
X1520445Y4979555D01*
X1628516D01*
X1192500Y4917500D02*
X1255000Y4980000D01*
X1517500Y4917500D02*
X1651449D01*
X1738949Y5005000D01*
X1934009Y4348596D02*
Y4885991D01*
X1009500Y3900750D02*
Y3901500D01*
X944500Y3835000D02*
Y3835750D01*
X1662500Y4442500D02*
Y4622500D01*
X1557204Y4337204D02*
X1662500Y4442500D01*
X1517500Y4282500D02*
X1581100D01*
X1725000Y4426401D01*
X1517500Y4663500D02*
X1520750Y4666750D01*
X1586750D02*
X1590000Y4670000D01*
X1662500Y4622500D02*
X1740000Y4700000D01*
X1517500Y4790500D02*
X1771977D01*
X1804983Y4430000D02*
Y4757494D01*
X1771977Y4790500D02*
X1804983Y4757494D01*
X1881309Y4751098D02*
X1884079Y4748328D01*
X1117000Y4027000D02*
X1180000Y4090000D01*
X1009500Y4917500D02*
X1192500D01*
X780740Y4905740D02*
Y4942740D01*
X882500Y5044500D01*
X775000Y4900000D02*
X780740Y4905740D01*
X1275000Y4750000D02*
Y4802000D01*
X1390500Y4917500D01*
X1517500Y4413499D02*
X1600000Y4496000D01*
Y4500000D01*
X1517500Y4409500D02*
Y4413499D01*
X1009500Y4790500D02*
X1115500D01*
X1008750Y4791250D02*
X1009500Y4790500D01*
X1115500D02*
X1116250Y4789750D01*
X1010250Y4154750D02*
X1116250D01*
X1009500Y4155500D02*
X1010250Y4154750D01*
X1116250D02*
X1117000Y4154000D01*
X1010250Y4535750D02*
X1116250D01*
X1009500Y4536500D02*
X1010250Y4535750D01*
X1116250D02*
X1117000Y4535000D01*
X1725000Y4426401D02*
Y4589999D01*
X1009500Y4028500D02*
X1010250Y4027750D01*
X1116250D01*
X1117000Y4027000D01*
X775750Y4664250D02*
X881750D01*
X882500Y4663500D01*
X775000Y4665000D02*
X775750Y4664250D01*
Y3902250D02*
X881750D01*
X882500Y3901500D01*
X775000Y3903000D02*
X775750Y3902250D01*
Y4283250D02*
X881750D01*
X882500Y4282500D01*
X775000Y4284000D02*
X775750Y4283250D01*
X1283750Y4537250D02*
X1389750D01*
X1390500Y4536500D01*
X1283000Y4538000D02*
X1283750Y4537250D01*
X881750Y4029250D02*
X882500Y4028500D01*
X775750Y4029250D02*
X881750D01*
X775000Y4030000D02*
X775750Y4029250D01*
X881750Y4410250D02*
X882500Y4409500D01*
X775750Y4410250D02*
X881750D01*
X775000Y4411000D02*
X775750Y4410250D01*
X1389750Y4664250D02*
X1390500Y4663500D01*
X1283750Y4664250D02*
X1389750D01*
X1283000Y4665000D02*
X1283750Y4664250D01*
X881750Y4791250D02*
X882500Y4790500D01*
X775750Y4791250D02*
X881750D01*
X775000Y4792000D02*
X775750Y4791250D01*
X1389750Y5045250D02*
X1390500Y5044500D01*
X1283750Y5045250D02*
X1389750D01*
X1283000Y5046000D02*
X1283750Y5045250D01*
X881750Y5172250D02*
X882500Y5171500D01*
X775750Y5172250D02*
X881750D01*
X775000Y5173000D02*
X775750Y5172250D01*
X1517500Y2250500D02*
X1600500D01*
X1650000Y2300000D01*
X1116250Y2249750D02*
X1117000Y2249000D01*
X1009500Y2250500D02*
X1010250Y2249750D01*
X1343500Y3821500D02*
X1390500Y3774500D01*
X1288674Y3821500D02*
X1343500D01*
X1268824Y3801650D02*
X1288674Y3821500D01*
X1258000Y3801650D02*
X1268824D01*
Y3874350D02*
X1288674Y3854500D01*
X1258000Y3874350D02*
X1268824D01*
X1343500Y3854500D02*
X1390500Y3901500D01*
X1288674Y3854500D02*
X1343500D01*
X835500Y2805500D02*
X882500Y2758500D01*
X780674Y2805500D02*
X835500D01*
X760824Y2785650D02*
X780674Y2805500D01*
X750000Y2785650D02*
X760824D01*
Y2858350D02*
X780674Y2838500D01*
X835500D01*
X750000Y2858350D02*
X760824D01*
X835500Y2838500D02*
X882500Y2885500D01*
X835500Y3186500D02*
X882500Y3139500D01*
X780674Y3186500D02*
X835500D01*
X760824Y3166650D02*
X780674Y3186500D01*
X750000Y3166650D02*
X760824D01*
Y3239350D02*
X780674Y3219500D01*
X835500D01*
X750000Y3239350D02*
X760824D01*
X835500Y3219500D02*
X882500Y3266500D01*
X750000Y3620350D02*
X760824D01*
X835500Y3600500D02*
X882500Y3647500D01*
X760824Y3620350D02*
X780674Y3600500D01*
X835500D01*
X1056500Y3694500D02*
X1111326D01*
X1131176Y3674650D02*
X1142000D01*
X1111326Y3694500D02*
X1131176Y3674650D01*
X1009500Y3647500D02*
X1056500Y3694500D01*
X1131176Y3747350D02*
X1142000D01*
X1009500Y3774500D02*
X1056500Y3727500D01*
X1111326D02*
X1131176Y3747350D01*
X1056500Y3727500D02*
X1111326D01*
X1639176Y3874350D02*
X1650000D01*
X1517500Y3901500D02*
X1564500Y3854500D01*
X1619326D02*
X1639176Y3874350D01*
X1564500Y3854500D02*
X1619326D01*
X1639176Y3801650D02*
X1650000D01*
X1564500Y3821500D02*
X1619326D01*
X1639176Y3801650D01*
X1517500Y3774500D02*
X1564500Y3821500D01*
X835500Y3567500D02*
X882500Y3520500D01*
X780674Y3567500D02*
X835500D01*
X760824Y3547650D02*
X780674Y3567500D01*
X750000Y3547650D02*
X760824D01*
X1131176Y6341650D02*
X1142000D01*
X1056500Y6361500D02*
X1111326D01*
X1131176Y6341650D01*
X1009500Y6314500D02*
X1056500Y6361500D01*
X1131176Y6414350D02*
X1142000D01*
X1009500Y6441500D02*
X1056500Y6394500D01*
X1111326D02*
X1131176Y6414350D01*
X1056500Y6394500D02*
X1111326D01*
X1288674Y6107500D02*
X1343500D01*
X1268824Y6087650D02*
X1288674Y6107500D01*
X1258000Y6087650D02*
X1268824D01*
X1343500Y6107500D02*
X1390500Y6060500D01*
X1258000Y6160350D02*
X1268824D01*
X1343500Y6140500D02*
X1390500Y6187500D01*
X1288674Y6140500D02*
X1343500D01*
X1268824Y6160350D02*
X1288674Y6140500D01*
X750000Y5525350D02*
X760824D01*
X835500Y5505500D02*
X882500Y5552500D01*
X780674Y5505500D02*
X835500D01*
X760824Y5525350D02*
X780674Y5505500D01*
X1258000Y5398350D02*
X1268824D01*
X1343500Y5378500D02*
X1390500Y5425500D01*
X1288674Y5378500D02*
X1343500D01*
X1268824Y5398350D02*
X1288674Y5378500D01*
X1288674Y5345500D02*
X1343500D01*
X1258000Y5325650D02*
X1268824D01*
X1343500Y5345500D02*
X1390500Y5298500D01*
X1268824Y5325650D02*
X1288674Y5345500D01*
X1343500Y5759500D02*
X1390500Y5806500D01*
X1268824Y5779350D02*
X1288674Y5759500D01*
X1343500D01*
X1258000Y5779350D02*
X1268824D01*
X1288674Y5726500D02*
X1343500D01*
X1390500Y5679500D01*
X1268824Y5706650D02*
X1288674Y5726500D01*
X1258000Y5706650D02*
X1268824D01*
X1056500Y5599500D02*
X1111326D01*
X1131176Y5579650D01*
X1142000D01*
X1009500Y5552500D02*
X1056500Y5599500D01*
X1131176Y5652350D02*
X1142000D01*
X1111326Y5632500D02*
X1131176Y5652350D01*
X1009500Y5679500D02*
X1056500Y5632500D01*
X1111326D01*
X1564500Y5853500D02*
X1619326D01*
X1639176Y5833650D01*
X1650000D01*
X1517500Y5806500D02*
X1564500Y5853500D01*
X1639176Y5906350D02*
X1650000D01*
X1619326Y5886500D02*
X1639176Y5906350D01*
X1517500Y5933500D02*
X1564500Y5886500D01*
X1619326D01*
X780674Y5853500D02*
X835500D01*
X750000Y5833650D02*
X760824D01*
X835500Y5853500D02*
X882500Y5806500D01*
X760824Y5833650D02*
X780674Y5853500D01*
X750000Y5906350D02*
X760824D01*
X835500Y5886500D02*
X882500Y5933500D01*
X780674Y5886500D02*
X835500D01*
X760824Y5906350D02*
X780674Y5886500D01*
X780674Y6234500D02*
X835500D01*
X750000Y6214650D02*
X760824D01*
X835500Y6234500D02*
X882500Y6187500D01*
X760824Y6214650D02*
X780674Y6234500D01*
X750000Y6287350D02*
X760824D01*
X835500Y6267500D02*
X882500Y6314500D01*
X780674Y6267500D02*
X835500D01*
X760824Y6287350D02*
X780674Y6267500D01*
X835500Y5472500D02*
X882500Y5425500D01*
X780674Y5472500D02*
X835500D01*
X760824Y5452650D02*
X780674Y5472500D01*
X750000Y5452650D02*
X760824D01*
D23*
X1517500Y2758500D02*
X1518267Y2759267D01*
Y2763615D02*
X1554651Y2800000D01*
X1575000D01*
X1518267Y2759267D02*
Y2763615D01*
D25*
X990000Y7698000D02*
D03*
Y1362000D02*
D03*
D26*
X1200000Y7319070D02*
D03*
X895200Y1880930D02*
D03*
D27*
X3600000Y500000D02*
D03*
Y3900000D02*
D03*
X3600000Y8500000D02*
D03*
Y5100000D02*
D03*
D28*
X3866497Y3206500D02*
D03*
Y1193500D02*
D03*
X3866497Y5793500D02*
D03*
Y7806501D02*
D03*
D29*
X400000Y400000D02*
D03*
Y8800000D02*
D03*
X4700000D02*
D03*
Y400000D02*
D03*
D30*
X2200000Y1600000D02*
D03*
X2875000Y5750000D02*
D03*
X2400000Y1400000D02*
D03*
X1130000Y5957300D02*
D03*
X3700000Y7400000D02*
D03*
Y7472700D02*
D03*
X1130000Y6030000D02*
D03*
X1575000Y2800000D02*
D03*
X1650000Y5650000D02*
D03*
X1600000Y5575000D02*
D03*
X1800000Y5425000D02*
D03*
X1837922Y5188925D02*
D03*
X4500000Y8500000D02*
D03*
Y8000000D02*
D03*
Y5000000D02*
D03*
Y4500000D02*
D03*
Y4000000D02*
D03*
Y1000000D02*
D03*
X4000000Y8500000D02*
D03*
Y8000000D02*
D03*
Y4500000D02*
D03*
Y4000000D02*
D03*
Y500000D02*
D03*
X3000000Y8500000D02*
D03*
Y4500000D02*
D03*
Y500000D02*
D03*
X2500000Y8500000D02*
D03*
Y5000000D02*
D03*
Y2000000D02*
D03*
Y500000D02*
D03*
X2000000Y8500000D02*
D03*
Y500000D02*
D03*
X1500000Y8500000D02*
D03*
Y1000000D02*
D03*
Y500000D02*
D03*
X1000000Y8500000D02*
D03*
Y8000000D02*
D03*
Y1000000D02*
D03*
Y500000D02*
D03*
X500000Y8500000D02*
D03*
Y8000000D02*
D03*
Y7500000D02*
D03*
Y7000000D02*
D03*
Y6500000D02*
D03*
Y6000000D02*
D03*
Y5000000D02*
D03*
Y4500000D02*
D03*
Y4000000D02*
D03*
Y3500000D02*
D03*
Y3000000D02*
D03*
Y2500000D02*
D03*
Y2000000D02*
D03*
Y1000000D02*
D03*
X2644269Y6084534D02*
D03*
X1142000Y3366350D02*
D03*
Y3293650D02*
D03*
X3720000Y2476354D02*
D03*
Y2403655D02*
D03*
X1860000Y2090000D02*
D03*
X1258000Y4182650D02*
D03*
X3125000Y2802300D02*
D03*
X1258000Y4255350D02*
D03*
X3125000Y2875000D02*
D03*
X1290000Y3950000D02*
D03*
X2190000Y7080000D02*
D03*
X3673024Y2316334D02*
D03*
X1142000Y2985350D02*
D03*
X3673024Y2243635D02*
D03*
X1142000Y2912650D02*
D03*
X3690000Y6670000D02*
D03*
X750000Y6668350D02*
D03*
Y6595650D02*
D03*
X3500000Y6276356D02*
D03*
Y6203656D02*
D03*
X3719784Y6197943D02*
D03*
Y6270643D02*
D03*
X3450000Y7750000D02*
D03*
X3517730Y7313223D02*
D03*
X3600000Y5800000D02*
D03*
X3525822Y3013540D02*
D03*
X3550000Y2250000D02*
D03*
X3600000Y2173167D02*
D03*
X3500000Y1400000D02*
D03*
X820500Y6381000D02*
D03*
X4200000Y3345000D02*
D03*
X3175007Y7615848D02*
D03*
X3050000Y7600000D02*
D03*
X2850000Y7572700D02*
D03*
Y7500000D02*
D03*
X1625000Y3265000D02*
D03*
X3110726Y2970873D02*
D03*
X1625000Y3392000D02*
D03*
X3125000Y3250000D02*
D03*
X2850000Y2800000D02*
D03*
Y3500000D02*
D03*
X4050550Y7480009D02*
D03*
X4150000Y5850000D02*
D03*
X4350000Y3050000D02*
D03*
X4850000D02*
D03*
X4175000Y6295000D02*
D03*
X2898852Y1628258D02*
D03*
X4315000Y1680000D02*
D03*
X4200000Y2600000D02*
D03*
X1300000Y2100000D02*
D03*
X1650000Y2700000D02*
D03*
X1600000Y3500000D02*
D03*
Y3600000D02*
D03*
Y4000000D02*
D03*
X1653705Y4203705D02*
D03*
X1250000Y4450000D02*
D03*
X1660000Y5085471D02*
D03*
X1628516Y4979555D02*
D03*
X1738949Y5005000D02*
D03*
X1200000Y5250000D02*
D03*
X1455500Y5619000D02*
D03*
X1328500Y5873000D02*
D03*
X1579500Y6248000D02*
D03*
X1452500Y6375000D02*
D03*
X1330000Y6503500D02*
D03*
X1457000Y6630500D02*
D03*
X1579500Y6756000D02*
D03*
X1451000Y6760500D02*
D03*
Y6887500D02*
D03*
X1578000Y7014500D02*
D03*
X1071500Y7137000D02*
D03*
X943000Y6760500D02*
D03*
X1071500Y6756000D02*
D03*
X1070000Y6506500D02*
D03*
X1071500Y6248000D02*
D03*
X820500Y6000000D02*
D03*
X947500Y5746000D02*
D03*
X943000Y5617500D02*
D03*
X822000Y5360500D02*
D03*
X944500Y4978000D02*
D03*
X1173237Y4652700D02*
D03*
X800000Y4550000D02*
D03*
X1070000Y4220500D02*
D03*
X822000Y4217500D02*
D03*
X944500Y3835000D02*
D03*
X1070000Y3458500D02*
D03*
X943000Y3331500D02*
D03*
X947500Y3079000D02*
D03*
X943000Y2950500D02*
D03*
X947500Y2698000D02*
D03*
X943000Y2569500D02*
D03*
X1070000Y2061500D02*
D03*
Y2315500D02*
D03*
X943000Y2188500D02*
D03*
X1600000Y2500000D02*
D03*
X1452500Y2565000D02*
D03*
X1624250Y2376750D02*
D03*
X1590000Y2100000D02*
D03*
Y5230000D02*
D03*
X1730000Y5290000D02*
D03*
X1780000Y5560000D02*
D03*
X1116250Y4154750D02*
D03*
X1600000Y4500000D02*
D03*
X1934009Y5166050D02*
D03*
X1590000Y4670000D02*
D03*
X1740000Y4700000D02*
D03*
X1881309Y4751098D02*
D03*
X1934009Y4348596D02*
D03*
X775000Y4900000D02*
D03*
X1275000Y4750000D02*
D03*
X1804983Y4430000D02*
D03*
X1116250Y4789750D02*
D03*
X1117000Y4535000D02*
D03*
Y5297000D02*
D03*
X1725000Y4589999D02*
D03*
X4075000Y2875000D02*
D03*
X775000Y4665000D02*
D03*
Y3903000D02*
D03*
Y4284000D02*
D03*
X1283000Y4538000D02*
D03*
X3000000Y2322700D02*
D03*
Y2250000D02*
D03*
X2745749Y2432625D02*
D03*
Y2359925D02*
D03*
X775000Y4030000D02*
D03*
Y4411000D02*
D03*
X1283000Y4665000D02*
D03*
X775000Y4792000D02*
D03*
X1283000Y5046000D02*
D03*
X775000Y5173000D02*
D03*
X3050000Y6897700D02*
D03*
Y6825000D02*
D03*
X1650000Y2300000D02*
D03*
X1389000Y2016000D02*
D03*
X3100000Y1676356D02*
D03*
Y1603656D02*
D03*
X1258000Y3801650D02*
D03*
Y3874350D02*
D03*
X3673024Y2723644D02*
D03*
Y2796344D02*
D03*
X750000Y3620350D02*
D03*
X3100000Y2636349D02*
D03*
X1142000Y3747350D02*
D03*
Y3674650D02*
D03*
X3100000Y2563649D02*
D03*
X3673024Y2636349D02*
D03*
Y2563649D02*
D03*
X750000Y3547650D02*
D03*
X3673024Y1603656D02*
D03*
Y1676356D02*
D03*
X1258000Y6087650D02*
D03*
Y6160350D02*
D03*
X2700000Y7422700D02*
D03*
Y7350000D02*
D03*
X750000Y5525350D02*
D03*
X3673024Y6916335D02*
D03*
Y6843635D02*
D03*
Y7163649D02*
D03*
Y7236349D02*
D03*
X1258000Y5779350D02*
D03*
Y5706650D02*
D03*
X1142000Y5579650D02*
D03*
Y5652350D02*
D03*
X1650000Y5906350D02*
D03*
Y5833650D02*
D03*
X750000D02*
D03*
Y5906350D02*
D03*
Y6214650D02*
D03*
Y6287350D02*
D03*
X1650000Y3801650D02*
D03*
Y3874350D02*
D03*
X3673024Y7003655D02*
D03*
Y7076355D02*
D03*
X3100000Y7003655D02*
D03*
Y7076355D02*
D03*
X1258000Y5325650D02*
D03*
Y5398350D02*
D03*
X1142000Y6414350D02*
D03*
Y6341650D02*
D03*
X750000Y2785650D02*
D03*
Y2858350D02*
D03*
Y3166650D02*
D03*
Y3239350D02*
D03*
Y5452650D02*
D03*
D32*
X1009500Y2123500D02*
D03*
X882500D02*
D03*
X1009500Y2250500D02*
D03*
X882500D02*
D03*
X1009500Y2377500D02*
D03*
X882500D02*
D03*
X1009500Y2504500D02*
D03*
X882500D02*
D03*
X1009500Y2631500D02*
D03*
X882500D02*
D03*
X1009500Y2758500D02*
D03*
X882500D02*
D03*
X1009500Y2885500D02*
D03*
X882500D02*
D03*
X1009500Y3012500D02*
D03*
X882500D02*
D03*
X1009500Y3139500D02*
D03*
X882500D02*
D03*
X1009500Y3266500D02*
D03*
X882500D02*
D03*
X1009500Y3393500D02*
D03*
X882500D02*
D03*
X1009500Y3520500D02*
D03*
X882500D02*
D03*
X1009500Y3647500D02*
D03*
X882500D02*
D03*
X1009500Y3774500D02*
D03*
X882500D02*
D03*
X1009500Y3901500D02*
D03*
X882500D02*
D03*
X1009500Y4028500D02*
D03*
X882500D02*
D03*
X1009500Y4155500D02*
D03*
X882500D02*
D03*
X1009500Y4282500D02*
D03*
X882500D02*
D03*
X1009500Y4409500D02*
D03*
X882500D02*
D03*
X1009500Y4536500D02*
D03*
X882500D02*
D03*
X1009500Y4663500D02*
D03*
X882500D02*
D03*
X1009500Y4790500D02*
D03*
X882500D02*
D03*
X1009500Y4917500D02*
D03*
X882500D02*
D03*
X1009500Y5044500D02*
D03*
X882500D02*
D03*
X1009500Y5171500D02*
D03*
X882500D02*
D03*
X1009500Y5298500D02*
D03*
X882500D02*
D03*
X1009500Y5425500D02*
D03*
X882500D02*
D03*
X1009500Y5552500D02*
D03*
X882500D02*
D03*
X1009500Y5679500D02*
D03*
X882500D02*
D03*
X1009500Y5806500D02*
D03*
X882500D02*
D03*
X1009500Y5933500D02*
D03*
X882500D02*
D03*
X1009500Y6060500D02*
D03*
X882500D02*
D03*
X1009500Y6187500D02*
D03*
X882500D02*
D03*
X1009500Y6314500D02*
D03*
X882500D02*
D03*
X1009500Y6441500D02*
D03*
X882500D02*
D03*
X1009500Y6568500D02*
D03*
X882500D02*
D03*
X1009500Y6695500D02*
D03*
X882500D02*
D03*
X1009500Y6822500D02*
D03*
X882500D02*
D03*
X1009500Y6949500D02*
D03*
X882500D02*
D03*
X1009500Y7076500D02*
D03*
X882500D02*
D03*
X1390500Y2123500D02*
D03*
Y2250500D02*
D03*
Y2377500D02*
D03*
Y2504500D02*
D03*
Y2631500D02*
D03*
Y2758500D02*
D03*
Y2885500D02*
D03*
Y3012500D02*
D03*
Y3139500D02*
D03*
Y3266500D02*
D03*
Y3393500D02*
D03*
Y3520500D02*
D03*
Y3647500D02*
D03*
Y3774500D02*
D03*
Y3901500D02*
D03*
Y4028500D02*
D03*
Y4155500D02*
D03*
Y4282500D02*
D03*
Y4409500D02*
D03*
Y4536500D02*
D03*
Y4663500D02*
D03*
Y4790500D02*
D03*
Y4917500D02*
D03*
Y5044500D02*
D03*
Y5171500D02*
D03*
Y5298500D02*
D03*
Y5425500D02*
D03*
Y5552500D02*
D03*
Y5679500D02*
D03*
Y5806500D02*
D03*
Y5933500D02*
D03*
Y6060500D02*
D03*
Y6187500D02*
D03*
Y6314500D02*
D03*
Y6441500D02*
D03*
Y6568500D02*
D03*
Y6695500D02*
D03*
Y6822500D02*
D03*
Y6949500D02*
D03*
Y7076500D02*
D03*
X1517500Y2123500D02*
D03*
Y2250500D02*
D03*
Y2377500D02*
D03*
Y2504500D02*
D03*
Y2631500D02*
D03*
Y2758500D02*
D03*
Y2885500D02*
D03*
Y3012500D02*
D03*
Y3139500D02*
D03*
Y3266500D02*
D03*
Y3393500D02*
D03*
Y3520500D02*
D03*
Y3647500D02*
D03*
Y3774500D02*
D03*
Y3901500D02*
D03*
Y4028500D02*
D03*
Y4155500D02*
D03*
Y4282500D02*
D03*
Y4409500D02*
D03*
Y4536500D02*
D03*
Y4663500D02*
D03*
Y4790500D02*
D03*
Y4917500D02*
D03*
Y5044500D02*
D03*
Y5171500D02*
D03*
Y5298500D02*
D03*
Y5425500D02*
D03*
Y5552500D02*
D03*
Y5679500D02*
D03*
Y5806500D02*
D03*
Y5933500D02*
D03*
Y6060500D02*
D03*
Y6187500D02*
D03*
Y6314500D02*
D03*
Y6441500D02*
D03*
Y6568500D02*
D03*
Y6695500D02*
D03*
Y6822500D02*
D03*
Y6949500D02*
D03*
Y7076500D02*
D03*
%TF.MD5,4dd54511523c4aa4780a45a3c7be0703*%
M02*
